<?xml version="1.0" standalone="yes"?>

<svg width="137mm" height="90mm" viewBox="0 0 137 90" version="1.1"
xmlns="http://www.w3.org/2000/svg" style="stroke-linecap:round">
  <path d="M44.0833,88.7918 L44.0833,88.7918" style="stroke:rgb(0,0,0);stroke-width:0.25;fill:none" />
  <path d="M82.2415,5.44629 L84.2498,5.44629" style="stroke:rgb(0,0,0);stroke-width:0.25;fill:none" />
  <path d="M82.2415,5.44629 L82.2415,17.4962" style="stroke:rgb(0,0,0);stroke-width:0.25;fill:none" />
  <path d="M82.2415,17.4962 L84.2498,17.4962" style="stroke:rgb(0,0,0);stroke-width:0.25;fill:none" />
  <path d="M84.2498,17.4962 L84.2498,21.5129" style="stroke:rgb(0,0,0);stroke-width:0.25;fill:none" />
  <path d="M84.2498,5.44629 L84.2498,1.42963" style="stroke:rgb(0,0,0);stroke-width:0.25;fill:none" />
  <path d="M84.2498,1.42963 L104.333,1.42963" style="stroke:rgb(0,0,0);stroke-width:0.25;fill:none" />
  <path d="M104.333,21.5129 L84.2498,21.5129" style="stroke:rgb(0,0,0);stroke-width:0.25;fill:none" />
  <path d="M104.333,5.44629 L104.333,1.42963" style="stroke:rgb(0,0,0);stroke-width:0.25;fill:none" />
  <path d="M106.341,5.44629 L104.333,5.44629" style="stroke:rgb(0,0,0);stroke-width:0.25;fill:none" />
  <path d="M104.333,17.4962 L104.333,21.5129" style="stroke:rgb(0,0,0);stroke-width:0.25;fill:none" />
  <path d="M104.333,17.4962 L106.341,17.4962" style="stroke:rgb(0,0,0);stroke-width:0.25;fill:none" />
  <path d="M106.341,17.4962 L106.341,5.44629" style="stroke:rgb(0,0,0);stroke-width:0.25;fill:none" />
  <ellipse cx="94.2914" cy="11.4713" rx="4.21749" ry="4.21749" style="stroke:rgb(0,0,0);stroke-width:0.25;fill:none;"/>
  <path d="M111.111,5.44629 L113.119,5.44629" style="stroke:rgb(0,0,0);stroke-width:0.25;fill:none" />
  <path d="M111.111,5.44629 L111.111,17.4962" style="stroke:rgb(0,0,0);stroke-width:0.25;fill:none" />
  <path d="M111.111,17.4962 L113.119,17.4962" style="stroke:rgb(0,0,0);stroke-width:0.25;fill:none" />
  <path d="M113.119,17.4962 L113.119,21.5129" style="stroke:rgb(0,0,0);stroke-width:0.25;fill:none" />
  <path d="M113.119,5.44629 L113.119,1.42963" style="stroke:rgb(0,0,0);stroke-width:0.25;fill:none" />
  <path d="M113.119,1.42963 L133.203,1.42963" style="stroke:rgb(0,0,0);stroke-width:0.25;fill:none" />
  <path d="M133.203,21.5129 L113.119,21.5129" style="stroke:rgb(0,0,0);stroke-width:0.25;fill:none" />
  <path d="M133.203,5.44629 L133.203,1.42963" style="stroke:rgb(0,0,0);stroke-width:0.25;fill:none" />
  <path d="M135.211,5.44629 L133.203,5.44629" style="stroke:rgb(0,0,0);stroke-width:0.25;fill:none" />
  <path d="M133.203,17.4962 L133.203,21.5129" style="stroke:rgb(0,0,0);stroke-width:0.25;fill:none" />
  <path d="M133.203,17.4962 L135.211,17.4962" style="stroke:rgb(0,0,0);stroke-width:0.25;fill:none" />
  <path d="M135.211,17.4962 L135.211,5.44629" style="stroke:rgb(0,0,0);stroke-width:0.25;fill:none" />
  <ellipse cx="123.161" cy="11.4713" rx="4.21749" ry="4.21749" style="stroke:rgb(0,0,0);stroke-width:0.25;fill:none;"/>
  <path d="M111.111,27.5379 L113.119,27.5379" style="stroke:rgb(0,0,0);stroke-width:0.25;fill:none" />
  <path d="M111.111,27.5379 L111.111,39.5878" style="stroke:rgb(0,0,0);stroke-width:0.25;fill:none" />
  <path d="M111.111,39.5878 L113.119,39.5878" style="stroke:rgb(0,0,0);stroke-width:0.25;fill:none" />
  <path d="M113.119,39.5878 L113.119,43.6045" style="stroke:rgb(0,0,0);stroke-width:0.25;fill:none" />
  <path d="M113.119,27.5379 L113.119,23.5212" style="stroke:rgb(0,0,0);stroke-width:0.25;fill:none" />
  <path d="M113.119,23.5212 L133.203,23.5212" style="stroke:rgb(0,0,0);stroke-width:0.25;fill:none" />
  <path d="M133.203,43.6045 L113.119,43.6045" style="stroke:rgb(0,0,0);stroke-width:0.25;fill:none" />
  <path d="M133.203,27.5379 L133.203,23.5212" style="stroke:rgb(0,0,0);stroke-width:0.25;fill:none" />
  <path d="M135.211,27.5379 L133.203,27.5379" style="stroke:rgb(0,0,0);stroke-width:0.25;fill:none" />
  <path d="M133.203,39.5878 L133.203,43.6045" style="stroke:rgb(0,0,0);stroke-width:0.25;fill:none" />
  <path d="M133.203,39.5878 L135.211,39.5878" style="stroke:rgb(0,0,0);stroke-width:0.25;fill:none" />
  <path d="M135.211,39.5878 L135.211,27.5379" style="stroke:rgb(0,0,0);stroke-width:0.25;fill:none" />
  <ellipse cx="123.161" cy="33.5629" rx="4.21749" ry="4.21749" style="stroke:rgb(0,0,0);stroke-width:0.25;fill:none;"/>
  <path d="M82.9946,27.5379 L85.0029,27.5379" style="stroke:rgb(0,0,0);stroke-width:0.25;fill:none" />
  <path d="M82.9946,27.5379 L82.9946,39.5878" style="stroke:rgb(0,0,0);stroke-width:0.25;fill:none" />
  <path d="M82.9946,39.5878 L85.0029,39.5878" style="stroke:rgb(0,0,0);stroke-width:0.25;fill:none" />
  <path d="M85.0029,39.5878 L85.0029,43.6045" style="stroke:rgb(0,0,0);stroke-width:0.25;fill:none" />
  <path d="M85.0029,27.5379 L85.0029,23.5212" style="stroke:rgb(0,0,0);stroke-width:0.25;fill:none" />
  <path d="M85.0029,23.5212 L105.086,23.5212" style="stroke:rgb(0,0,0);stroke-width:0.25;fill:none" />
  <path d="M105.086,43.6045 L85.0029,43.6045" style="stroke:rgb(0,0,0);stroke-width:0.25;fill:none" />
  <path d="M105.086,27.5379 L105.086,23.5212" style="stroke:rgb(0,0,0);stroke-width:0.25;fill:none" />
  <path d="M107.095,27.5379 L105.086,27.5379" style="stroke:rgb(0,0,0);stroke-width:0.25;fill:none" />
  <path d="M105.086,39.5878 L105.086,43.6045" style="stroke:rgb(0,0,0);stroke-width:0.25;fill:none" />
  <path d="M105.086,39.5878 L107.095,39.5878" style="stroke:rgb(0,0,0);stroke-width:0.25;fill:none" />
  <path d="M107.095,39.5878 L107.095,27.5379" style="stroke:rgb(0,0,0);stroke-width:0.25;fill:none" />
  <ellipse cx="95.0446" cy="33.5629" rx="4.21749" ry="4.21749" style="stroke:rgb(0,0,0);stroke-width:0.25;fill:none;"/>
  <path d="M24,38.5837 L58.6235,38.5837" style="stroke:rgb(0,0,0);stroke-width:0.25;fill:none" />
  <path d="M78.1902,27.2868 L81.5169,14.8715" style="stroke:rgb(0,0,0);stroke-width:0.25;fill:none" />
  <path d="M75.5321,4.50551 L81.5169,14.8715" style="stroke:rgb(0,0,0);stroke-width:0.25;fill:none" />
  <path d="M75.5321,4.50551 L62.9422,1.13205" style="stroke:rgb(0,0,0);stroke-width:0.25;fill:none" />
  <path d="M45.2974,11.3193 L36.4306,11.3193" style="stroke:rgb(0,0,0);stroke-width:0.25;fill:none" />
  <path d="M3.53776,27.2868 L0.211081,14.8715" style="stroke:rgb(0,0,0);stroke-width:0.25;fill:none" />
  <path d="M6.19589,4.50551 L0.211081,14.8715" style="stroke:rgb(0,0,0);stroke-width:0.25;fill:none" />
  <path d="M6.19589,4.50551 L18.7858,1.13205" style="stroke:rgb(0,0,0);stroke-width:0.25;fill:none" />
  <ellipse cx="41.3118" cy="25.3287" rx="4.21749" ry="4.21749" style="stroke:rgb(0,0,0);stroke-width:0.25;fill:none;"/>
  <ellipse cx="70.6978" cy="14.2076" rx="4.21749" ry="4.21749" style="stroke:rgb(0,0,0);stroke-width:0.25;fill:none;"/>
  <ellipse cx="11.0302" cy="14.2072" rx="4.21749" ry="4.21749" style="stroke:rgb(0,0,0);stroke-width:0.25;fill:none;"/>
  <ellipse cx="30.8685" cy="25.3287" rx="1.70708" ry="1.70708" style="stroke:rgb(0,0,0);stroke-width:0.25;fill:none;"/>
  <ellipse cx="51.7551" cy="25.3287" rx="1.70708" ry="1.70708" style="stroke:rgb(0,0,0);stroke-width:0.25;fill:none;"/>
  <path d="M18.7858,1.13205 L36.4306,11.3193" style="stroke:rgb(0,0,0);stroke-width:0.25;fill:none" />
  <path d="M45.2974,11.3193 L62.9422,1.13205" style="stroke:rgb(0,0,0);stroke-width:0.25;fill:none" />
  <path d="M58.6235,38.5837 L78.1902,27.2868" style="stroke:rgb(0,0,0);stroke-width:0.25;fill:none" />
  <path d="M24,38.5837 L3.53776,27.2868" style="stroke:rgb(0,0,0);stroke-width:0.25;fill:none" />
  <path d="M56.1962,31.869 L58.2046,35.3476" style="stroke:rgb(0,0,0);stroke-width:0.25;fill:none" />
  <path d="M58.2046,35.3476 L75.5972,25.3059" style="stroke:rgb(0,0,0);stroke-width:0.25;fill:none" />
  <path d="M75.5972,25.3059 L73.5889,21.8274" style="stroke:rgb(0,0,0);stroke-width:0.25;fill:none" />
  <path d="M73.5889,21.8274 L56.1962,31.869" style="stroke:rgb(0,0,0);stroke-width:0.25;fill:none" />
  <path d="M47.8017,17.3292 L65.1943,7.28758" style="stroke:rgb(0,0,0);stroke-width:0.25;fill:none" />
  <path d="M65.1943,7.28758 L63.186,3.80906" style="stroke:rgb(0,0,0);stroke-width:0.25;fill:none" />
  <path d="M63.186,3.80906 L45.7933,13.8507" style="stroke:rgb(0,0,0);stroke-width:0.25;fill:none" />
  <path d="M45.7933,13.8507 L47.8017,17.3292" style="stroke:rgb(0,0,0);stroke-width:0.25;fill:none" />
  <path d="M16.4377,7.32466 L34.0195,17.0313" style="stroke:rgb(0,0,0);stroke-width:0.25;fill:none" />
  <path d="M34.0195,17.0313 L35.9608,13.5149" style="stroke:rgb(0,0,0);stroke-width:0.25;fill:none" />
  <path d="M35.9608,13.5149 L18.379,3.8083" style="stroke:rgb(0,0,0);stroke-width:0.25;fill:none" />
  <path d="M18.379,3.8083 L16.4377,7.32466" style="stroke:rgb(0,0,0);stroke-width:0.25;fill:none" />
  <path d="M6.45143,25.4131 L24.0332,35.1197" style="stroke:rgb(0,0,0);stroke-width:0.25;fill:none" />
  <path d="M24.0332,35.1197 L25.9745,31.6033" style="stroke:rgb(0,0,0);stroke-width:0.25;fill:none" />
  <path d="M25.9745,31.6033 L8.39275,21.8967" style="stroke:rgb(0,0,0);stroke-width:0.25;fill:none" />
  <path d="M8.39275,21.8967 L6.45143,25.4131" style="stroke:rgb(0,0,0);stroke-width:0.25;fill:none" />
  <path d="M27.2193,77.3927 L61.8428,77.3927" style="stroke:rgb(0,0,0);stroke-width:0.25;fill:none" />
  <path d="M81.4095,66.0959 L84.7362,53.6806" style="stroke:rgb(0,0,0);stroke-width:0.25;fill:none" />
  <path d="M78.7514,43.3146 L84.7362,53.6806" style="stroke:rgb(0,0,0);stroke-width:0.25;fill:none" />
  <path d="M78.7514,43.3146 L66.1615,39.9411" style="stroke:rgb(0,0,0);stroke-width:0.25;fill:none" />
  <path d="M48.5166,50.1284 L39.6499,50.1284" style="stroke:rgb(0,0,0);stroke-width:0.25;fill:none" />
  <path d="M6.75702,66.0959 L3.43035,53.6806" style="stroke:rgb(0,0,0);stroke-width:0.25;fill:none" />
  <path d="M9.41516,43.3146 L3.43035,53.6806" style="stroke:rgb(0,0,0);stroke-width:0.25;fill:none" />
  <path d="M9.41516,43.3146 L22.0051,39.9411" style="stroke:rgb(0,0,0);stroke-width:0.25;fill:none" />
  <ellipse cx="44.531" cy="64.1378" rx="4.21749" ry="4.21749" style="stroke:rgb(0,0,0);stroke-width:0.25;fill:none;"/>
  <ellipse cx="73.9171" cy="53.0167" rx="4.21749" ry="4.21749" style="stroke:rgb(0,0,0);stroke-width:0.25;fill:none;"/>
  <ellipse cx="14.2494" cy="53.0163" rx="4.21749" ry="4.21749" style="stroke:rgb(0,0,0);stroke-width:0.25;fill:none;"/>
  <ellipse cx="34.0877" cy="64.1378" rx="1.70708" ry="1.70708" style="stroke:rgb(0,0,0);stroke-width:0.25;fill:none;"/>
  <ellipse cx="54.9743" cy="64.1378" rx="1.70708" ry="1.70708" style="stroke:rgb(0,0,0);stroke-width:0.25;fill:none;"/>
  <path d="M22.0051,39.9411 L39.6499,50.1284" style="stroke:rgb(0,0,0);stroke-width:0.25;fill:none" />
  <path d="M48.5166,50.1284 L66.1615,39.9411" style="stroke:rgb(0,0,0);stroke-width:0.25;fill:none" />
  <path d="M61.8428,77.3927 L81.4095,66.0959" style="stroke:rgb(0,0,0);stroke-width:0.25;fill:none" />
  <path d="M27.2193,77.3927 L6.75702,66.0959" style="stroke:rgb(0,0,0);stroke-width:0.25;fill:none" />
  <path d="M59.4155,70.6781 L61.4238,74.1566" style="stroke:rgb(0,0,0);stroke-width:0.25;fill:none" />
  <path d="M61.4238,74.1566 L78.8164,64.115" style="stroke:rgb(0,0,0);stroke-width:0.25;fill:none" />
  <path d="M78.8164,64.115 L76.8081,60.6365" style="stroke:rgb(0,0,0);stroke-width:0.25;fill:none" />
  <path d="M76.8081,60.6365 L59.4155,70.6781" style="stroke:rgb(0,0,0);stroke-width:0.25;fill:none" />
  <path d="M51.0209,56.1383 L68.4135,46.0967" style="stroke:rgb(0,0,0);stroke-width:0.25;fill:none" />
  <path d="M68.4135,46.0967 L66.4052,42.6181" style="stroke:rgb(0,0,0);stroke-width:0.25;fill:none" />
  <path d="M66.4052,42.6181 L49.0126,52.6598" style="stroke:rgb(0,0,0);stroke-width:0.25;fill:none" />
  <path d="M49.0126,52.6598 L51.0209,56.1383" style="stroke:rgb(0,0,0);stroke-width:0.25;fill:none" />
  <path d="M19.657,46.1337 L37.2388,55.8403" style="stroke:rgb(0,0,0);stroke-width:0.25;fill:none" />
  <path d="M37.2388,55.8403 L39.1801,52.324" style="stroke:rgb(0,0,0);stroke-width:0.25;fill:none" />
  <path d="M39.1801,52.324 L21.5983,42.6174" style="stroke:rgb(0,0,0);stroke-width:0.25;fill:none" />
  <path d="M21.5983,42.6174 L19.657,46.1337" style="stroke:rgb(0,0,0);stroke-width:0.25;fill:none" />
  <path d="M9.6707,64.2221 L27.2525,73.9287" style="stroke:rgb(0,0,0);stroke-width:0.25;fill:none" />
  <path d="M27.2525,73.9287 L29.1938,70.4124" style="stroke:rgb(0,0,0);stroke-width:0.25;fill:none" />
  <path d="M29.1938,70.4124 L11.612,60.7058" style="stroke:rgb(0,0,0);stroke-width:0.25;fill:none" />
  <path d="M11.612,60.7058 L9.6707,64.2221" style="stroke:rgb(0,0,0);stroke-width:0.25;fill:none" />
</svg>
