  0
SECTION
  2
HEADER
  9
$ACADVER
  1
AC1015
  9
$ACADMAINTVER
 70
     6
  9
$DWGCODEPAGE
  3
ASCII
  9
$INSBASE
 10
0.0
 20
0.0
 30
0.0
  9
$EXTMIN
 10
1.000000000000000E+20
 20
1.000000000000000E+20
 30
1.000000000000000E+20
  9
$EXTMAX
 10
-1.000000000000000E+20
 20
-1.000000000000000E+20
 30
-1.000000000000000E+20
  9
$LIMMIN
 10
0.0
 20
0.0
  9
$LIMMAX
 10
12.0
 20
9.0
  9
$ORTHOMODE
 70
     0
  9
$REGENMODE
 70
     1
  9
$FILLMODE
 70
     1
  9
$QTEXTMODE
 70
     0
  9
$MIRRTEXT
 70
     1
  9
$LTSCALE
 40
1.0
  9
$ATTMODE
 70
     1
  9
$TEXTSIZE
 40
2.5
  9
$TRACEWID
 40
0.05
  9
$TEXTSTYLE
  7
Standard
  9
$CLAYER
  8
0
  9
$CELTYPE
  6
ByLayer
  9
$CECOLOR
 62
   178
  9
$CELTSCALE
 40
1.0
  9
$DISPSILH
 70
     0
  9
$DIMSCALE
 40
1.0
  9
$DIMASZ
 40
2.5
  9
$DIMEXO
 40
0.625
  9
$DIMDLI
 40
0.38
  9
$DIMRND
 40
0.0
  9
$DIMDLE
 40
0.0
  9
$DIMEXE
 40
1.25
  9
$DIMTP
 40
0.0
  9
$DIMTM
 40
0.0
  9
$DIMTXT
 40
2.5
  9
$DIMCEN
 40
0.09
  9
$DIMTSZ
 40
0.0
  9
$DIMTOL
 70
     0
  9
$DIMLIM
 70
     0
  9
$DIMTIH
 70
     1
  9
$DIMTOH
 70
     1
  9
$DIMSE1
 70
     0
  9
$DIMSE2
 70
     0
  9
$DIMTAD
 70
     0
  9
$DIMZIN
 70
     8
  9
$DIMBLK
  1

  9
$DIMASO
 70
     1
  9
$DIMSHO
 70
     1
  9
$DIMPOST
  1

  9
$DIMAPOST
  1

  9
$DIMALT
 70
     0
  9
$DIMALTD
 70
     2
  9
$DIMALTF
 40
25.4
  9
$DIMLFAC
 40
1.0
  9
$DIMTOFL
 70
     0
  9
$DIMTVP
 40
0.0
  9
$DIMTIX
 70
     0
  9
$DIMSOXD
 70
     0
  9
$DIMSAH
 70
     0
  9
$DIMBLK1
  1

  9
$DIMBLK2
  1

  9
$DIMSTYLE
  2
Standard
  9
$DIMCLRD
 70
   178
  9
$DIMCLRE
 70
   178
  9
$DIMCLRT
 70
   178
  9
$DIMTFAC
 40
1.0
  9
$DIMGAP
 40
0.625
  9
$DIMJUST
 70
     0
  9
$DIMSD1
 70
     0
  9
$DIMSD2
 70
     0
  9
$DIMTOLJ
 70
     1
  9
$DIMTZIN
 70
     0
  9
$DIMALTZ
 70
     0
  9
$DIMALTTZ
 70
     0
  9
$DIMUPT
 70
     0
  9
$DIMDEC
 70
     4
  9
$DIMTDEC
 70
     4
  9
$DIMALTU
 70
     2
  9
$DIMALTTD
 70
     2
  9
$DIMTXSTY
  7
Standard
  9
$DIMAUNIT
 70
     0
  9
$DIMADEC
 70
     0
  9
$DIMALTRND
 40
0.0
  9
$DIMAZIN
 70
     3
  9
$DIMDSEP
 70
    46
  9
$DIMATFIT
 70
     3
  9
$DIMFRAC
 70
     0
  9
$DIMLDRBLK
  1

  9
$DIMLUNIT
 70
     2
  9
$DIMLWD
 70
    -2
  9
$DIMLWE
 70
    -2
  9
$DIMTMOVE
 70
     0
  9
$LUNITS
 70
     2
  9
$LUPREC
 70
     4
  9
$SKETCHINC
 40
0.1
  9
$FILLETRAD
 40
0.5
  9
$AUNITS
 70
     0
  9
$AUPREC
 70
     0
  9
$MENU
  1
.
  9
$ELEVATION
 40
0.0
  9
$PELEVATION
 40
0.0
  9
$THICKNESS
 40
0.0
  9
$LIMCHECK
 70
     0
  9
$CHAMFERA
 40
0.5
  9
$CHAMFERB
 40
0.5
  9
$CHAMFERC
 40
1.0
  9
$CHAMFERD
 40
0.0
  9
$SKPOLY
 70
     0
  9
$TDCREATE
 40
2456007.871770822
  9
$TDUCREATE
 40
2456007.830104167
  9
$TDUPDATE
 40
2456007.871770822
  9
$TDUUPDATE
 40
2456007.830104167
  9
$TDINDWG
 40
0.0000000116
  9
$TDUSRTIMER
 40
0.0000000116
  9
$USRTIMER
 70
     1
  9
$ANGBASE
 50
0.0
  9
$ANGDIR
 70
     0
  9
$PDMODE
 70
     0
  9
$PDSIZE
 40
0.0
  9
$PLINEWID
 40
0.0
  9
$SPLFRAME
 70
     0
  9
$SPLINETYPE
 70
     6
  9
$SPLINESEGS
 70
     8
  9
$HANDSEED
  5
328
  9
$SURFTAB1
 70
     6
  9
$SURFTAB2
 70
     6
  9
$SURFTYPE
 70
     6
  9
$SURFU
 70
     6
  9
$SURFV
 70
     6
  9
$UCSBASE
  2

  9
$UCSNAME
  2

  9
$UCSORG
 10
0.0
 20
0.0
 30
0.0
  9
$UCSXDIR
 10
1.0
 20
0.0
 30
0.0
  9
$UCSYDIR
 10
0.0
 20
1.0
 30
0.0
  9
$UCSORTHOREF
  2

  9
$UCSORTHOVIEW
 70
     0
  9
$UCSORGTOP
 10
0.0
 20
0.0
 30
0.0
  9
$UCSORGBOTTOM
 10
0.0
 20
0.0
 30
0.0
  9
$UCSORGLEFT
 10
0.0
 20
0.0
 30
0.0
  9
$UCSORGRIGHT
 10
0.0
 20
0.0
 30
0.0
  9
$UCSORGFRONT
 10
0.0
 20
0.0
 30
0.0
  9
$UCSORGBACK
 10
0.0
 20
0.0
 30
0.0
  9
$PUCSBASE
  2

  9
$PUCSNAME
  2

  9
$PUCSORG
 10
0.0
 20
0.0
 30
0.0
  9
$PUCSXDIR
 10
1.0
 20
0.0
 30
0.0
  9
$PUCSYDIR
 10
0.0
 20
1.0
 30
0.0
  9
$PUCSORTHOREF
  2

  9
$PUCSORTHOVIEW
 70
     0
  9
$PUCSORGTOP
 10
0.0
 20
0.0
 30
0.0
  9
$PUCSORGBOTTOM
 10
0.0
 20
0.0
 30
0.0
  9
$PUCSORGLEFT
 10
0.0
 20
0.0
 30
0.0
  9
$PUCSORGRIGHT
 10
0.0
 20
0.0
 30
0.0
  9
$PUCSORGFRONT
 10
0.0
 20
0.0
 30
0.0
  9
$PUCSORGBACK
 10
0.0
 20
0.0
 30
0.0
  9
$USERI1
 70
     0
  9
$USERI2
 70
     0
  9
$USERI3
 70
     0
  9
$USERI4
 70
     0
  9
$USERI5
 70
     0
  9
$USERR1
 40
0.0
  9
$USERR2
 40
0.0
  9
$USERR3
 40
0.0
  9
$USERR4
 40
0.0
  9
$USERR5
 40
0.0
  9
$WORLDVIEW
 70
     1
  9
$SHADEDGE
 70
     3
  9
$SHADEDIF
 70
    70
  9
$TILEMODE
 70
     1
  9
$MAXACTVP
 70
    64
  9
$PINSBASE
 10
0.0
 20
0.0
 30
0.0
  9
$PLIMCHECK
 70
     0
  9
$PEXTMIN
 10
1.000000000000000E+20
 20
1.000000000000000E+20
 30
1.000000000000000E+20
  9
$PEXTMAX
 10
-1.000000000000000E+20
 20
-1.000000000000000E+20
 30
-1.000000000000000E+20
  9
$PLIMMIN
 10
0.0
 20
0.0
  9
$PLIMMAX
 10
210.0
 20
297.0
  9
$UNITMODE
 70
     0
  9
$VISRETAIN
 70
     1
  9
$PLINEGEN
 70
     0
  9
$PSLTSCALE
 70
     1
  9
$TREEDEPTH
 70
  3020
  9
$CMLSTYLE
  2
Standard
  9
$CMLJUST
 70
     0
  9
$CMLSCALE
 40
1.0
  9
$PROXYGRAPHICS
 70
     1
  9
$MEASUREMENT
 70
     1
  9
$CELWEIGHT
370
    -1
  9
$ENDCAPS
280
     0
  9
$JOINSTYLE
280
     0
  9
$LWDISPLAY
290
     0
  9
$INSUNITS
 70
     4
  9
$HYPERLINKBASE
  1

  9
$STYLESHEET
  1

  9
$XEDIT
290
     1
  9
$CEPSNTYPE
380
     0
  9
$PSTYLEMODE
290
     1
  9
$FINGERPRINTGUID
  2
{2F636749-02B3-D4F7-608C-B510FD8A6731}
  9
$VERSIONGUID
  2
{FAEB1C32-E019-11D5-929B-00C0DF256EC4}
  9
$EXTNAMES
290
     1
  9
$PSVPSCALE
 40
0.0
  9
$OLESTARTUP
290
     0
  0
ENDSEC
  0
SECTION
  2
CLASSES
  0
CLASS
  1
ACDBDICTIONARYWDFLT
  2
AcDbDictionaryWithDefault
  3
ObjectDBX Classes
 90
        0
280
     0
281
     0
  0
CLASS
  1
VISUALSTYLE
  2
AcDbVisualStyle
  3
ObjectDBX Classes
 90
     4095
280
     0
281
     0
  0
CLASS
  1
MATERIAL
  2
AcDbMaterial
  3
ObjectDBX Classes
 90
     1153
280
     0
281
     0
  0
CLASS
  1
DICTIONARYVAR
  2
AcDbDictionaryVar
  3
ObjectDBX Classes
 90
        0
280
     0
281
     0
  0
CLASS
  1
ACDBPLACEHOLDER
  2
AcDbPlaceHolder
  3
ObjectDBX Classes
 90
        0
280
     0
281
     0
  0
CLASS
  1
LAYOUT
  2
AcDbLayout
  3
ObjectDBX Classes
 90
        0
280
     0
281
     0
  0
ENDSEC
  0
SECTION
  2
TABLES
  0
TABLE
  2
VPORT
  5
291
330
0
100
AcDbSymbolTable
 70
     1
  0
VPORT
  5
2B1
330
291
100
AcDbSymbolTableRecord
100
AcDbViewportTableRecord
  2
*Active
 70
     0
 10
0.0
 20
0.0
 11
1.0
 21
1.0
 12
10.42990654205607
 22
4.5
 13
0.0
 23
0.0
 14
0.5
 24
0.5
 15
0.5
 25
0.5
 16
0.0
 26
0.0
 36
1.0
 17
0.0
 27
0.0
 37
0.0
 40
9.0
 41
1.972972972850329
 42
50.0
 43
0.0
 44
0.0
 50
0.0
 51
0.0
 71
     0
 72
   100
 73
     1
 74
     3
 75
     0
 76
     0
 77
     0
 78
     0
281
     0
 65
     1
110
0.0
120
0.0
130
0.0
111
1.0
121
0.0
131
0.0
112
0.0
122
1.0
132
0.0
 79
     0
146
0.0
  0
ENDTAB
  0
TABLE
  2
LTYPE
  5
28E
330
0
100
AcDbSymbolTable
 70
    19
  0
LTYPE
  5
29C
330
28E
100
AcDbSymbolTableRecord
100
AcDbLinetypeTableRecord
  2
ByBlock
 70
     0
  3

 72
    65
 73
     0
 40
0.0
  0
LTYPE
  5
29D
330
28E
100
AcDbSymbolTableRecord
100
AcDbLinetypeTableRecord
  2
ByLayer
 70
     0
  3

 72
    65
 73
     0
 40
0.0
  0
LTYPE
  5
29E
330
28E
100
AcDbSymbolTableRecord
100
AcDbLinetypeTableRecord
  2
Continuous
 70
     0
  3
Solid line
 72
    65
 73
     0
 40
0.0
  0
LTYPE
  5
2DF
330
28E
100
AcDbSymbolTableRecord
100
AcDbLinetypeTableRecord
  2
BORDER
 70
     0
  3

 72
    65
 73
     6
 40
42.00000000000001
 49
12.0
 74
     0
 49
-6.0
 74
     0
 49
12.0
 74
     0
 49
-5.95
 74
     0
 49
0.1
 74
     0
 49
-5.95
 74
     0
  0
LTYPE
  5
2E0
330
28E
100
AcDbSymbolTableRecord
100
AcDbLinetypeTableRecord
  2
BORDER2
 70
     0
  3

 72
    65
 73
     6
 40
21.0
 49
6.0
 74
     0
 49
-3.0
 74
     0
 49
6.0
 74
     0
 49
-2.95
 74
     0
 49
0.1
 74
     0
 49
-2.95
 74
     0
  0
LTYPE
  5
2E1
330
28E
100
AcDbSymbolTableRecord
100
AcDbLinetypeTableRecord
  2
BORDERX2
 70
     0
  3

 72
    65
 73
     6
 40
84.0
 49
24.0
 74
     0
 49
-12.0
 74
     0
 49
24.0
 74
     0
 49
-11.95
 74
     0
 49
0.1
 74
     0
 49
-11.95
 74
     0
  0
LTYPE
  5
2E2
330
28E
100
AcDbSymbolTableRecord
100
AcDbLinetypeTableRecord
  2
CENTER
 70
     0
  3

 72
    65
 73
     4
 40
50.0
 49
32.0
 74
     0
 49
-6.0
 74
     0
 49
6.0
 74
     0
 49
-6.0
 74
     0
  0
LTYPE
  5
2E3
330
28E
100
AcDbSymbolTableRecord
100
AcDbLinetypeTableRecord
  2
CENTER2
 70
     0
  3

 72
    65
 73
     4
 40
25.0
 49
16.0
 74
     0
 49
-3.0
 74
     0
 49
3.0
 74
     0
 49
-3.0
 74
     0
  0
LTYPE
  5
2E4
330
28E
100
AcDbSymbolTableRecord
100
AcDbLinetypeTableRecord
  2
CENTERX2
 70
     0
  3

 72
    65
 73
     4
 40
100.0
 49
64.0
 74
     0
 49
-12.0
 74
     0
 49
12.0
 74
     0
 49
-12.0
 74
     0
  0
LTYPE
  5
2E5
330
28E
100
AcDbSymbolTableRecord
100
AcDbLinetypeTableRecord
  2
DASHDOT
 70
     0
  3

 72
    65
 73
     4
 40
24.0
 49
12.0
 74
     0
 49
-5.95
 74
     0
 49
0.1
 74
     0
 49
-5.95
 74
     0
  0
LTYPE
  5
2E6
330
28E
100
AcDbSymbolTableRecord
100
AcDbLinetypeTableRecord
  2
DASHDOT2
 70
     0
  3

 72
    65
 73
     4
 40
12.0
 49
6.0
 74
     0
 49
-2.95
 74
     0
 49
0.1
 74
     0
 49
-2.95
 74
     0
  0
LTYPE
  5
2E7
330
28E
100
AcDbSymbolTableRecord
100
AcDbLinetypeTableRecord
  2
DASHDOTX2
 70
     0
  3

 72
    65
 73
     4
 40
48.0
 49
24.0
 74
     0
 49
-11.95
 74
     0
 49
0.1
 74
     0
 49
-11.95
 74
     0
  0
LTYPE
  5
2E8
330
28E
100
AcDbSymbolTableRecord
100
AcDbLinetypeTableRecord
  2
DASHED
 70
     0
  3

 72
    65
 73
     2
 40
18.0
 49
12.0
 74
     0
 49
-6.0
 74
     0
  0
LTYPE
  5
2E9
330
28E
100
AcDbSymbolTableRecord
100
AcDbLinetypeTableRecord
  2
DASHED2
 70
     0
  3

 72
    65
 73
     2
 40
9.0
 49
6.0
 74
     0
 49
-3.0
 74
     0
  0
LTYPE
  5
2EA
330
28E
100
AcDbSymbolTableRecord
100
AcDbLinetypeTableRecord
  2
DASHEDX2
 70
     0
  3

 72
    65
 73
     2
 40
36.0
 49
24.0
 74
     0
 49
-12.0
 74
     0
  0
LTYPE
  5
2EB
330
28E
100
AcDbSymbolTableRecord
100
AcDbLinetypeTableRecord
  2
DIVIDE
 70
     0
  3

 72
    65
 73
     6
 40
29.99999999999999
 49
12.0
 74
     0
 49
-5.9
 74
     0
 49
0.15
 74
     0
 49
-5.9
 74
     0
 49
0.15
 74
     0
 49
-5.9
 74
     0
  0
LTYPE
  5
2EC
330
28E
100
AcDbSymbolTableRecord
100
AcDbLinetypeTableRecord
  2
DIVIDE2
 70
     0
  3

 72
    65
 73
     6
 40
15.0
 49
6.0
 74
     0
 49
-2.9
 74
     0
 49
0.15
 74
     0
 49
-2.9
 74
     0
 49
0.15
 74
     0
 49
-2.9
 74
     0
  0
LTYPE
  5
2ED
330
28E
100
AcDbSymbolTableRecord
100
AcDbLinetypeTableRecord
  2
DIVIDEX2
 70
     0
  3

 72
    65
 73
     6
 40
59.99999999999999
 49
24.0
 74
     0
 49
-11.9
 74
     0
 49
0.15
 74
     0
 49
-11.9
 74
     0
 49
0.15
 74
     0
 49
-11.9
 74
     0
  0
LTYPE
  5
2EE
330
28E
100
AcDbSymbolTableRecord
100
AcDbLinetypeTableRecord
  2
DOT
 70
     0
  3

 72
    65
 73
     2
 40
6.3
 49
0.1
 74
     0
 49
-6.2
 74
     0
  0
LTYPE
  5
2EF
330
28E
100
AcDbSymbolTableRecord
100
AcDbLinetypeTableRecord
  2
DOT2
 70
     0
  3

 72
    65
 73
     2
 40
3.2
 49
0.1
 74
     0
 49
-3.1
 74
     0
  0
LTYPE
  5
2F0
330
28E
100
AcDbSymbolTableRecord
100
AcDbLinetypeTableRecord
  2
DOTX2
 70
     0
  3

 72
    65
 73
     2
 40
12.5
 49
0.1
 74
     0
 49
-12.4
 74
     0
  0
ENDTAB
  0
TABLE
  2
LAYER
  5
28B
330
0
100
AcDbSymbolTable
 70
     1
  0
LAYER
  5
299
330
28B
100
AcDbSymbolTableRecord
100
AcDbLayerTableRecord
  2
0
 70
     0
 62
   178
  6
Continuous
370
    25
390
298
  0
ENDTAB
  0
TABLE
  2
STYLE
  5
28C
330
0
100
AcDbSymbolTable
 70
     1
  0
STYLE
  5
29A
330
28C
100
AcDbSymbolTableRecord
100
AcDbTextStyleTableRecord
  2
Standard
 70
     0
 40
0.0
 41
1.0
 50
0.0
 71
     0
 42
2.5
  3
txt
  4

  0
ENDTAB
  0
TABLE
  2
VIEW
  5
28F
330
0
100
AcDbSymbolTable
 70
     0
  0
ENDTAB
  0
TABLE
  2
UCS
  5
290
330
0
100
AcDbSymbolTable
 70
     0
  0
ENDTAB
  0
TABLE
  2
APPID
  5
292
330
0
100
AcDbSymbolTable
 70
     2
  0
APPID
  5
29B
330
292
100
AcDbSymbolTableRecord
100
AcDbRegAppTableRecord
  2
ACAD
 70
     0
  0
APPID
  5
2C7
330
292
100
AcDbSymbolTableRecord
100
AcDbRegAppTableRecord
  2
QCAD
 70
     0
  0
ENDTAB
  0
TABLE
  2
DIMSTYLE
  5
293
330
0
100
AcDbSymbolTable
 70
     2
100
AcDbDimStyleTable
  0
DIMSTYLE
105
2AF
330
293
100
AcDbSymbolTableRecord
100
AcDbDimStyleTableRecord
  2
Standard
 70
     0
178
     0
340
29A
  0
DIMSTYLE
105
2DE
330
293
100
AcDbSymbolTableRecord
100
AcDbDimStyleTableRecord
  2
QCADDimStyle
 70
     0
 41
2.5
 42
0.625
 44
1.25
 73
     0
 77
     1
140
2.5
147
0.625
178
     0
340
29A
  0
ENDTAB
  0
TABLE
  2
BLOCK_RECORD
  5
28A
330
0
100
AcDbSymbolTable
 70
     5
  0
BLOCK_RECORD
  5
2A7
330
28A
100
AcDbSymbolTableRecord
100
AcDbBlockTableRecord
  2
*Model_Space
340
2AA
  0
BLOCK_RECORD
  5
2A3
330
28A
100
AcDbSymbolTableRecord
100
AcDbBlockTableRecord
  2
*Paper_Space
340
2A6
  0
BLOCK_RECORD
  5
2AB
330
28A
100
AcDbSymbolTableRecord
100
AcDbBlockTableRecord
  2
*Paper_Space0
340
2AE
  0
BLOCK_RECORD
  5
2F1
330
28A
100
AcDbSymbolTableRecord
100
AcDbBlockTableRecord
  2
outer endings
340
0
102
{BLKREFS
331
25A
331
25B
331
25C
331
25D
331
25E
102
}
  0
BLOCK_RECORD
  5
2F4
330
28A
100
AcDbSymbolTableRecord
100
AcDbBlockTableRecord
  2
partition
340
0
102
{BLKREFS
331
253
331
254
331
255
331
256
331
259
102
}
  0
BLOCK_RECORD
  5
2F7
330
28A
100
AcDbSymbolTableRecord
100
AcDbBlockTableRecord
  2
vertex
340
0
102
{BLKREFS
331
257
331
258
102
}
  0
BLOCK_RECORD
  5
2FA
330
28A
100
AcDbSymbolTableRecord
100
AcDbBlockTableRecord
  2
middle segment
340
0
102
{BLKREFS
331
25F
331
285
331
286
331
287
331
288
102
}
  0
ENDTAB
  0
ENDSEC
  0
SECTION
  2
BLOCKS
  0
BLOCK
  5
2A8
330
2A7
100
AcDbEntity
  8
0
100
AcDbBlockBegin
  2
*Model_Space
 70
     0
 10
0.0
 20
0.0
 30
0.0
  3
*Model_Space
  1

  0
ENDBLK
  5
2A9
330
2A7
100
AcDbEntity
  8
0
100
AcDbBlockEnd
  0
BLOCK
  5
2A4
330
2A3
100
AcDbEntity
 67
     1
  8
0
100
AcDbBlockBegin
  2
*Paper_Space
 70
     0
 10
0.0
 20
0.0
 30
0.0
  3
*Paper_Space
  1

  0
ENDBLK
  5
2A5
330
2A3
100
AcDbEntity
 67
     1
  8
0
100
AcDbBlockEnd
  0
BLOCK
  5
2AC
330
2AB
100
AcDbEntity
  8
0
100
AcDbBlockBegin
  2
*Paper_Space0
 70
     0
 10
0.0
 20
0.0
 30
0.0
  3
*Paper_Space0
  1

  0
ENDBLK
  5
2AD
330
2AB
100
AcDbEntity
  8
0
100
AcDbBlockEnd
  0
BLOCK
  5
2F2
330
2F1
100
AcDbEntity
  8
0
100
AcDbBlockBegin
  2
outer endings
 70
     0
 10
0.0
 20
0.0
 30
0.0
  3
outer endings
  1

  0
CIRCLE
  5
19D
330
2F1
100
AcDbEntity
  8
0
 62
     1
100
AcDbCircle
 10
-15.40941888630613
 20
24.45395685322831
 30
0.0
 40
4.2
  0
LINE
  5
19E
330
2F1
100
AcDbEntity
  8
0
 62
     1
100
AcDbLine
 10
-10.40941888630613
 20
30.7539568532283
 30
0.0
 11
-20.40941888630613
 21
30.75395685322831
 31
0.0
  0
LINE
  5
19F
330
2F1
100
AcDbEntity
  8
0
 62
     1
100
AcDbLine
 10
-20.40941888630613
 20
34.45395685322827
 30
0.0
 11
-20.40941888630613
 21
30.75395685322831
 31
0.0
  0
LINE
  5
1A0
330
2F1
100
AcDbEntity
  8
0
 62
     1
100
AcDbLine
 10
-10.40941888630613
 20
34.45395685322831
 30
0.0
 11
-10.40941888630614
 21
30.75395685322831
 31
0.0
  0
LINE
  5
1A1
330
2F1
100
AcDbEntity
  8
0
 62
     1
100
AcDbLine
 10
-10.40941888630614
 20
18.1539568532283
 30
0.0
 11
-20.40941888630614
 21
18.15395685322831
 31
0.0
  0
LINE
  5
1A2
330
2F1
100
AcDbEntity
  8
0
 62
     1
100
AcDbLine
 10
-10.40941888630614
 20
18.15395685322831
 30
0.0
 11
-10.40941888630613
 21
14.45395685322831
 31
0.0
  0
LINE
  5
1A3
330
2F1
100
AcDbEntity
  8
0
 62
     1
100
AcDbLine
 10
-20.40941888630614
 20
18.15395685322831
 30
0.0
 11
-20.40941888630613
 21
14.45395685322831
 31
0.0
  0
LINE
  5
1A8
330
2F1
100
AcDbEntity
  8
0
 62
     1
100
AcDbLine
 10
-5.409418886306135
 20
34.45395685322831
 30
0.0
 11
-5.409418886306135
 21
30.7539568532283
 31
0.0
  0
LINE
  5
1A9
330
2F1
100
AcDbEntity
  8
0
 62
     1
100
AcDbLine
 10
-25.40941888630613
 20
34.45395685322837
 30
0.0
 11
-25.40941888630613
 21
30.75395685322832
 31
0.0
  0
LINE
  5
1AA
330
2F1
100
AcDbEntity
  8
0
 62
     1
100
AcDbLine
 10
-25.40941888630613
 20
30.75395685322832
 30
0.0
 11
-26.40941888630613
 21
30.7539568532283
 31
0.0
  0
LINE
  5
1AB
330
2F1
100
AcDbEntity
  8
0
 62
     1
100
AcDbLine
 10
-25.40941888630614
 20
18.15395685322831
 30
0.0
 11
-26.40941888630614
 21
18.15395685322831
 31
0.0
  0
LINE
  5
1AC
330
2F1
100
AcDbEntity
  8
0
 62
     1
100
AcDbLine
 10
-25.40941888630614
 20
18.15395685322831
 30
0.0
 11
-25.40941888630614
 21
14.45395685322831
 31
0.0
  0
LINE
  5
1AD
330
2F1
100
AcDbEntity
  8
0
 62
     1
100
AcDbLine
 10
-26.40941888630614
 20
18.15395685322831
 30
0.0
 11
-26.40941888630613
 21
30.7539568532283
 31
0.0
  0
LINE
  5
1AE
330
2F1
100
AcDbEntity
  8
0
 62
     1
100
AcDbLine
 10
-5.409418886306138
 20
18.15395685322831
 30
0.0
 11
-5.409418886306147
 21
14.45395685322831
 31
0.0
  0
LINE
  5
1AF
330
2F1
100
AcDbEntity
  8
0
 62
     1
100
AcDbLine
 10
-5.409418886306138
 20
18.15395685322831
 30
0.0
 11
-4.40941888630613
 21
18.1539568532283
 31
0.0
  0
LINE
  5
1B0
330
2F1
100
AcDbEntity
  8
0
 62
     1
100
AcDbLine
 10
-5.409418886306135
 20
30.7539568532283
 30
0.0
 11
-4.409418886306137
 21
30.75395685322831
 31
0.0
  0
LINE
  5
1B1
330
2F1
100
AcDbEntity
  8
0
 62
     1
100
AcDbLine
 10
-4.409418886306137
 20
30.75395685322831
 30
0.0
 11
-4.40941888630613
 21
18.1539568532283
 31
0.0
  0
LINE
  5
1B2
330
2F1
100
AcDbEntity
  8
0
 62
     1
100
AcDbLine
 10
-20.40941888630613
 20
34.45395685322827
 30
0.0
 11
-10.40941888630613
 21
34.45395685322831
 31
0.0
  0
LINE
  5
1B5
330
2F1
100
AcDbEntity
  8
0
 62
     1
100
AcDbLine
 10
-5.409418886306135
 20
34.45395685322831
 30
0.0
 11
-4.409418886306135
 21
34.45395685322831
 31
0.0
  0
LINE
  5
1B6
330
2F1
100
AcDbEntity
  8
0
 62
     1
100
AcDbLine
 10
-25.40941888630613
 20
34.45395685322837
 30
0.0
 11
-26.40941888630613
 21
34.45395685322837
 31
0.0
  0
LINE
  5
1B7
330
2F1
100
AcDbEntity
  8
0
 62
     1
100
AcDbLine
 10
-26.40941888630613
 20
34.45395685322837
 30
0.0
 11
-26.40941888630613
 21
39.45395685322837
 31
0.0
  0
LINE
  5
1B8
330
2F1
100
AcDbEntity
  8
0
 62
     1
100
AcDbLine
 10
-4.409418886306135
 20
34.45395685322831
 30
0.0
 11
-4.409418886306135
 21
39.45395685322831
 31
0.0
  0
LINE
  5
1B9
330
2F1
100
AcDbEntity
  8
0
 62
     1
100
AcDbLine
 10
-26.40941888630613
 20
39.45395685322837
 30
0.0
 11
-4.409418886306135
 21
39.45395685322831
 31
0.0
  0
LINE
  5
1BA
330
2F1
100
AcDbEntity
  8
0
 62
     1
100
AcDbLine
 10
-25.40941888630614
 20
14.45395685322831
 30
0.0
 11
-26.40941888630614
 21
14.45395685322831
 31
0.0
  0
LINE
  5
1BB
330
2F1
100
AcDbEntity
  8
0
 62
     1
100
AcDbLine
 10
-5.409418886306146
 20
14.4539568532283
 30
0.0
 11
-4.409418886306146
 21
14.4539568532283
 31
0.0
  0
LINE
  5
1BC
330
2F1
100
AcDbEntity
  8
0
 62
     1
100
AcDbLine
 10
-20.40941888630613
 20
14.45395685322831
 30
0.0
 11
-10.40941888630613
 21
14.45395685322831
 31
0.0
  0
LINE
  5
1BD
330
2F1
100
AcDbEntity
  8
0
 62
     1
100
AcDbLine
 10
-26.40941888630614
 20
14.45395685322831
 30
0.0
 11
-26.40941888630614
 21
9.453956853228307
 31
0.0
  0
LINE
  5
1BE
330
2F1
100
AcDbEntity
  8
0
 62
     1
100
AcDbLine
 10
-4.409418886306146
 20
14.4539568532283
 30
0.0
 11
-4.409418886306146
 21
9.453956853228304
 31
0.0
  0
LINE
  5
1BF
330
2F1
100
AcDbEntity
  8
0
 62
     1
100
AcDbLine
 10
-26.40941888630614
 20
9.453956853228307
 30
0.0
 11
-4.409418886306146
 21
9.453956853228304
 31
0.0
  0
ENDBLK
  5
2F3
330
2F1
100
AcDbEntity
  8
0
100
AcDbBlockEnd
  0
BLOCK
  5
2F5
330
2F4
100
AcDbEntity
  8
0
100
AcDbBlockBegin
  2
partition
 70
     0
 10
0.0
 20
0.0
 30
0.0
  3
partition
  1

  0
CIRCLE
  5
1C0
330
2F4
100
AcDbEntity
  8
0
 62
     1
100
AcDbCircle
 10
12.0
 20
11.0
 30
0.0
 40
4.2
  0
LINE
  5
1C1
330
2F4
100
AcDbEntity
  8
0
 62
     1
100
AcDbLine
 10
6.999999999999999
 20
4.700000000000001
 30
0.0
 11
17.0
 21
4.699999999999999
 31
0.0
  0
LINE
  5
1C2
330
2F4
100
AcDbEntity
  8
0
 62
     1
100
AcDbLine
 10
17.0
 20
1.0
 30
0.0
 11
17.0
 21
4.7
 31
0.0
  0
LINE
  5
1C3
330
2F4
100
AcDbEntity
  8
0
 62
     1
100
AcDbLine
 10
7.0
 20
1.0
 30
0.0
 11
7.0
 21
4.7
 31
0.0
  0
LINE
  5
1C4
330
2F4
100
AcDbEntity
  8
0
 62
     1
100
AcDbLine
 10
7.000000000000002
 20
17.3
 30
0.0
 11
17.0
 21
17.3
 31
0.0
  0
LINE
  5
1C5
330
2F4
100
AcDbEntity
  8
0
 62
     1
100
AcDbLine
 10
6.999999999999999
 20
17.3
 30
0.0
 11
6.999999999999999
 21
21.0
 31
0.0
  0
LINE
  5
1C6
330
2F4
100
AcDbEntity
  8
0
 62
     1
100
AcDbLine
 10
17.0
 20
17.3
 30
0.0
 11
17.0
 21
21.0
 31
0.0
  0
LINE
  5
1C7
330
2F4
100
AcDbEntity
  8
0
 62
     1
100
AcDbLine
 10
17.0
 20
21.0
 30
0.0
 11
22.0
 21
21.0
 31
0.0
  0
LINE
  5
1C8
330
2F4
100
AcDbEntity
  8
0
 62
     1
100
AcDbLine
 10
17.0
 20
1.0
 30
0.0
 11
22.0
 21
1.0
 31
0.0
  0
LINE
  5
1C9
330
2F4
100
AcDbEntity
  8
0
 62
     1
100
AcDbLine
 10
2.0
 20
1.0
 30
0.0
 11
7.0
 21
1.0
 31
0.0
  0
LINE
  5
1CA
330
2F4
100
AcDbEntity
  8
0
 62
     1
100
AcDbLine
 10
2.0
 20
21.0
 30
0.0
 11
7.0
 21
21.0
 31
0.0
  0
LINE
  5
1CB
330
2F4
100
AcDbEntity
  8
0
 62
     1
100
AcDbLine
 10
2.0
 20
1.0
 30
0.0
 11
2.0
 21
4.7
 31
0.0
  0
LINE
  5
1CC
330
2F4
100
AcDbEntity
  8
0
 62
     1
100
AcDbLine
 10
22.0
 20
1.0
 30
0.0
 11
22.0
 21
4.7
 31
0.0
  0
LINE
  5
1CD
330
2F4
100
AcDbEntity
  8
0
 62
     1
100
AcDbLine
 10
22.0
 20
4.7
 30
0.0
 11
23.0
 21
4.7
 31
0.0
  0
LINE
  5
1CE
330
2F4
100
AcDbEntity
  8
0
 62
     1
100
AcDbLine
 10
22.0
 20
17.3
 30
0.0
 11
23.0
 21
17.3
 31
0.0
  0
LINE
  5
1CF
330
2F4
100
AcDbEntity
  8
0
 62
     1
100
AcDbLine
 10
22.0
 20
17.3
 30
0.0
 11
22.0
 21
21.0
 31
0.0
  0
LINE
  5
1D0
330
2F4
100
AcDbEntity
  8
0
 62
     1
100
AcDbLine
 10
23.0
 20
17.3
 30
0.0
 11
23.0
 21
4.7
 31
0.0
  0
LINE
  5
1D1
330
2F4
100
AcDbEntity
  8
0
 62
     1
100
AcDbLine
 10
2.0
 20
17.3
 30
0.0
 11
2.000000000000001
 21
21.0
 31
0.0
  0
LINE
  5
1D2
330
2F4
100
AcDbEntity
  8
0
 62
     1
100
AcDbLine
 10
2.0
 20
17.3
 30
0.0
 11
1.0
 21
17.3
 31
0.0
  0
LINE
  5
1D3
330
2F4
100
AcDbEntity
  8
0
 62
     1
100
AcDbLine
 10
2.0
 20
4.7
 30
0.0
 11
1.0
 21
4.7
 31
0.0
  0
LINE
  5
1D4
330
2F4
100
AcDbEntity
  8
0
 62
     1
100
AcDbLine
 10
1.0
 20
4.7
 30
0.0
 11
1.0
 21
17.3
 31
0.0
  0
ENDBLK
  5
2F6
330
2F4
100
AcDbEntity
  8
0
100
AcDbBlockEnd
  0
BLOCK
  5
2F8
330
2F7
100
AcDbEntity
  8
0
100
AcDbBlockBegin
  2
vertex
 70
     0
 10
0.0
 20
0.0
 30
0.0
  3
vertex
  1

  0
LINE
  5
1D5
330
2F7
100
AcDbEntity
  8
0
 62
     1
100
AcDbLine
 10
36.72557158514986
 20
-1.950000000000003
 30
0.0
 11
40.03845536246213
 21
10.41385057650008
 31
0.0
  0
LINE
  5
1D6
330
2F7
100
AcDbEntity
  8
0
 62
     1
100
AcDbLine
 10
34.07845536246214
 20
20.73687338961061
 30
0.0
 11
40.03845536246213
 21
10.4138505765001
 31
0.0
  0
LINE
  5
1D7
330
2F7
100
AcDbEntity
  8
0
 62
     1
100
AcDbLine
 10
34.07845536246214
 20
20.73687338961061
 30
0.0
 11
21.54073813723004
 21
24.09634459504134
 31
0.0
  0
LINE
  5
1D8
330
2F7
100
AcDbEntity
  8
0
 62
     1
100
AcDbLine
 10
-37.61740619626235
 20
-1.950000000000003
 30
0.0
 11
-40.93028997357462
 21
10.41385057650005
 31
0.0
  0
LINE
  5
1D9
330
2F7
100
AcDbEntity
  8
0
 62
     1
100
AcDbLine
 10
-34.97028997357461
 20
20.73687338961066
 30
0.0
 11
-40.93028997357462
 21
10.41385057650011
 31
0.0
  0
LINE
  5
1DA
330
2F7
100
AcDbEntity
  8
0
 62
     1
100
AcDbLine
 10
-34.97028997357461
 20
20.73687338961066
 30
0.0
 11
-22.43257274834252
 21
24.09634459504134
 31
0.0
  0
CIRCLE
  5
1DB
330
2F7
100
AcDbEntity
  8
0
 62
     1
100
AcDbCircle
 10
0.0
 20
0.0
 30
0.0
 40
4.2
  0
CIRCLE
  5
1DC
330
2F7
100
AcDbEntity
  8
0
 62
     1
100
AcDbCircle
 10
29.2642
 20
11.075
 30
0.0
 40
4.2
  0
CIRCLE
  5
1DD
330
2F7
100
AcDbEntity
  8
0
 62
     1
100
AcDbCircle
 10
-30.15606133951466
 20
11.07536198305542
 30
0.0
 40
4.2
  0
CIRCLE
  5
1DE
330
2F7
100
AcDbEntity
  8
0
 62
     1
100
AcDbCircle
 10
-10.4
 20
0.0
 30
0.0
 40
1.7
  0
CIRCLE
  5
1DF
330
2F7
100
AcDbEntity
  8
0
 62
     1
100
AcDbCircle
 10
10.4
 20
0.0
 30
0.0
 40
1.7
  0
LINE
  5
1E0
330
2F7
100
AcDbEntity
  8
0
 62
     1
100
AcDbLine
 10
-34.39487947233842
 20
0.4973222633537577
 30
0.0
 11
-36.18315433539755
 21
-2.741824694434795
 31
0.0
  0
LINE
  5
1E1
330
2F7
100
AcDbEntity
  8
0
 62
     1
100
AcDbLine
 10
33.79303983041932
 20
0.629293994002417
 30
0.0
 11
35.64303983041931
 21
-2.575000000000006
 31
0.0
  0
LINE
  5
1E2
330
2F7
100
AcDbEntity
  8
0
 62
     1
100
AcDbLine
 10
20.80265877365273
 20
-6.870706005997581
 30
0.0
 11
22.65265877365274
 21
-10.07500000000001
 31
0.0
  0
LINE
  5
1E3
330
2F7
100
AcDbEntity
  8
0
 62
     1
100
AcDbLine
 10
29.46291281149712
 20
-1.870706005997576
 30
0.0
 11
31.31291281149711
 21
-5.074999999999999
 31
0.0
  0
LINE
  5
1E4
330
2F7
100
AcDbEntity
  8
0
 62
     1
100
AcDbLine
 10
-30.01765385370523
 20
-1.91926538942885
 30
0.0
 11
-31.80592871676436
 21
-5.158412347217403
 31
0.0
  0
LINE
  5
1E5
330
2F7
100
AcDbEntity
  8
0
 62
     1
100
AcDbLine
 10
-34.39487947233842
 20
0.4973222633537577
 30
0.0
 11
-30.01765385370523
 21
-1.91926538942885
 31
0.0
  0
LINE
  5
1E6
330
2F7
100
AcDbEntity
  8
0
 62
     1
100
AcDbLine
 10
-36.18315433539755
 20
-2.741824694434795
 30
0.0
 11
-37.61740619626235
 21
-1.950000000000003
 31
0.0
  0
LINE
  5
1E7
330
2F7
100
AcDbEntity
  8
0
 62
     1
100
AcDbLine
 10
-17.24
 20
-13.2
 30
0.0
 11
-18.67425186086481
 21
-12.40817530556521
 31
0.0
  0
LINE
  5
1E8
330
2F7
100
AcDbEntity
  8
0
 62
     1
100
AcDbLine
 10
-23.05147747949799
 20
-9.991587652782602
 30
0.0
 11
-31.80592871676436
 21
-5.158412347217403
 31
0.0
  0
LINE
  5
1E9
330
2F7
100
AcDbEntity
  8
0
 62
     1
100
AcDbLine
 10
16.47253175473054
 20
-9.370706005997578
 30
0.0
 11
18.32253175473054
 21
-12.57500000000001
 31
0.0
  0
LINE
  5
1EA
330
2F7
100
AcDbEntity
  8
0
 62
     1
100
AcDbLine
 10
-10.0
 20
-4.199999999999999
 30
0.0
 11
-10.0
 21
-7.899999999999999
 31
0.0
  0
LINE
  5
1EB
330
2F7
100
AcDbEntity
  8
0
 62
     1
100
AcDbLine
 10
-10.0
 20
-4.2
 30
0.0
 11
-10.0
 21
-7.9
 31
0.0
  0
LINE
  5
1EC
330
2F7
100
AcDbEntity
  8
0
 62
     1
100
AcDbLine
 10
-10.0
 20
-7.9
 30
0.0
 11
-5.0
 21
-7.900000000000001
 31
0.0
  0
LINE
  5
1ED
330
2F7
100
AcDbEntity
  8
0
 62
     1
100
AcDbLine
 10
-5.0
 20
-7.900000000000001
 30
0.0
 11
-5.0
 21
-4.200000000000001
 31
0.0
  0
LINE
  5
1EE
330
2F7
100
AcDbEntity
  8
0
 62
     1
100
AcDbLine
 10
-5.0
 20
-4.200000000000001
 30
0.0
 11
-10.0
 21
-4.2
 31
0.0
  0
LINE
  5
1EF
330
2F7
100
AcDbEntity
  8
0
 62
     1
100
AcDbLine
 10
5.0
 20
-4.200000000000003
 30
0.0
 11
5.0
 21
-7.900000000000004
 31
0.0
  0
LINE
  5
1F0
330
2F7
100
AcDbEntity
  8
0
 62
     1
100
AcDbLine
 10
5.0
 20
-7.900000000000004
 30
0.0
 11
10.0
 21
-7.900000000000002
 31
0.0
  0
LINE
  5
1F1
330
2F7
100
AcDbEntity
  8
0
 62
     1
100
AcDbLine
 10
10.0
 20
-7.900000000000002
 30
0.0
 11
10.0
 21
-4.200000000000004
 31
0.0
  0
LINE
  5
1F2
330
2F7
100
AcDbEntity
  8
0
 62
     1
100
AcDbLine
 10
10.0
 20
-4.200000000000004
 30
0.0
 11
5.0
 21
-4.200000000000003
 31
0.0
  0
LINE
  5
1F3
330
2F7
100
AcDbEntity
  8
0
 62
     1
100
AcDbLine
 10
-10.0
 20
-9.500000000000004
 30
0.0
 11
-10.0
 21
-13.2
 31
0.0
  0
LINE
  5
1F4
330
2F7
100
AcDbEntity
  8
0
 62
     1
100
AcDbLine
 10
-5.0
 20
-13.2
 30
0.0
 11
-5.0
 21
-9.500000000000004
 31
0.0
  0
LINE
  5
1F5
330
2F7
100
AcDbEntity
  8
0
 62
     1
100
AcDbLine
 10
-5.0
 20
-9.500000000000004
 30
0.0
 11
-10.0
 21
-9.500000000000004
 31
0.0
  0
LINE
  5
1F6
330
2F7
100
AcDbEntity
  8
0
 62
     1
100
AcDbLine
 10
-10.0
 20
-13.2
 30
0.0
 11
-17.24
 21
-13.2
 31
0.0
  0
LINE
  5
1F7
330
2F7
100
AcDbEntity
  8
0
 62
     1
100
AcDbLine
 10
-5.0
 20
-13.2
 30
0.0
 11
5.0
 21
-13.2
 31
0.0
  0
LINE
  5
1F8
330
2F7
100
AcDbEntity
  8
0
 62
     1
100
AcDbLine
 10
10.0
 20
-13.2
 30
0.0
 11
17.24
 21
-13.2
 31
0.0
  0
LINE
  5
1F9
330
2F7
100
AcDbEntity
  8
0
 62
     1
100
AcDbLine
 10
4.999999999999999
 20
-9.500000000000004
 30
0.0
 11
10.0
 21
-9.500000000000004
 31
0.0
  0
LINE
  5
1FA
330
2F7
100
AcDbEntity
  8
0
 62
     1
100
AcDbLine
 10
10.0
 20
-9.500000000000004
 30
0.0
 11
10.0
 21
-13.2
 31
0.0
  0
LINE
  5
1FB
330
2F7
100
AcDbEntity
  8
0
 62
     1
100
AcDbLine
 10
5.0
 20
-4.200000000000003
 30
0.0
 11
10.0
 21
-4.200000000000004
 31
0.0
  0
LINE
  5
1FC
330
2F7
100
AcDbEntity
  8
0
 62
     1
100
AcDbLine
 10
10.0
 20
-4.200000000000004
 30
0.0
 11
10.0
 21
-7.900000000000002
 31
0.0
  0
LINE
  5
1FD
330
2F7
100
AcDbEntity
  8
0
 62
     1
100
AcDbLine
 10
10.0
 20
-7.900000000000002
 30
0.0
 11
5.0
 21
-7.900000000000005
 31
0.0
  0
LINE
  5
1FE
330
2F7
100
AcDbEntity
  8
0
 62
     1
100
AcDbLine
 10
5.0
 20
-7.900000000000005
 30
0.0
 11
5.0
 21
-4.200000000000003
 31
0.0
  0
LINE
  5
1FF
330
2F7
100
AcDbEntity
  8
0
 62
     1
100
AcDbLine
 10
5.0
 20
-13.2
 30
0.0
 11
4.999999999999999
 21
-9.500000000000004
 31
0.0
  0
LINE
  5
200
330
2F7
100
AcDbEntity
  8
0
 62
     1
100
AcDbLine
 10
21.41516445368128
 20
24.02384459504135
 30
0.0
 11
21.54073813723004
 21
24.09634459504134
 31
0.0
  0
LINE
  5
201
330
2F7
100
AcDbEntity
  8
0
 62
     1
100
AcDbLine
 10
-21.61670645529713
 20
23.64274644240887
 30
0.0
 11
-22.43257274834252
 21
24.09634459504134
 31
0.0
  0
LINE
  5
202
330
2F7
100
AcDbEntity
  8
0
 62
     1
100
AcDbLine
 10
-21.26320261643886
 20
-6.752440694994048
 30
0.0
 11
-16.88597699780568
 21
-9.169028347776656
 31
0.0
  0
LINE
  5
203
330
2F7
100
AcDbEntity
  8
0
 62
     1
100
AcDbLine
 10
-21.26320261643886
 20
-6.752440694994048
 30
0.0
 11
-23.05147747949799
 21
-9.991587652782602
 31
0.0
  0
LINE
  5
204
330
2F7
100
AcDbEntity
  8
0
 62
     1
100
AcDbLine
 10
-16.88597699780568
 20
-9.169028347776656
 30
0.0
 11
-18.67425186086481
 21
-12.40817530556521
 31
0.0
  0
LINE
  5
205
330
2F7
100
AcDbEntity
  8
0
 62
     1
100
AcDbLine
 10
-33.42824441122537
 20
2.24821251080703
 30
0.0
 11
-29.05101879259219
 21
-0.1683751419755779
 31
0.0
  0
LINE
  5
206
330
2F7
100
AcDbEntity
  8
0
 62
     1
100
AcDbLine
 10
-31.63996954816624
 20
5.487359468595585
 30
0.0
 11
-27.26274392953306
 21
3.070771815812977
 31
0.0
  0
LINE
  5
207
330
2F7
100
AcDbEntity
  8
0
 62
     1
100
AcDbLine
 10
-33.42824441122537
 20
2.24821251080703
 30
0.0
 11
-31.63996954816624
 21
5.487359468595585
 31
0.0
  0
LINE
  5
208
330
2F7
100
AcDbEntity
  8
0
 62
     1
100
AcDbLine
 10
-29.05101879259219
 20
-0.1683751419755779
 30
0.0
 11
-27.26274392953306
 21
3.070771815812977
 31
0.0
  0
LINE
  5
209
330
2F7
100
AcDbEntity
  8
0
 62
     1
100
AcDbLine
 10
-20.29656755532582
 20
-5.001550447540776
 30
0.0
 11
-15.91934193669263
 21
-7.418138100323384
 31
0.0
  0
LINE
  5
20A
330
2F7
100
AcDbEntity
  8
0
 62
     1
100
AcDbLine
 10
-18.50829269226669
 20
-1.762403489752221
 30
0.0
 11
-14.1310670736335
 21
-4.17899114253483
 31
0.0
  0
LINE
  5
20B
330
2F7
100
AcDbEntity
  8
0
 62
     1
100
AcDbLine
 10
-20.29656755532582
 20
-5.001550447540776
 30
0.0
 11
-18.50829269226669
 21
-1.762403489752221
 31
0.0
  0
LINE
  5
20C
330
2F7
100
AcDbEntity
  8
0
 62
     1
100
AcDbLine
 10
-15.91934193669263
 20
-7.418138100323384
 30
0.0
 11
-14.1310670736335
 21
-4.17899114253483
 31
0.0
  0
LINE
  5
20D
330
2F7
100
AcDbEntity
  8
0
 62
     1
100
AcDbLine
 10
-17.29308678705272
 20
21.12906099179439
 30
0.0
 11
-8.538635549786349
 21
16.29588568622919
 31
0.0
  0
LINE
  5
20E
330
2F7
100
AcDbEntity
  8
0
 62
     1
100
AcDbLine
 10
-19.08136165011184
 20
17.88991403400583
 30
0.0
 11
-23.45858726874503
 21
20.30650168678843
 31
0.0
  0
LINE
  5
20F
330
2F7
100
AcDbEntity
  8
0
 62
     1
100
AcDbLine
 10
-23.45858726874503
 20
20.30650168678843
 30
0.0
 11
-21.61670645529714
 21
23.64274644240887
 31
0.0
  0
LINE
  5
210
330
2F7
100
AcDbEntity
  8
0
 62
     1
100
AcDbLine
 10
-17.29308678705272
 20
21.12906099179439
 30
0.0
 11
-19.08136165011184
 21
17.88991403400583
 31
0.0
  0
LINE
  5
211
330
2F7
100
AcDbEntity
  8
0
 62
     1
100
AcDbLine
 10
-8.538635549786347
 20
16.29588568622919
 30
0.0
 11
-10.32691041284547
 21
13.05673872844063
 31
0.0
  0
LINE
  5
212
330
2F7
100
AcDbEntity
  8
0
 62
     1
100
AcDbLine
 10
-8.538635549786347
 20
16.29588568622919
 30
0.0
 11
-10.32691041284547
 21
13.05673872844063
 31
0.0
  0
LINE
  5
213
330
2F7
100
AcDbEntity
  8
0
 62
     1
100
AcDbLine
 10
-4.161409931153159
 20
13.8792980334466
 30
0.0
 11
-5.949684794212281
 21
10.64015107565803
 31
0.0
  0
LINE
  5
214
330
2F7
100
AcDbEntity
  8
0
 62
     1
100
AcDbLine
 10
-10.32691041284547
 20
13.05673872844063
 30
0.0
 11
-5.949684794212281
 21
10.64015107565803
 31
0.0
  0
LINE
  5
215
330
2F7
100
AcDbEntity
  8
0
 62
     1
100
AcDbLine
 10
-20.04799671122489
 20
16.13902378655255
 30
0.0
 11
-24.42522232985808
 21
18.55561143933516
 31
0.0
  0
LINE
  5
216
330
2F7
100
AcDbEntity
  8
0
 62
     1
100
AcDbLine
 10
-11.29354547395851
 20
11.30584848098735
 30
0.0
 11
-6.91631985532532
 21
8.889260828204756
 31
0.0
  0
LINE
  5
217
330
2F7
100
AcDbEntity
  8
0
 62
     1
100
AcDbLine
 10
-21.83627157428401
 20
12.899876828764
 30
0.0
 11
-26.2134971929172
 21
15.3164644815466
 31
0.0
  0
LINE
  5
218
330
2F7
100
AcDbEntity
  8
0
 62
     1
100
AcDbLine
 10
-13.08182033701763
 20
8.066701523198793
 30
0.0
 11
-8.704594718384442
 21
5.650113870416197
 31
0.0
  0
LINE
  5
219
330
2F7
100
AcDbEntity
  8
0
 62
     1
100
AcDbLine
 10
-24.42522232985808
 20
18.55561143933516
 30
0.0
 11
-26.2134971929172
 21
15.3164644815466
 31
0.0
  0
LINE
  5
21A
330
2F7
100
AcDbEntity
  8
0
 62
     1
100
AcDbLine
 10
-21.83627157428401
 20
12.89987682876399
 30
0.0
 11
-20.04799671122488
 21
16.13902378655255
 31
0.0
  0
LINE
  5
21B
330
2F7
100
AcDbEntity
  8
0
 62
     1
100
AcDbLine
 10
-6.91631985532532
 20
8.889260828204756
 30
0.0
 11
-8.704594718384442
 21
5.650113870416197
 31
0.0
  0
LINE
  5
21C
330
2F7
100
AcDbEntity
  8
0
 62
     1
100
AcDbLine
 10
-13.08182033701764
 20
8.066701523198796
 30
0.0
 11
-11.29354547395852
 21
11.30584848098735
 31
0.0
  0
LINE
  5
21D
330
2F7
100
AcDbEntity
  8
0
 62
     1
100
AcDbLine
 10
17.23999999999999
 20
-13.2
 30
0.0
 11
18.32253175473055
 21
-12.575
 31
0.0
  0
LINE
  5
21E
330
2F7
100
AcDbEntity
  8
0
 62
     1
100
AcDbLine
 10
18.32253175473055
 20
-12.575
 30
0.0
 11
16.47253175473055
 21
-9.370706005997583
 31
0.0
  0
LINE
  5
21F
330
2F7
100
AcDbEntity
  8
0
 62
     1
100
AcDbLine
 10
16.47253175473055
 20
-9.370706005997583
 30
0.0
 11
20.80265877365274
 21
-6.870706005997585
 31
0.0
  0
LINE
  5
220
330
2F7
100
AcDbEntity
  8
0
 62
     1
100
AcDbLine
 10
20.80265877365274
 20
-6.870706005997585
 30
0.0
 11
22.65265877365273
 21
-10.07500000000001
 31
0.0
  0
LINE
  5
221
330
2F7
100
AcDbEntity
  8
0
 62
     1
100
AcDbLine
 10
22.65265877365273
 20
-10.07500000000001
 30
0.0
 11
31.31291281149712
 21
-5.075000000000003
 31
0.0
  0
LINE
  5
222
330
2F7
100
AcDbEntity
  8
0
 62
     1
100
AcDbLine
 10
31.31291281149712
 20
-5.075000000000003
 30
0.0
 11
29.46291281149712
 21
-1.870706005997584
 31
0.0
  0
LINE
  5
223
330
2F7
100
AcDbEntity
  8
0
 62
     1
100
AcDbLine
 10
29.46291281149712
 20
-1.870706005997584
 30
0.0
 11
33.79303983041931
 21
0.6292939940024137
 31
0.0
  0
LINE
  5
224
330
2F7
100
AcDbEntity
  8
0
 62
     1
100
AcDbLine
 10
33.79303983041931
 20
0.6292939940024137
 30
0.0
 11
35.6430398304193
 21
-2.575000000000007
 31
0.0
  0
LINE
  5
225
330
2F7
100
AcDbEntity
  8
0
 62
     1
100
AcDbLine
 10
35.6430398304193
 20
-2.575000000000007
 30
0.0
 11
36.72557158514986
 21
-1.950000000000003
 31
0.0
  0
LINE
  5
226
330
2F7
100
AcDbEntity
  8
0
 62
     1
100
AcDbLine
 10
15.47253175473055
 20
-7.638655198428705
 30
0.0
 11
19.80265877365274
 21
-5.138655198428707
 31
0.0
  0
LINE
  5
227
330
2F7
100
AcDbEntity
  8
0
 62
     1
100
AcDbLine
 10
28.46291281149712
 20
-0.1386551984287065
 30
0.0
 11
32.79303983041931
 21
2.361344801571291
 31
0.0
  0
LINE
  5
228
330
2F7
100
AcDbEntity
  8
0
 62
     1
100
AcDbLine
 10
26.61291281149712
 20
3.065638795573716
 30
0.0
 11
30.94303983041931
 21
5.565638795573713
 31
0.0
  0
LINE
  5
229
330
2F7
100
AcDbEntity
  8
0
 62
     1
100
AcDbLine
 10
13.62253175473055
 20
-4.434361204426281
 30
0.0
 11
17.95265877365274
 21
-1.934361204426283
 31
0.0
  0
LINE
  5
22A
330
2F7
100
AcDbEntity
  8
0
 62
     1
100
AcDbLine
 10
15.47253175473055
 20
-7.638655198428706
 30
0.0
 11
13.62253175473055
 21
-4.434361204426281
 31
0.0
  0
LINE
  5
22B
330
2F7
100
AcDbEntity
  8
0
 62
     1
100
AcDbLine
 10
19.80265877365274
 20
-5.13865519842871
 30
0.0
 11
17.95265877365274
 21
-1.934361204426286
 31
0.0
  0
LINE
  5
22C
330
2F7
100
AcDbEntity
  8
0
 62
     1
100
AcDbLine
 10
26.61291281149712
 20
3.065638795573717
 30
0.0
 11
28.46291281149712
 21
-0.1386551984287067
 31
0.0
  0
LINE
  5
22D
330
2F7
100
AcDbEntity
  8
0
 62
     1
100
AcDbLine
 10
30.94303983041932
 20
5.565638795573719
 30
0.0
 11
32.79303983041931
 21
2.361344801571291
 31
0.0
  0
LINE
  5
22E
330
2F7
100
AcDbEntity
  8
0
 62
     1
100
AcDbLine
 10
16.2383064020025
 20
21.03498420534813
 30
0.0
 11
7.578052364158115
 21
16.03498420534813
 31
0.0
  0
LINE
  5
22F
330
2F7
100
AcDbEntity
  8
0
 62
     1
100
AcDbLine
 10
7.578052364158111
 20
16.03498420534813
 30
0.0
 11
9.428052364158113
 21
12.8306902113457
 31
0.0
  0
LINE
  5
230
330
2F7
100
AcDbEntity
  8
0
 62
     1
100
AcDbLine
 10
9.428052364158113
 20
12.8306902113457
 30
0.0
 11
5.097925345235918
 21
10.33069021134571
 31
0.0
  0
LINE
  5
231
330
2F7
100
AcDbEntity
  8
0
 62
     1
100
AcDbLine
 10
16.2383064020025
 20
21.03498420534812
 30
0.0
 11
18.0883064020025
 21
17.83069021134569
 31
0.0
  0
LINE
  5
232
330
2F7
100
AcDbEntity
  8
0
 62
     1
100
AcDbLine
 10
18.0883064020025
 20
17.83069021134569
 30
0.0
 11
22.41843342092469
 21
20.3306902113457
 31
0.0
  0
LINE
  5
233
330
2F7
100
AcDbEntity
  8
0
 62
     1
100
AcDbLine
 10
21.54073813723004
 20
24.09634459504134
 30
0.0
 11
20.5684334209247
 21
23.53498420534811
 31
0.0
  0
LINE
  5
234
330
2F7
100
AcDbEntity
  8
0
 62
     1
100
AcDbLine
 10
20.5684334209247
 20
23.53498420534811
 30
0.0
 11
22.41843342092469
 21
20.3306902113457
 31
0.0
  0
LINE
  5
235
330
2F7
100
AcDbEntity
  8
0
 62
     1
100
AcDbLine
 10
3.247925345235916
 20
13.53498420534813
 30
0.0
 11
5.097925345235917
 21
10.3306902113457
 31
0.0
  0
LINE
  5
236
330
2F7
100
AcDbEntity
  8
0
 62
     1
100
AcDbLine
 10
10.42805236415811
 20
11.09863940377682
 30
0.0
 11
6.097925345235914
 21
8.598639403776831
 31
0.0
  0
LINE
  5
237
330
2F7
100
AcDbEntity
  8
0
 62
     1
100
AcDbLine
 10
19.08830640200251
 20
16.09863940377682
 30
0.0
 11
23.41843342092469
 21
18.59863940377683
 31
0.0
  0
LINE
  5
238
330
2F7
100
AcDbEntity
  8
0
 62
     1
100
AcDbLine
 10
12.2780523641581
 20
7.894345409774393
 30
0.0
 11
7.947925345235905
 21
5.394345409774403
 31
0.0
  0
LINE
  5
239
330
2F7
100
AcDbEntity
  8
0
 62
     1
100
AcDbLine
 10
20.93830640200251
 20
12.8943454097744
 30
0.0
 11
25.2684334209247
 21
15.39434540977441
 31
0.0
  0
LINE
  5
23A
330
2F7
100
AcDbEntity
  8
0
 62
     1
100
AcDbLine
 10
6.097925345235914
 20
8.598639403776831
 30
0.0
 11
6.097925345235914
 21
8.598639403776831
 31
0.0
  0
LINE
  5
23B
330
2F7
100
AcDbEntity
  8
0
 62
     1
100
AcDbLine
 10
6.097925345235914
 20
8.598639403776831
 30
0.0
 11
7.947925345235905
 21
5.394345409774403
 31
0.0
  0
LINE
  5
23C
330
2F7
100
AcDbEntity
  8
0
 62
     1
100
AcDbLine
 10
12.2780523641581
 20
7.894345409774393
 30
0.0
 11
10.42805236415811
 21
11.09863940377682
 31
0.0
  0
LINE
  5
23D
330
2F7
100
AcDbEntity
  8
0
 62
     1
100
AcDbLine
 10
20.93830640200251
 20
12.8943454097744
 30
0.0
 11
19.08830640200251
 21
16.09863940377682
 31
0.0
  0
LINE
  5
23E
330
2F7
100
AcDbEntity
  8
0
 62
     1
100
AcDbLine
 10
25.26843342092469
 20
15.3943454097744
 30
0.0
 11
23.41843342092469
 21
18.59863940377682
 31
0.0
  0
LINE
  5
23F
330
2F7
100
AcDbEntity
  8
0
 62
     1
100
AcDbLine
 10
-4.161409931153148
 20
13.8792980334466
 30
0.0
 11
0.0000000000000009
 21
13.8792980334466
 31
0.0
  0
LINE
  5
240
330
2F7
100
AcDbEntity
  8
0
 62
     1
100
AcDbLine
 10
-1.246482556660929
 20
13.8792980334466
 30
0.0
 11
2.914927443339071
 21
13.8792980334466
 31
0.0
  0
LINE
  5
241
330
2F7
100
AcDbEntity
  8
0
 62
     1
100
AcDbLine
 10
3.247925345235916
 20
13.53498420534813
 30
0.0
 11
2.914927443339073
 21
13.8792980334466
 31
0.0
  0
LINE
  5
242
330
2F7
100
AcDbEntity
  8
0
 62
     1
100
AcDbLine
 10
2.5
 20
6.0
 30
0.0
 11
-2.5
 21
6.0
 31
0.0
  0
LINE
  5
243
330
2F7
100
AcDbEntity
  8
0
 62
     1
100
AcDbLine
 10
2.5
 20
6.0
 30
0.0
 11
2.5
 21
9.7
 31
0.0
  0
LINE
  5
244
330
2F7
100
AcDbEntity
  8
0
 62
     1
100
AcDbLine
 10
-2.5
 20
6.0
 30
0.0
 11
-2.5
 21
9.7
 31
0.0
  0
LINE
  5
245
330
2F7
100
AcDbEntity
  8
0
 62
     1
100
AcDbLine
 10
-2.5
 20
9.7
 30
0.0
 11
2.5
 21
9.7
 31
0.0
  0
LINE
  5
26F
330
2F7
100
AcDbEntity
  8
0
 62
     1
100
AcDbLine
 10
-24.75705850785485
 20
2.66047581539802
 30
0.0
 11
-20.39565520456386
 21
0.21544795747034
 31
0.0
  0
LINE
  5
270
330
2F7
100
AcDbEntity
  8
0
 62
     1
100
AcDbLine
 10
-20.39565520456386
 20
0.21544795747034
 30
0.0
 11
-18.58633458969737
 21
3.442886401905671
 31
0.0
  0
LINE
  5
271
330
2F7
100
AcDbEntity
  8
0
 62
     1
100
AcDbLine
 10
-18.58633458969737
 20
3.442886401905671
 30
0.0
 11
-22.94773789298836
 21
5.887914259833351
 31
0.0
  0
LINE
  5
272
330
2F7
100
AcDbEntity
  8
0
 62
     1
100
AcDbLine
 10
-22.94773789298836
 20
5.887914259833351
 30
0.0
 11
-24.75705850785485
 21
2.66047581539802
 31
0.0
  0
LINE
  5
273
330
2F7
100
AcDbEntity
  8
0
 62
     1
100
AcDbLine
 10
-21.96972674981729
 20
7.632475581149746
 30
0.0
 11
-20.1604061349508
 21
10.85991402558508
 31
0.0
  0
LINE
  5
274
330
2F7
100
AcDbEntity
  8
0
 62
     1
100
AcDbLine
 10
-20.1604061349508
 20
10.85991402558508
 30
0.0
 11
-15.79900283165981
 21
8.4148861676574
 31
0.0
  0
LINE
  5
275
330
2F7
100
AcDbEntity
  8
0
 62
     1
100
AcDbLine
 10
-15.79900283165981
 20
8.4148861676574
 30
0.0
 11
-17.6083234465263
 21
5.187447723222067
 31
0.0
  0
LINE
  5
276
330
2F7
100
AcDbEntity
  8
0
 62
     1
100
AcDbLine
 10
-17.6083234465263
 20
5.187447723222067
 30
0.0
 11
-21.96972674981729
 21
7.632475581149746
 31
0.0
  0
LINE
  5
27D
330
2F7
100
AcDbEntity
  8
0
 62
     1
100
AcDbLine
 10
15.29663929056766
 20
8.324899532394928
 30
0.0
 11
17.16990026665712
 21
5.13414831748325
 31
0.0
  0
LINE
  5
27E
330
2F7
100
AcDbEntity
  8
0
 62
     1
100
AcDbLine
 10
17.16990026665712
 20
5.13414831748325
 30
0.0
 11
21.48172623275399
 21
7.665582068955496
 31
0.0
  0
LINE
  5
27F
330
2F7
100
AcDbEntity
  8
0
 62
     1
100
AcDbLine
 10
21.48172623275399
 20
7.665582068955496
 30
0.0
 11
19.60846525666452
 21
10.85633328386717
 31
0.0
  0
LINE
  5
280
330
2F7
100
AcDbEntity
  8
0
 62
     1
100
AcDbLine
 10
19.60846525666452
 20
10.85633328386717
 30
0.0
 11
15.29663929056766
 21
8.32489953239493
 31
0.0
  0
LINE
  5
281
330
2F7
100
AcDbEntity
  8
0
 62
     1
100
AcDbLine
 10
20.05573474333548
 20
0.2186667161328263
 30
0.0
 11
18.18247376724602
 21
3.409417931044505
 31
0.0
  0
LINE
  5
282
330
2F7
100
AcDbEntity
  8
0
 62
     1
100
AcDbLine
 10
18.18247376724602
 20
3.409417931044505
 30
0.0
 11
22.49429973334288
 21
5.94085168251675
 31
0.0
  0
LINE
  5
283
330
2F7
100
AcDbEntity
  8
0
 62
     1
100
AcDbLine
 10
22.49429973334288
 20
5.94085168251675
 30
0.0
 11
24.36756070943235
 21
2.750100467605072
 31
0.0
  0
LINE
  5
284
330
2F7
100
AcDbEntity
  8
0
 62
     1
100
AcDbLine
 10
24.36756070943235
 20
2.750100467605072
 30
0.0
 11
20.05573474333548
 21
0.2186667161328263
 31
0.0
  0
ENDBLK
  5
2F9
330
2F7
100
AcDbEntity
  8
0
100
AcDbBlockEnd
  0
BLOCK
  5
2FB
330
2FA
100
AcDbEntity
  8
0
100
AcDbBlockBegin
  2
middle segment
 70
     0
 10
0.0
 20
0.0
 30
0.0
  3
middle segment
  1

  0
LINE
  5
246
330
2FA
100
AcDbEntity
  8
0
 62
     1
100
AcDbLine
 10
-12.80434949423949
 20
22.18449480219851
 30
0.0
 11
-7.804349494239489
 21
22.18449480219851
 31
0.0
  0
LINE
  5
247
330
2FA
100
AcDbEntity
  8
0
 62
     1
100
AcDbLine
 10
-7.804349494239489
 20
22.18449480219851
 30
0.0
 11
-7.804349494239489
 21
18.4844948021985
 31
0.0
  0
LINE
  5
248
330
2FA
100
AcDbEntity
  8
0
 62
     1
100
AcDbLine
 10
-12.80434949423949
 20
22.18449480219851
 30
0.0
 11
-12.80434949423949
 21
18.4844948021985
 31
0.0
  0
LINE
  5
249
330
2FA
100
AcDbEntity
  8
0
 62
     1
100
AcDbLine
 10
-7.804349494239489
 20
18.4844948021985
 30
0.0
 11
-2.804349494239489
 21
18.4844948021985
 31
0.0
  0
LINE
  5
24A
330
2FA
100
AcDbEntity
  8
0
 62
     1
100
AcDbLine
 10
-12.80434949423949
 20
18.4844948021985
 30
0.0
 11
-17.80434949423949
 21
18.4844948021985
 31
0.0
  0
LINE
  5
24B
330
2FA
100
AcDbEntity
  8
0
 62
     1
100
AcDbLine
 10
-2.804349494239489
 20
18.4844948021985
 30
0.0
 11
-2.804349494239489
 21
5.684494802198508
 31
0.0
  0
LINE
  5
24C
330
2FA
100
AcDbEntity
  8
0
 62
     1
100
AcDbLine
 10
-17.80434949423949
 20
18.4844948021985
 30
0.0
 11
-17.80434949423949
 21
5.684494802198508
 31
0.0
  0
LINE
  5
24D
330
2FA
100
AcDbEntity
  8
0
 62
     1
100
AcDbLine
 10
-17.80434949423949
 20
5.684494802198508
 30
0.0
 11
-12.80434949423949
 21
5.684494802198508
 31
0.0
  0
LINE
  5
24E
330
2FA
100
AcDbEntity
  8
0
 62
     1
100
AcDbLine
 10
-12.80434949423949
 20
5.684494802198508
 30
0.0
 11
-12.80434949423949
 21
1.984494802198505
 31
0.0
  0
LINE
  5
24F
330
2FA
100
AcDbEntity
  8
0
 62
     1
100
AcDbLine
 10
-12.80434949423949
 20
1.984494802198505
 30
0.0
 11
-7.804349494239489
 21
1.984494802198505
 31
0.0
  0
LINE
  5
250
330
2FA
100
AcDbEntity
  8
0
 62
     1
100
AcDbLine
 10
-7.804349494239489
 20
1.984494802198505
 30
0.0
 11
-7.804349494239489
 21
5.684494802198508
 31
0.0
  0
LINE
  5
251
330
2FA
100
AcDbEntity
  8
0
 62
     1
100
AcDbLine
 10
-7.804349494239489
 20
5.684494802198508
 30
0.0
 11
-2.804349494239489
 21
5.684494802198508
 31
0.0
  0
CIRCLE
  5
264
330
2FA
100
AcDbEntity
  8
0
 62
     1
100
AcDbCircle
 10
-10.30434949423949
 20
12.08449480219851
 30
0.0
 40
4.2
  0
ENDBLK
  5
2FC
330
2FA
100
AcDbEntity
  8
0
100
AcDbBlockEnd
  0
ENDSEC
  0
SECTION
  2
ENTITIES
  0
LINE
  5
252
330
2A7
100
AcDbEntity
  8
0
 62
     1
100
AcDbLine
 10
20.0
 20
50.0
 30
0.0
 11
20.0
 21
50.0
 31
0.0
  0
INSERT
  5
253
330
2A7
100
AcDbEntity
  8
0
 62
     1
100
AcDbBlockReference
  2
partition
 10
58.0
 20
116.0
 30
0.0
  0
INSERT
  5
254
330
2A7
100
AcDbEntity
  8
0
 62
     1
100
AcDbBlockReference
  2
partition
 10
86.75
 20
116.0
 30
0.0
  0
INSERT
  5
255
330
2A7
100
AcDbEntity
  8
0
 62
     1
100
AcDbBlockReference
  2
partition
 10
86.75
 20
93.99999999999999
 30
0.0
  0
INSERT
  5
256
330
2A7
100
AcDbEntity
  8
0
 62
     1
100
AcDbBlockReference
  2
partition
 10
58.74999999999999
 20
93.99999999999999
 30
0.0
  0
INSERT
  5
257
330
2A7
100
AcDbEntity
  8
0
 62
     1
100
AcDbBlockReference
  2
vertex
 10
17.24
 20
113.2
 30
0.0
  0
INSERT
  5
258
330
2A7
100
AcDbEntity
  8
0
 62
     1
100
AcDbBlockReference
  2
vertex
 10
20.44591730555624
 20
74.55182770247933
 30
0.0
  0
INSERT
  5
259
330
2A7
100
AcDbEntity
  8
0
 62
     1
100
AcDbBlockReference
  2
partition
 10
82.32214743712868
 20
69.70489688404768
 30
0.0
 50
90.0
  0
INSERT
  5
25A
330
2A7
100
AcDbEntity
  8
0
 62
     1
100
AcDbBlockReference
  2
outer endings
 10
112.4228787684167
 20
53.74757924286727
 30
0.0
 50
360.0
  0
INSERT
  5
25B
330
2A7
100
AcDbEntity
  8
0
 62
     1
100
AcDbBlockReference
  2
outer endings
 10
111.8920665278178
 20
22.85430684001719
 30
0.0
 50
360.0
  0
INSERT
  5
25C
330
2A7
100
AcDbEntity
  8
0
 62
     1
100
AcDbBlockReference
  2
outer endings
 10
87.26237856403357
 20
29.11789127908301
 30
0.0
 50
360.0
  0
INSERT
  5
25D
330
2A7
100
AcDbEntity
  8
0
 62
     1
100
AcDbBlockReference
  2
outer endings
 10
60.93409143033314
 20
21.15570767010102
 30
0.0
 50
360.0
  0
INSERT
  5
25E
330
2A7
100
AcDbEntity
  8
0
 62
     1
100
AcDbBlockReference
  2
outer endings
 10
37.68451529210575
 20
21.15570767010102
 30
0.0
 50
360.0
  0
INSERT
  5
25F
330
2A7
100
AcDbEntity
  8
0
 62
     1
100
AcDbBlockReference
  2
middle segment
 10
-7.195650505760511
 20
40.81550519780149
 30
0.0
  0
INSERT
  5
285
330
2A7
100
AcDbEntity
  8
0
 62
     1
100
AcDbBlockReference
  2
middle segment
 10
-17.91550519780149
 20
80.30434949423947
 30
0.0
 50
90.0
  0
INSERT
  5
286
330
2A7
100
AcDbEntity
  8
0
 62
     1
100
AcDbBlockReference
  2
middle segment
 10
-19.63799612524739
 20
96.99210489926895
 30
0.0
 50
90.0
  0
INSERT
  5
287
330
2A7
100
AcDbEntity
  8
0
 62
     1
100
AcDbBlockReference
  2
middle segment
 10
-19.01587271007905
 20
113.6339062550221
 30
0.0
 50
90.0
  0
INSERT
  5
288
330
2A7
100
AcDbEntity
  8
0
 62
     1
100
AcDbBlockReference
  2
middle segment
 10
11.62370548696173
 20
48.62200936993047
 30
0.0
 50
90.0
  0
ENDSEC
  0
SECTION
  2
OBJECTS
  0
DICTIONARY
  5
295
330
0
100
AcDbDictionary
281
     1
  3
ACAD_GROUP
350
296
  3
ACAD_LAYOUT
350
2A2
  3
ACAD_MATERIAL
350
2C3
  3
ACAD_MLEADERSTYLE
350
2FF
  3
ACAD_MLINESTYLE
350
29F
  3
ACAD_PLOTSETTINGS
350
2A1
  3
ACAD_PLOTSTYLENAME
350
297
  3
ACAD_VISUALSTYLE
350
2B2
  3
AcDbVariableDictionary
350
2FD
  3
QCAD_OBJECTS
350
2C8
  0
DICTIONARY
  5
296
102
{ACAD_REACTORS
330
295
102
}
330
295
100
AcDbDictionary
281
     1
  0
DICTIONARY
  5
2A2
102
{ACAD_REACTORS
330
295
102
}
330
295
100
AcDbDictionary
281
     1
  3
Layout1
350
2A6
  3
Layout2
350
2AE
  3
Model
350
2AA
  0
DICTIONARY
  5
2C3
102
{ACAD_REACTORS
330
295
102
}
330
295
100
AcDbDictionary
281
     1
  3
ByBlock
350
2C5
  3
ByLayer
350
2C4
  3
Global
350
2C6
  0
DICTIONARY
  5
2FF
102
{ACAD_REACTORS
330
295
102
}
330
295
100
AcDbDictionary
281
     1
  0
DICTIONARY
  5
29F
102
{ACAD_REACTORS
330
295
102
}
330
295
100
AcDbDictionary
281
     1
  3
Standard
350
2A0
  0
DICTIONARY
  5
2A1
102
{ACAD_REACTORS
330
295
102
}
330
295
100
AcDbDictionary
281
     1
  0
ACDBDICTIONARYWDFLT
  5
297
102
{ACAD_REACTORS
330
295
102
}
330
295
100
AcDbDictionary
281
     1
  3
Normal
350
298
100
AcDbDictionaryWithDefault
340
298
  0
DICTIONARY
  5
2B2
102
{ACAD_REACTORS
330
295
102
}
330
295
100
AcDbDictionary
281
     1
  3
2dWireframe
350
2B7
  3
3D Hidden
350
2B9
  3
3dWireframe
350
2B8
  3
Basic
350
2BA
  3
Brighten
350
2BE
  3
ColorChange
350
2C2
  3
Conceptual
350
2BC
  3
Dim
350
2BD
  3
Facepattern
350
2C1
  3
Flat
350
2B3
  3
FlatWithEdges
350
2B4
  3
Gouraud
350
2B5
  3
GouraudWithEdges
350
2B6
  3
Linepattern
350
2C0
  3
Realistic
350
2BB
  3
Thicken
350
2BF
  0
DICTIONARY
  5
2FD
102
{ACAD_REACTORS
330
295
102
}
330
295
100
AcDbDictionary
281
     1
  3
DIMASSOC
350
300
  3
HIDETEXT
350
301
  0
DICTIONARY
  5
2C8
102
{ACAD_REACTORS
330
295
102
}
330
295
100
AcDbDictionary
281
     1
  3
Grid/DisplayGrid
350
2D9
  3
Grid/GridSpacingX
350
2D2
  3
Grid/GridSpacingY
350
2D4
  3
Grid/MetaGridSpacingX
350
2CC
  3
Grid/MetaGridSpacingY
350
2D0
  3
MultiPageSettings/Columns
350
2D1
  3
MultiPageSettings/GlueMarginBottom
350
2CD
  3
MultiPageSettings/GlueMarginsLeft
350
2D5
  3
MultiPageSettings/GlueMarginsRight
350
2C9
  3
MultiPageSettings/GlueMarginsTop
350
2DD
  3
MultiPageSettings/PrintCropMarks
350
2CB
  3
MultiPageSettings/Rows
350
2D6
  3
PageSettings/OffsetX
350
2DB
  3
PageSettings/OffsetY
350
2DC
  3
PageSettings/PageOrientation
350
2CA
  3
PageSettings/PaperHeight
350
2CF
  3
PageSettings/PaperWidth
350
2D7
  3
PageSettings/Scale
350
2CE
  3
PageSettings/ShowBoundingBox
350
2D3
  3
PageSettings/ShowPageBorders
350
2DA
  3
UnitSettings/PaperUnit
350
2D8
  0
LAYOUT
  5
2A6
102
{ACAD_REACTORS
330
2A2
102
}
330
2A2
100
AcDbPlotSettings
  1

  2
none_device
  4

  6

 40
0.0
 41
0.0
 42
0.0
 43
0.0
 44
0.0
 45
0.0
 46
0.0
 47
0.0
 48
0.0
 49
0.0
140
0.0
141
0.0
142
1.0
143
1.0
 70
   688
 72
     0
 73
     0
 74
     5
  7

 75
    16
147
1.0
148
0.0
149
0.0
100
AcDbLayout
  1
Layout1
 70
     1
 71
     1
 10
0.0
 20
0.0
 11
210.0
 21
297.0
 12
0.0
 22
0.0
 32
0.0
 14
1.000000000000000E+20
 24
1.000000000000000E+20
 34
1.000000000000000E+20
 15
-1.000000000000000E+20
 25
-1.000000000000000E+20
 35
-1.000000000000000E+20
146
0.0
 13
0.0
 23
0.0
 33
0.0
 16
1.0
 26
0.0
 36
0.0
 17
0.0
 27
1.0
 37
0.0
 76
     0
330
2A3
  0
LAYOUT
  5
2AE
102
{ACAD_REACTORS
330
2A2
102
}
330
2A2
100
AcDbPlotSettings
  1

  2
none_device
  4

  6

 40
0.0
 41
0.0
 42
0.0
 43
0.0
 44
0.0
 45
0.0
 46
0.0
 47
0.0
 48
0.0
 49
0.0
140
0.0
141
0.0
142
1.0
143
1.0
 70
   688
 72
     0
 73
     0
 74
     5
  7

 75
    16
147
1.0
148
0.0
149
0.0
100
AcDbLayout
  1
Layout2
 70
     1
 71
     2
 10
0.0
 20
0.0
 11
0.0
 21
0.0
 12
0.0
 22
0.0
 32
0.0
 14
0.0
 24
0.0
 34
0.0
 15
0.0
 25
0.0
 35
0.0
146
0.0
 13
0.0
 23
0.0
 33
0.0
 16
1.0
 26
0.0
 36
0.0
 17
0.0
 27
1.0
 37
0.0
 76
     0
330
2AB
  0
LAYOUT
  5
2AA
102
{ACAD_REACTORS
330
2A2
102
}
330
2A2
100
AcDbPlotSettings
  1

  2
none_device
  4

  6

 40
0.0
 41
0.0
 42
0.0
 43
0.0
 44
0.0
 45
0.0
 46
0.0
 47
0.0
 48
0.0
 49
0.0
140
0.0
141
0.0
142
1.0
143
1.0
 70
  1712
 72
     0
 73
     0
 74
     0
  7

 75
     0
147
1.0
148
0.0
149
0.0
100
AcDbLayout
  1
Model
 70
     1
 71
     0
 10
0.0
 20
0.0
 11
12.0
 21
9.0
 12
0.0
 22
0.0
 32
0.0
 14
1.000000000000000E+20
 24
1.000000000000000E+20
 34
1.000000000000000E+20
 15
-1.000000000000000E+20
 25
-1.000000000000000E+20
 35
-1.000000000000000E+20
146
0.0
 13
0.0
 23
0.0
 33
0.0
 16
1.0
 26
0.0
 36
0.0
 17
0.0
 27
1.0
 37
0.0
 76
     0
330
2A7
331
2B1
  0
MATERIAL
  5
2C5
102
{ACAD_REACTORS
330
2C3
102
}
102
{ACAD_XDICTIONARY
360
324
102
}
330
2C3
100
AcDbMaterial
  1
ByBlock
  0
MATERIAL
  5
2C4
102
{ACAD_REACTORS
330
2C3
102
}
102
{ACAD_XDICTIONARY
360
322
102
}
330
2C3
100
AcDbMaterial
  1
ByLayer
  0
MATERIAL
  5
2C6
102
{ACAD_REACTORS
330
2C3
102
}
102
{ACAD_XDICTIONARY
360
326
102
}
330
2C3
100
AcDbMaterial
  1
Global
  0
MLINESTYLE
  5
2A0
102
{ACAD_REACTORS
330
29F
102
}
330
29F
100
AcDbMlineStyle
  2
Standard
 70
     0
  3

 62
   256
 51
90.0
 52
90.0
 71
     2
 49
0.5
 62
   256
  6
BYLAYER
 49
-0.5
 62
   256
  6
BYLAYER
  0
ACDBPLACEHOLDER
  5
298
102
{ACAD_REACTORS
330
297
102
}
330
297
  0
VISUALSTYLE
  5
2B7
102
{ACAD_REACTORS
330
2B2
102
}
102
{ACAD_XDICTIONARY
360
30A
102
}
330
2B2
100
AcDbVisualStyle
  2
2dWireframe
 70
     4
 71
     0
 72
     2
 73
     0
 90
        0
 40
-0.6
 41
-30.0
 62
     5
 63
     7
 74
     1
 91
        4
 64
     7
 65
   257
 75
     1
175
     1
 42
1.0
 92
        0
 66
   257
 43
1.0
 76
     1
 77
     6
 78
     2
 67
     7
 79
     5
170
     0
171
     0
290
     0
174
     0
 93
        1
 44
0.0
173
     0
291
     0
 45
0.0
1001
ACAD
1000
AcDbSavedByObjectVersion
1070
     0
  0
VISUALSTYLE
  5
2B9
102
{ACAD_REACTORS
330
2B2
102
}
102
{ACAD_XDICTIONARY
360
30E
102
}
330
2B2
100
AcDbVisualStyle
  2
3D Hidden
 70
     6
 71
     1
 72
     2
 73
     2
 90
        0
 40
-0.6
 41
-30.0
 62
     5
 63
     7
 74
     2
 91
        2
 64
     7
 65
   257
 75
     2
175
     1
 42
40.0
 92
        0
 66
   257
 43
1.0
 76
     1
 77
     6
 78
     2
 67
     7
 79
     3
170
     0
171
     0
290
     0
174
     0
 93
        1
 44
0.0
173
     0
291
     0
 45
0.0
1001
ACAD
1000
AcDbSavedByObjectVersion
1070
     0
  0
VISUALSTYLE
  5
2B8
102
{ACAD_REACTORS
330
2B2
102
}
102
{ACAD_XDICTIONARY
360
30C
102
}
330
2B2
100
AcDbVisualStyle
  2
3dWireframe
 70
     5
 71
     0
 72
     2
 73
     0
 90
        0
 40
-0.6
 41
-30.0
 62
     5
 63
     7
 74
     1
 91
        4
 64
     7
 65
   257
 75
     1
175
     1
 42
1.0
 92
        0
 66
   257
 43
1.0
 76
     1
 77
     6
 78
     2
 67
     7
 79
     5
170
     0
171
     0
290
     0
174
     0
 93
        1
 44
0.0
173
     0
291
     0
 45
0.0
1001
ACAD
1000
AcDbSavedByObjectVersion
1070
     0
  0
VISUALSTYLE
  5
2BA
102
{ACAD_REACTORS
330
2B2
102
}
102
{ACAD_XDICTIONARY
360
310
102
}
330
2B2
100
AcDbVisualStyle
  2
Basic
 70
     7
 71
     1
 72
     0
 73
     1
 90
        0
 40
-0.6
 41
-30.0
 62
     5
 63
     7
 74
     0
 91
        4
 64
     7
 65
   257
 75
     1
175
     1
 42
1.0
 92
        8
 66
     7
 43
1.0
 76
     1
 77
     6
 78
     2
 67
     7
 79
     5
170
     0
171
     0
290
     0
174
     0
 93
        1
 44
0.0
173
     0
291
     1
 45
0.0
1001
ACAD
1000
AcDbSavedByObjectVersion
1070
     0
  0
VISUALSTYLE
  5
2BE
102
{ACAD_REACTORS
330
2B2
102
}
102
{ACAD_XDICTIONARY
360
318
102
}
330
2B2
100
AcDbVisualStyle
  2
Brighten
 70
    12
 71
     2
 72
     2
 73
     0
 90
        0
 40
-0.6
 41
-30.0
 62
     5
 63
     7
 74
     1
 91
        4
 64
     7
 65
   257
 75
     1
175
     1
 42
1.0
 92
        8
 66
     7
 43
1.0
 76
     1
 77
     6
 78
     2
 67
     7
 79
     5
170
     0
171
     0
290
     0
174
     0
 93
        1
 44
50.0
173
     0
291
     1
 45
0.0
1001
ACAD
1000
AcDbSavedByObjectVersion
1070
     0
  0
VISUALSTYLE
  5
2C2
102
{ACAD_REACTORS
330
2B2
102
}
102
{ACAD_XDICTIONARY
360
320
102
}
330
2B2
100
AcDbVisualStyle
  2
ColorChange
 70
    16
 71
     2
 72
     2
 73
     3
 90
        0
 40
-0.6
 41
-30.0
 62
     5
 63
     8
 74
     1
 91
        4
 64
     7
 65
   257
 75
     1
175
     1
 42
1.0
 92
        8
 66
     8
 43
1.0
 76
     1
 77
     6
 78
     2
 67
     7
 79
     5
170
     0
171
     0
290
     0
174
     0
 93
        1
 44
0.0
173
     0
291
     1
 45
0.0
1001
ACAD
1000
AcDbSavedByObjectVersion
1070
     0
  0
VISUALSTYLE
  5
2BC
102
{ACAD_REACTORS
330
2B2
102
}
102
{ACAD_XDICTIONARY
360
314
102
}
330
2B2
100
AcDbVisualStyle
  2
Conceptual
 70
     9
 71
     3
 72
     2
 73
     0
 90
        0
 40
-0.6
 41
-30.0
 62
     5
 63
     7
 74
     2
 91
        2
 64
     7
 65
   257
 75
     1
175
     1
 42
40.0
 92
        8
 66
     7
 43
1.0
 76
     1
 77
     6
 78
     2
 67
     7
 79
     3
170
     0
171
     0
290
     0
174
     0
 93
        1
 44
0.0
173
     0
291
     0
 45
0.0
1001
ACAD
1000
AcDbSavedByObjectVersion
1070
     0
  0
VISUALSTYLE
  5
2BD
102
{ACAD_REACTORS
330
2B2
102
}
102
{ACAD_XDICTIONARY
360
316
102
}
330
2B2
100
AcDbVisualStyle
  2
Dim
 70
    11
 71
     2
 72
     2
 73
     0
 90
        0
 40
-0.6
 41
-30.0
 62
     5
 63
     7
 74
     1
 91
        4
 64
     7
 65
   257
 75
     1
175
     1
 42
1.0
 92
        8
 66
     7
 43
1.0
 76
     1
 77
     6
 78
     2
 67
     7
 79
     5
170
     0
171
     0
290
     0
174
     0
 93
        1
 44
-50.0
173
     0
291
     1
 45
0.0
1001
ACAD
1000
AcDbSavedByObjectVersion
1070
     0
  0
VISUALSTYLE
  5
2C1
102
{ACAD_REACTORS
330
2B2
102
}
102
{ACAD_XDICTIONARY
360
31E
102
}
330
2B2
100
AcDbVisualStyle
  2
Facepattern
 70
    15
 71
     2
 72
     2
 73
     0
 90
        0
 40
-0.6
 41
-30.0
 62
     5
 63
     7
 74
     1
 91
        4
 64
     7
 65
   257
 75
     1
175
     1
 42
1.0
 92
        8
 66
     7
 43
1.0
 76
     1
 77
     6
 78
     2
 67
     7
 79
     5
170
     0
171
     0
290
     0
174
     0
 93
        1
 44
0.0
173
     0
291
     1
 45
0.0
1001
ACAD
1000
AcDbSavedByObjectVersion
1070
     0
  0
VISUALSTYLE
  5
2B3
102
{ACAD_REACTORS
330
2B2
102
}
102
{ACAD_XDICTIONARY
360
302
102
}
330
2B2
100
AcDbVisualStyle
  2
Flat
 70
     0
 71
     2
 72
     1
 73
     1
 90
        2
 40
-0.6
 41
30.0
 62
     5
 63
     7
 74
     0
 91
        4
 64
     7
 65
   257
 75
     1
175
     1
 42
1.0
 92
        8
 66
     7
 43
1.0
 76
     1
 77
     6
 78
     2
 67
     7
 79
     5
170
     0
171
     0
290
     0
174
     0
 93
       13
 44
0.0
173
     0
291
     1
 45
0.0
1001
ACAD
1000
AcDbSavedByObjectVersion
1070
     0
  0
VISUALSTYLE
  5
2B4
102
{ACAD_REACTORS
330
2B2
102
}
102
{ACAD_XDICTIONARY
360
304
102
}
330
2B2
100
AcDbVisualStyle
  2
FlatWithEdges
 70
     1
 71
     2
 72
     1
 73
     1
 90
        2
 40
-0.6
 41
30.0
 62
     5
 63
     7
 74
     1
 91
        4
 64
     7
 65
   257
 75
     1
175
     1
 42
1.0
 92
        0
 66
   257
 43
1.0
 76
     1
 77
     6
 78
     2
 67
     7
 79
     5
170
     0
171
     0
290
     0
174
     0
 93
       13
 44
0.0
173
     0
291
     1
 45
0.0
1001
ACAD
1000
AcDbSavedByObjectVersion
1070
     0
  0
VISUALSTYLE
  5
2B5
102
{ACAD_REACTORS
330
2B2
102
}
102
{ACAD_XDICTIONARY
360
306
102
}
330
2B2
100
AcDbVisualStyle
  2
Gouraud
 70
     2
 71
     2
 72
     2
 73
     1
 90
        2
 40
-0.6
 41
30.0
 62
     5
 63
     7
 74
     0
 91
        4
 64
     7
 65
   257
 75
     1
175
     1
 42
1.0
 92
        0
 66
     7
 43
1.0
 76
     1
 77
     6
 78
     2
 67
     7
 79
     5
170
     0
171
     0
290
     0
174
     0
 93
       13
 44
0.0
173
     0
291
     1
 45
0.0
1001
ACAD
1000
AcDbSavedByObjectVersion
1070
     0
  0
VISUALSTYLE
  5
2B6
102
{ACAD_REACTORS
330
2B2
102
}
102
{ACAD_XDICTIONARY
360
308
102
}
330
2B2
100
AcDbVisualStyle
  2
GouraudWithEdges
 70
     3
 71
     2
 72
     2
 73
     1
 90
        2
 40
-0.6
 41
30.0
 62
     5
 63
     7
 74
     1
 91
        4
 64
     7
 65
   257
 75
     1
175
     1
 42
1.0
 92
        0
 66
   257
 43
1.0
 76
     1
 77
     6
 78
     2
 67
     7
 79
     5
170
     0
171
     0
290
     0
174
     0
 93
       13
 44
0.0
173
     0
291
     1
 45
0.0
1001
ACAD
1000
AcDbSavedByObjectVersion
1070
     0
  0
VISUALSTYLE
  5
2C0
102
{ACAD_REACTORS
330
2B2
102
}
102
{ACAD_XDICTIONARY
360
31C
102
}
330
2B2
100
AcDbVisualStyle
  2
Linepattern
 70
    14
 71
     2
 72
     2
 73
     0
 90
        0
 40
-0.6
 41
-30.0
 62
     5
 63
     7
 74
     1
 91
        4
 64
     7
 65
   257
 75
     7
175
     7
 42
1.0
 92
        8
 66
     7
 43
1.0
 76
     1
 77
     6
 78
     2
 67
     7
 79
     5
170
     0
171
     0
290
     0
174
     0
 93
        1
 44
0.0
173
     0
291
     1
 45
0.0
1001
ACAD
1000
AcDbSavedByObjectVersion
1070
     0
  0
VISUALSTYLE
  5
2BB
102
{ACAD_REACTORS
330
2B2
102
}
102
{ACAD_XDICTIONARY
360
312
102
}
330
2B2
100
AcDbVisualStyle
  2
Realistic
 70
     8
 71
     2
 72
     2
 73
     0
 90
        0
 40
-0.6
 41
-30.0
 62
     5
 63
     7
 74
     1
 91
        0
 64
     7
 65
   257
 75
     1
175
     1
 42
1.0
 92
        8
 66
     8
 43
1.0
 76
     1
 77
     6
 78
     2
 67
     7
 79
     5
170
     0
171
     0
290
     0
174
     0
 93
       13
 44
0.0
173
     0
291
     0
 45
0.0
1001
ACAD
1000
AcDbSavedByObjectVersion
1070
     0
  0
VISUALSTYLE
  5
2BF
102
{ACAD_REACTORS
330
2B2
102
}
102
{ACAD_XDICTIONARY
360
31A
102
}
330
2B2
100
AcDbVisualStyle
  2
Thicken
 70
    13
 71
     2
 72
     2
 73
     0
 90
        0
 40
-0.6
 41
-30.0
 62
     5
 63
     7
 74
     1
 91
        4
 64
     7
 65
   257
 75
     1
175
     1
 42
1.0
 92
       12
 66
     7
 43
1.0
 76
     1
 77
     6
 78
     2
 67
     7
 79
     5
170
     0
171
     0
290
     0
174
     0
 93
        1
 44
0.0
173
     0
291
     1
 45
0.0
1001
ACAD
1000
AcDbSavedByObjectVersion
1070
     0
  0
DICTIONARYVAR
  5
300
102
{ACAD_REACTORS
330
2FD
102
}
330
2FD
100
DictionaryVariables
280
     0
  1
2
  0
DICTIONARYVAR
  5
301
102
{ACAD_REACTORS
330
2FD
102
}
330
2FD
100
DictionaryVariables
280
     0
  1
1
  0
XRECORD
  5
2D9
102
{ACAD_REACTORS
330
2C8
102
}
330
2C8
100
AcDbXrecord
280
     1
290
     1
  0
XRECORD
  5
2D2
102
{ACAD_REACTORS
330
2C8
102
}
330
2C8
100
AcDbXrecord
280
     1
1000
auto
  0
XRECORD
  5
2D4
102
{ACAD_REACTORS
330
2C8
102
}
330
2C8
100
AcDbXrecord
280
     1
1000
auto
  0
XRECORD
  5
2CC
102
{ACAD_REACTORS
330
2C8
102
}
330
2C8
100
AcDbXrecord
280
     1
1000
auto
  0
XRECORD
  5
2D0
102
{ACAD_REACTORS
330
2C8
102
}
330
2C8
100
AcDbXrecord
280
     1
1000
auto
  0
XRECORD
  5
2D1
102
{ACAD_REACTORS
330
2C8
102
}
330
2C8
100
AcDbXrecord
280
     1
 90
        1
  0
XRECORD
  5
2CD
102
{ACAD_REACTORS
330
2C8
102
}
330
2C8
100
AcDbXrecord
280
     1
 40
10.0
  0
XRECORD
  5
2D5
102
{ACAD_REACTORS
330
2C8
102
}
330
2C8
100
AcDbXrecord
280
     1
 40
10.0
  0
XRECORD
  5
2C9
102
{ACAD_REACTORS
330
2C8
102
}
330
2C8
100
AcDbXrecord
280
     1
 40
10.0
  0
XRECORD
  5
2DD
102
{ACAD_REACTORS
330
2C8
102
}
330
2C8
100
AcDbXrecord
280
     1
 40
10.0
  0
XRECORD
  5
2CB
102
{ACAD_REACTORS
330
2C8
102
}
330
2C8
100
AcDbXrecord
280
     1
290
     0
  0
XRECORD
  5
2D6
102
{ACAD_REACTORS
330
2C8
102
}
330
2C8
100
AcDbXrecord
280
     1
 90
        1
  0
XRECORD
  5
2DB
102
{ACAD_REACTORS
330
2C8
102
}
330
2C8
100
AcDbXrecord
280
     1
 40
0.0
  0
XRECORD
  5
2DC
102
{ACAD_REACTORS
330
2C8
102
}
330
2C8
100
AcDbXrecord
280
     1
 40
0.0
  0
XRECORD
  5
2CA
102
{ACAD_REACTORS
330
2C8
102
}
330
2C8
100
AcDbXrecord
280
     1
1000
Portait
  0
XRECORD
  5
2CF
102
{ACAD_REACTORS
330
2C8
102
}
330
2C8
100
AcDbXrecord
280
     1
 40
297.0
 91
        4
  0
XRECORD
  5
2D7
102
{ACAD_REACTORS
330
2C8
102
}
330
2C8
100
AcDbXrecord
280
     1
 40
210.0
 91
        4
  0
XRECORD
  5
2CE
102
{ACAD_REACTORS
330
2C8
102
}
330
2C8
100
AcDbXrecord
280
     1
1000
1
  0
XRECORD
  5
2D3
102
{ACAD_REACTORS
330
2C8
102
}
330
2C8
100
AcDbXrecord
280
     1
290
     0
  0
XRECORD
  5
2DA
102
{ACAD_REACTORS
330
2C8
102
}
330
2C8
100
AcDbXrecord
280
     1
290
     1
  0
XRECORD
  5
2D8
102
{ACAD_REACTORS
330
2C8
102
}
330
2C8
100
AcDbXrecord
280
     1
 90
        4
  0
DICTIONARY
  5
324
330
2C5
100
AcDbDictionary
280
     1
281
     1
  3
ACAD_XREC_ROUNDTRIP
360
325
  0
DICTIONARY
  5
322
330
2C4
100
AcDbDictionary
280
     1
281
     1
  3
ACAD_XREC_ROUNDTRIP
360
323
  0
DICTIONARY
  5
326
330
2C6
100
AcDbDictionary
280
     1
281
     1
  3
ACAD_XREC_ROUNDTRIP
360
327
  0
DICTIONARY
  5
30A
330
2B7
100
AcDbDictionary
280
     1
281
     1
  3
ACAD_XREC_ROUNDTRIP
360
30B
  0
DICTIONARY
  5
30E
330
2B9
100
AcDbDictionary
280
     1
281
     1
  3
ACAD_XREC_ROUNDTRIP
360
30F
  0
DICTIONARY
  5
30C
330
2B8
100
AcDbDictionary
280
     1
281
     1
  3
ACAD_XREC_ROUNDTRIP
360
30D
  0
DICTIONARY
  5
310
330
2BA
100
AcDbDictionary
280
     1
281
     1
  3
ACAD_XREC_ROUNDTRIP
360
311
  0
DICTIONARY
  5
318
330
2BE
100
AcDbDictionary
280
     1
281
     1
  3
ACAD_XREC_ROUNDTRIP
360
319
  0
DICTIONARY
  5
320
330
2C2
100
AcDbDictionary
280
     1
281
     1
  3
ACAD_XREC_ROUNDTRIP
360
321
  0
DICTIONARY
  5
314
330
2BC
100
AcDbDictionary
280
     1
281
     1
  3
ACAD_XREC_ROUNDTRIP
360
315
  0
DICTIONARY
  5
316
330
2BD
100
AcDbDictionary
280
     1
281
     1
  3
ACAD_XREC_ROUNDTRIP
360
317
  0
DICTIONARY
  5
31E
330
2C1
100
AcDbDictionary
280
     1
281
     1
  3
ACAD_XREC_ROUNDTRIP
360
31F
  0
DICTIONARY
  5
302
330
2B3
100
AcDbDictionary
280
     1
281
     1
  3
ACAD_XREC_ROUNDTRIP
360
303
  0
DICTIONARY
  5
304
330
2B4
100
AcDbDictionary
280
     1
281
     1
  3
ACAD_XREC_ROUNDTRIP
360
305
  0
DICTIONARY
  5
306
330
2B5
100
AcDbDictionary
280
     1
281
     1
  3
ACAD_XREC_ROUNDTRIP
360
307
  0
DICTIONARY
  5
308
330
2B6
100
AcDbDictionary
280
     1
281
     1
  3
ACAD_XREC_ROUNDTRIP
360
309
  0
DICTIONARY
  5
31C
330
2C0
100
AcDbDictionary
280
     1
281
     1
  3
ACAD_XREC_ROUNDTRIP
360
31D
  0
DICTIONARY
  5
312
330
2BB
100
AcDbDictionary
280
     1
281
     1
  3
ACAD_XREC_ROUNDTRIP
360
313
  0
DICTIONARY
  5
31A
330
2BF
100
AcDbDictionary
280
     1
281
     1
  3
ACAD_XREC_ROUNDTRIP
360
31B
  0
XRECORD
  5
325
102
{ACAD_REACTORS
330
324
102
}
330
324
100
AcDbXrecord
280
     1
102
MATERIAL
148
0.0
149
0.0
149
0.0
 93
        0
 94
      127
282
     0
 72
     1
 77
     1
171
     1
175
     1
179
     1
273
     0
  0
XRECORD
  5
323
102
{ACAD_REACTORS
330
322
102
}
330
322
100
AcDbXrecord
280
     1
102
MATERIAL
148
0.0
149
0.0
149
0.0
 93
        0
 94
      127
282
     0
 72
     1
 77
     1
171
     1
175
     1
179
     1
273
     0
  0
XRECORD
  5
327
102
{ACAD_REACTORS
330
326
102
}
330
326
100
AcDbXrecord
280
     1
102
MATERIAL
148
0.0
149
0.0
149
0.0
 93
        0
 94
      127
282
     0
 72
     1
 77
     1
171
     1
175
     1
179
     1
273
     0
  0
XRECORD
  5
30B
102
{ACAD_REACTORS
330
30A
102
}
330
30A
100
AcDbXrecord
280
     1
102
RTVSPropertyOp0
 70
     1
102
RTVSPropertyOp1
 70
     1
102
RTVSPropertyOp2
 70
     1
102
RTVSPropertyOp3
 70
     1
102
RTVSPropertyOp4
 70
     1
102
RTVSPropertyOp5
 70
     1
102
RTVSPropertyOp6
 70
     1
102
RTVSPropertyOp7
 70
     1
102
RTVSPropertyOp8
 70
     1
102
RTVSPropertyOp9
 70
     1
102
RTVSPropertyOp10
 70
     1
102
RTVSPropertyOp11
 70
     1
102
RTVSPropertyOp12
 70
     1
102
RTVSPropertyOp13
 70
     1
102
RTVSPropertyOp14
 70
     1
102
RTVSPropertyOp15
 70
     1
102
RTVSPropertyOp16
 70
     1
102
RTVSPropertyOp17
 70
     1
102
RTVSPropertyOp18
 70
     1
102
RTVSPropertyOp19
 70
     1
102
RTVSPropertyOp20
 70
     1
102
RTVSPropertyOp21
 70
     1
102
RTVSPropertyOp22
 70
     1
102
RTVSPropertyOp23
 70
     1
102
RTVSPropertyOp24
 70
     1
102
RTVSPropertyOp25
 70
     1
102
RTVSPropertyOp26
 70
     1
102
RTVSPropertyOp27
 70
     1
102
RTVSPropertyOp28
 70
     1
102
RTVSPropertyOp29
 70
     1
102
RTVSPropertyOp30
 70
     1
102
RTVSPropertyOp31
 70
     1
102
RTVSPropertyOp32
 70
     1
  0
XRECORD
  5
30F
102
{ACAD_REACTORS
330
30E
102
}
330
30E
100
AcDbXrecord
280
     1
102
RTVSPropertyOp0
 70
     1
102
RTVSPropertyOp1
 70
     1
102
RTVSPropertyOp2
 70
     1
102
RTVSPropertyOp3
 70
     1
102
RTVSPropertyOp4
 70
     1
102
RTVSPropertyOp5
 70
     1
102
RTVSPropertyOp6
 70
     1
102
RTVSPropertyOp7
 70
     1
102
RTVSPropertyOp8
 70
     1
102
RTVSPropertyOp9
 70
     1
102
RTVSPropertyOp10
 70
     1
102
RTVSPropertyOp11
 70
     1
102
RTVSPropertyOp12
 70
     1
102
RTVSPropertyOp13
 70
     1
102
RTVSPropertyOp14
 70
     1
102
RTVSPropertyOp15
 70
     1
102
RTVSPropertyOp16
 70
     1
102
RTVSPropertyOp17
 70
     1
102
RTVSPropertyOp18
 70
     1
102
RTVSPropertyOp19
 70
     1
102
RTVSPropertyOp20
 70
     1
102
RTVSPropertyOp21
 70
     1
102
RTVSPropertyOp22
 70
     1
102
RTVSPropertyOp23
 70
     1
102
RTVSPropertyOp24
 70
     1
102
RTVSPropertyOp25
 70
     1
102
RTVSPropertyOp26
 70
     1
102
RTVSPropertyOp27
 70
     1
102
RTVSPropertyOp28
 70
     1
102
RTVSPropertyOp29
 70
     1
102
RTVSPropertyOp30
 70
     1
102
RTVSPropertyOp31
 70
     1
102
RTVSPropertyOp32
 70
     1
  0
XRECORD
  5
30D
102
{ACAD_REACTORS
330
30C
102
}
330
30C
100
AcDbXrecord
280
     1
102
RTVSPropertyOp0
 70
     1
102
RTVSPropertyOp1
 70
     1
102
RTVSPropertyOp2
 70
     1
102
RTVSPropertyOp3
 70
     1
102
RTVSPropertyOp4
 70
     1
102
RTVSPropertyOp5
 70
     1
102
RTVSPropertyOp6
 70
     1
102
RTVSPropertyOp7
 70
     1
102
RTVSPropertyOp8
 70
     1
102
RTVSPropertyOp9
 70
     1
102
RTVSPropertyOp10
 70
     1
102
RTVSPropertyOp11
 70
     1
102
RTVSPropertyOp12
 70
     1
102
RTVSPropertyOp13
 70
     1
102
RTVSPropertyOp14
 70
     1
102
RTVSPropertyOp15
 70
     1
102
RTVSPropertyOp16
 70
     1
102
RTVSPropertyOp17
 70
     1
102
RTVSPropertyOp18
 70
     1
102
RTVSPropertyOp19
 70
     1
102
RTVSPropertyOp20
 70
     1
102
RTVSPropertyOp21
 70
     1
102
RTVSPropertyOp22
 70
     1
102
RTVSPropertyOp23
 70
     1
102
RTVSPropertyOp24
 70
     1
102
RTVSPropertyOp25
 70
     1
102
RTVSPropertyOp26
 70
     1
102
RTVSPropertyOp27
 70
     1
102
RTVSPropertyOp28
 70
     1
102
RTVSPropertyOp29
 70
     1
102
RTVSPropertyOp30
 70
     1
102
RTVSPropertyOp31
 70
     1
102
RTVSPropertyOp32
 70
     1
  0
XRECORD
  5
311
102
{ACAD_REACTORS
330
310
102
}
330
310
100
AcDbXrecord
280
     1
102
RTVSPropertyOp0
 70
     1
102
RTVSPropertyOp1
 70
     1
102
RTVSPropertyOp2
 70
     1
102
RTVSPropertyOp3
 70
     1
102
RTVSPropertyOp4
 70
     1
102
RTVSPropertyOp5
 70
     1
102
RTVSPropertyOp6
 70
     1
102
RTVSPropertyOp7
 70
     1
102
RTVSPropertyOp8
 70
     1
102
RTVSPropertyOp9
 70
     1
102
RTVSPropertyOp10
 70
     1
102
RTVSPropertyOp11
 70
     1
102
RTVSPropertyOp12
 70
     1
102
RTVSPropertyOp13
 70
     1
102
RTVSPropertyOp14
 70
     1
102
RTVSPropertyOp15
 70
     1
102
RTVSPropertyOp16
 70
     1
102
RTVSPropertyOp17
 70
     1
102
RTVSPropertyOp18
 70
     1
102
RTVSPropertyOp19
 70
     1
102
RTVSPropertyOp20
 70
     1
102
RTVSPropertyOp21
 70
     1
102
RTVSPropertyOp22
 70
     1
102
RTVSPropertyOp23
 70
     1
102
RTVSPropertyOp24
 70
     1
102
RTVSPropertyOp25
 70
     1
102
RTVSPropertyOp26
 70
     1
102
RTVSPropertyOp27
 70
     1
102
RTVSPropertyOp28
 70
     1
102
RTVSPropertyOp29
 70
     1
102
RTVSPropertyOp30
 70
     1
102
RTVSPropertyOp31
 70
     1
102
RTVSPropertyOp32
 70
     1
  0
XRECORD
  5
319
102
{ACAD_REACTORS
330
318
102
}
330
318
100
AcDbXrecord
280
     1
102
RTVSPropertyOp0
 70
     1
102
RTVSPropertyOp1
 70
     1
102
RTVSPropertyOp2
 70
     1
102
RTVSPropertyOp3
 70
     1
102
RTVSPropertyOp4
 70
     1
102
RTVSPropertyOp5
 70
     1
102
RTVSPropertyOp6
 70
     1
102
RTVSPropertyOp7
 70
     1
102
RTVSPropertyOp8
 70
     1
102
RTVSPropertyOp9
 70
     1
102
RTVSPropertyOp10
 70
     1
102
RTVSPropertyOp11
 70
     1
102
RTVSPropertyOp12
 70
     1
102
RTVSPropertyOp13
 70
     1
102
RTVSPropertyOp14
 70
     1
102
RTVSPropertyOp15
 70
     1
102
RTVSPropertyOp16
 70
     1
102
RTVSPropertyOp17
 70
     1
102
RTVSPropertyOp18
 70
     1
102
RTVSPropertyOp19
 70
     1
102
RTVSPropertyOp20
 70
     1
102
RTVSPropertyOp21
 70
     1
102
RTVSPropertyOp22
 70
     1
102
RTVSPropertyOp23
 70
     1
102
RTVSPropertyOp24
 70
     1
102
RTVSPropertyOp25
 70
     1
102
RTVSPropertyOp26
 70
     1
102
RTVSPropertyOp27
 70
     1
102
RTVSPropertyOp28
 70
     1
102
RTVSPropertyOp29
 70
     1
102
RTVSPropertyOp30
 70
     1
102
RTVSPropertyOp31
 70
     1
102
RTVSPropertyOp32
 70
     1
  0
XRECORD
  5
321
102
{ACAD_REACTORS
330
320
102
}
330
320
100
AcDbXrecord
280
     1
102
RTVSPropertyOp0
 70
     1
102
RTVSPropertyOp1
 70
     1
102
RTVSPropertyOp2
 70
     1
102
RTVSPropertyOp3
 70
     1
102
RTVSPropertyOp4
 70
     1
102
RTVSPropertyOp5
 70
     1
102
RTVSPropertyOp6
 70
     1
102
RTVSPropertyOp7
 70
     1
102
RTVSPropertyOp8
 70
     1
102
RTVSPropertyOp9
 70
     1
102
RTVSPropertyOp10
 70
     1
102
RTVSPropertyOp11
 70
     1
102
RTVSPropertyOp12
 70
     1
102
RTVSPropertyOp13
 70
     1
102
RTVSPropertyOp14
 70
     1
102
RTVSPropertyOp15
 70
     1
102
RTVSPropertyOp16
 70
     1
102
RTVSPropertyOp17
 70
     1
102
RTVSPropertyOp18
 70
     1
102
RTVSPropertyOp19
 70
     1
102
RTVSPropertyOp20
 70
     1
102
RTVSPropertyOp21
 70
     1
102
RTVSPropertyOp22
 70
     1
102
RTVSPropertyOp23
 70
     1
102
RTVSPropertyOp24
 70
     1
102
RTVSPropertyOp25
 70
     1
102
RTVSPropertyOp26
 70
     1
102
RTVSPropertyOp27
 70
     1
102
RTVSPropertyOp28
 70
     1
102
RTVSPropertyOp29
 70
     1
102
RTVSPropertyOp30
 70
     1
102
RTVSPropertyOp31
 70
     1
102
RTVSPropertyOp32
 70
     1
  0
XRECORD
  5
315
102
{ACAD_REACTORS
330
314
102
}
330
314
100
AcDbXrecord
280
     1
102
RTVSPropertyOp0
 70
     1
102
RTVSPropertyOp1
 70
     1
102
RTVSPropertyOp2
 70
     1
102
RTVSPropertyOp3
 70
     1
102
RTVSPropertyOp4
 70
     1
102
RTVSPropertyOp5
 70
     1
102
RTVSPropertyOp6
 70
     1
102
RTVSPropertyOp7
 70
     1
102
RTVSPropertyOp8
 70
     1
102
RTVSPropertyOp9
 70
     1
102
RTVSPropertyOp10
 70
     1
102
RTVSPropertyOp11
 70
     1
102
RTVSPropertyOp12
 70
     1
102
RTVSPropertyOp13
 70
     1
102
RTVSPropertyOp14
 70
     1
102
RTVSPropertyOp15
 70
     1
102
RTVSPropertyOp16
 70
     1
102
RTVSPropertyOp17
 70
     1
102
RTVSPropertyOp18
 70
     1
102
RTVSPropertyOp19
 70
     1
102
RTVSPropertyOp20
 70
     1
102
RTVSPropertyOp21
 70
     1
102
RTVSPropertyOp22
 70
     1
102
RTVSPropertyOp23
 70
     1
102
RTVSPropertyOp24
 70
     1
102
RTVSPropertyOp25
 70
     1
102
RTVSPropertyOp26
 70
     1
102
RTVSPropertyOp27
 70
     1
102
RTVSPropertyOp28
 70
     1
102
RTVSPropertyOp29
 70
     1
102
RTVSPropertyOp30
 70
     1
102
RTVSPropertyOp31
 70
     1
102
RTVSPropertyOp32
 70
     1
  0
XRECORD
  5
317
102
{ACAD_REACTORS
330
316
102
}
330
316
100
AcDbXrecord
280
     1
102
RTVSPropertyOp0
 70
     1
102
RTVSPropertyOp1
 70
     1
102
RTVSPropertyOp2
 70
     1
102
RTVSPropertyOp3
 70
     1
102
RTVSPropertyOp4
 70
     1
102
RTVSPropertyOp5
 70
     1
102
RTVSPropertyOp6
 70
     1
102
RTVSPropertyOp7
 70
     1
102
RTVSPropertyOp8
 70
     1
102
RTVSPropertyOp9
 70
     1
102
RTVSPropertyOp10
 70
     1
102
RTVSPropertyOp11
 70
     1
102
RTVSPropertyOp12
 70
     1
102
RTVSPropertyOp13
 70
     1
102
RTVSPropertyOp14
 70
     1
102
RTVSPropertyOp15
 70
     1
102
RTVSPropertyOp16
 70
     1
102
RTVSPropertyOp17
 70
     1
102
RTVSPropertyOp18
 70
     1
102
RTVSPropertyOp19
 70
     1
102
RTVSPropertyOp20
 70
     1
102
RTVSPropertyOp21
 70
     1
102
RTVSPropertyOp22
 70
     1
102
RTVSPropertyOp23
 70
     1
102
RTVSPropertyOp24
 70
     1
102
RTVSPropertyOp25
 70
     1
102
RTVSPropertyOp26
 70
     1
102
RTVSPropertyOp27
 70
     1
102
RTVSPropertyOp28
 70
     1
102
RTVSPropertyOp29
 70
     1
102
RTVSPropertyOp30
 70
     1
102
RTVSPropertyOp31
 70
     1
102
RTVSPropertyOp32
 70
     1
  0
XRECORD
  5
31F
102
{ACAD_REACTORS
330
31E
102
}
330
31E
100
AcDbXrecord
280
     1
102
RTVSPropertyOp0
 70
     1
102
RTVSPropertyOp1
 70
     1
102
RTVSPropertyOp2
 70
     1
102
RTVSPropertyOp3
 70
     1
102
RTVSPropertyOp4
 70
     1
102
RTVSPropertyOp5
 70
     1
102
RTVSPropertyOp6
 70
     1
102
RTVSPropertyOp7
 70
     1
102
RTVSPropertyOp8
 70
     1
102
RTVSPropertyOp9
 70
     1
102
RTVSPropertyOp10
 70
     1
102
RTVSPropertyOp11
 70
     1
102
RTVSPropertyOp12
 70
     1
102
RTVSPropertyOp13
 70
     1
102
RTVSPropertyOp14
 70
     1
102
RTVSPropertyOp15
 70
     1
102
RTVSPropertyOp16
 70
     1
102
RTVSPropertyOp17
 70
     1
102
RTVSPropertyOp18
 70
     1
102
RTVSPropertyOp19
 70
     1
102
RTVSPropertyOp20
 70
     1
102
RTVSPropertyOp21
 70
     1
102
RTVSPropertyOp22
 70
     1
102
RTVSPropertyOp23
 70
     1
102
RTVSPropertyOp24
 70
     1
102
RTVSPropertyOp25
 70
     1
102
RTVSPropertyOp26
 70
     1
102
RTVSPropertyOp27
 70
     1
102
RTVSPropertyOp28
 70
     1
102
RTVSPropertyOp29
 70
     1
102
RTVSPropertyOp30
 70
     1
102
RTVSPropertyOp31
 70
     1
102
RTVSPropertyOp32
 70
     1
  0
XRECORD
  5
303
102
{ACAD_REACTORS
330
302
102
}
330
302
100
AcDbXrecord
280
     1
102
RTVSPropertyOp0
 70
     1
102
RTVSPropertyOp1
 70
     1
102
RTVSPropertyOp2
 70
     1
102
RTVSPropertyOp3
 70
     1
102
RTVSPropertyOp4
 70
     1
102
RTVSPropertyOp5
 70
     1
102
RTVSPropertyOp6
 70
     1
102
RTVSPropertyOp7
 70
     1
102
RTVSPropertyOp8
 70
     1
102
RTVSPropertyOp9
 70
     1
102
RTVSPropertyOp10
 70
     1
102
RTVSPropertyOp11
 70
     1
102
RTVSPropertyOp12
 70
     1
102
RTVSPropertyOp13
 70
     1
102
RTVSPropertyOp14
 70
     1
102
RTVSPropertyOp15
 70
     1
102
RTVSPropertyOp16
 70
     1
102
RTVSPropertyOp17
 70
     1
102
RTVSPropertyOp18
 70
     1
102
RTVSPropertyOp19
 70
     1
102
RTVSPropertyOp20
 70
     1
102
RTVSPropertyOp21
 70
     1
102
RTVSPropertyOp22
 70
     1
102
RTVSPropertyOp23
 70
     1
102
RTVSPropertyOp24
 70
     1
102
RTVSPropertyOp25
 70
     1
102
RTVSPropertyOp26
 70
     1
102
RTVSPropertyOp27
 70
     1
102
RTVSPropertyOp28
 70
     1
102
RTVSPropertyOp29
 70
     1
102
RTVSPropertyOp30
 70
     1
102
RTVSPropertyOp31
 70
     1
102
RTVSPropertyOp32
 70
     1
  0
XRECORD
  5
305
102
{ACAD_REACTORS
330
304
102
}
330
304
100
AcDbXrecord
280
     1
102
RTVSPropertyOp0
 70
     1
102
RTVSPropertyOp1
 70
     1
102
RTVSPropertyOp2
 70
     1
102
RTVSPropertyOp3
 70
     1
102
RTVSPropertyOp4
 70
     1
102
RTVSPropertyOp5
 70
     1
102
RTVSPropertyOp6
 70
     1
102
RTVSPropertyOp7
 70
     1
102
RTVSPropertyOp8
 70
     1
102
RTVSPropertyOp9
 70
     1
102
RTVSPropertyOp10
 70
     1
102
RTVSPropertyOp11
 70
     1
102
RTVSPropertyOp12
 70
     1
102
RTVSPropertyOp13
 70
     1
102
RTVSPropertyOp14
 70
     1
102
RTVSPropertyOp15
 70
     1
102
RTVSPropertyOp16
 70
     1
102
RTVSPropertyOp17
 70
     1
102
RTVSPropertyOp18
 70
     1
102
RTVSPropertyOp19
 70
     1
102
RTVSPropertyOp20
 70
     1
102
RTVSPropertyOp21
 70
     1
102
RTVSPropertyOp22
 70
     1
102
RTVSPropertyOp23
 70
     1
102
RTVSPropertyOp24
 70
     1
102
RTVSPropertyOp25
 70
     1
102
RTVSPropertyOp26
 70
     1
102
RTVSPropertyOp27
 70
     1
102
RTVSPropertyOp28
 70
     1
102
RTVSPropertyOp29
 70
     1
102
RTVSPropertyOp30
 70
     1
102
RTVSPropertyOp31
 70
     1
102
RTVSPropertyOp32
 70
     1
  0
XRECORD
  5
307
102
{ACAD_REACTORS
330
306
102
}
330
306
100
AcDbXrecord
280
     1
102
RTVSPropertyOp0
 70
     1
102
RTVSPropertyOp1
 70
     1
102
RTVSPropertyOp2
 70
     1
102
RTVSPropertyOp3
 70
     1
102
RTVSPropertyOp4
 70
     1
102
RTVSPropertyOp5
 70
     1
102
RTVSPropertyOp6
 70
     1
102
RTVSPropertyOp7
 70
     1
102
RTVSPropertyOp8
 70
     1
102
RTVSPropertyOp9
 70
     1
102
RTVSPropertyOp10
 70
     1
102
RTVSPropertyOp11
 70
     1
102
RTVSPropertyOp12
 70
     1
102
RTVSPropertyOp13
 70
     1
102
RTVSPropertyOp14
 70
     1
102
RTVSPropertyOp15
 70
     1
102
RTVSPropertyOp16
 70
     1
102
RTVSPropertyOp17
 70
     1
102
RTVSPropertyOp18
 70
     1
102
RTVSPropertyOp19
 70
     1
102
RTVSPropertyOp20
 70
     1
102
RTVSPropertyOp21
 70
     1
102
RTVSPropertyOp22
 70
     1
102
RTVSPropertyOp23
 70
     1
102
RTVSPropertyOp24
 70
     1
102
RTVSPropertyOp25
 70
     1
102
RTVSPropertyOp26
 70
     1
102
RTVSPropertyOp27
 70
     1
102
RTVSPropertyOp28
 70
     1
102
RTVSPropertyOp29
 70
     1
102
RTVSPropertyOp30
 70
     1
102
RTVSPropertyOp31
 70
     1
102
RTVSPropertyOp32
 70
     1
  0
XRECORD
  5
309
102
{ACAD_REACTORS
330
308
102
}
330
308
100
AcDbXrecord
280
     1
102
RTVSPropertyOp0
 70
     1
102
RTVSPropertyOp1
 70
     1
102
RTVSPropertyOp2
 70
     1
102
RTVSPropertyOp3
 70
     1
102
RTVSPropertyOp4
 70
     1
102
RTVSPropertyOp5
 70
     1
102
RTVSPropertyOp6
 70
     1
102
RTVSPropertyOp7
 70
     1
102
RTVSPropertyOp8
 70
     1
102
RTVSPropertyOp9
 70
     1
102
RTVSPropertyOp10
 70
     1
102
RTVSPropertyOp11
 70
     1
102
RTVSPropertyOp12
 70
     1
102
RTVSPropertyOp13
 70
     1
102
RTVSPropertyOp14
 70
     1
102
RTVSPropertyOp15
 70
     1
102
RTVSPropertyOp16
 70
     1
102
RTVSPropertyOp17
 70
     1
102
RTVSPropertyOp18
 70
     1
102
RTVSPropertyOp19
 70
     1
102
RTVSPropertyOp20
 70
     1
102
RTVSPropertyOp21
 70
     1
102
RTVSPropertyOp22
 70
     1
102
RTVSPropertyOp23
 70
     1
102
RTVSPropertyOp24
 70
     1
102
RTVSPropertyOp25
 70
     1
102
RTVSPropertyOp26
 70
     1
102
RTVSPropertyOp27
 70
     1
102
RTVSPropertyOp28
 70
     1
102
RTVSPropertyOp29
 70
     1
102
RTVSPropertyOp30
 70
     1
102
RTVSPropertyOp31
 70
     1
102
RTVSPropertyOp32
 70
     1
  0
XRECORD
  5
31D
102
{ACAD_REACTORS
330
31C
102
}
330
31C
100
AcDbXrecord
280
     1
102
RTVSPropertyOp0
 70
     1
102
RTVSPropertyOp1
 70
     1
102
RTVSPropertyOp2
 70
     1
102
RTVSPropertyOp3
 70
     1
102
RTVSPropertyOp4
 70
     1
102
RTVSPropertyOp5
 70
     1
102
RTVSPropertyOp6
 70
     1
102
RTVSPropertyOp7
 70
     1
102
RTVSPropertyOp8
 70
     1
102
RTVSPropertyOp9
 70
     1
102
RTVSPropertyOp10
 70
     1
102
RTVSPropertyOp11
 70
     1
102
RTVSPropertyOp12
 70
     1
102
RTVSPropertyOp13
 70
     1
102
RTVSPropertyOp14
 70
     1
102
RTVSPropertyOp15
 70
     1
102
RTVSPropertyOp16
 70
     1
102
RTVSPropertyOp17
 70
     1
102
RTVSPropertyOp18
 70
     1
102
RTVSPropertyOp19
 70
     1
102
RTVSPropertyOp20
 70
     1
102
RTVSPropertyOp21
 70
     1
102
RTVSPropertyOp22
 70
     1
102
RTVSPropertyOp23
 70
     1
102
RTVSPropertyOp24
 70
     1
102
RTVSPropertyOp25
 70
     1
102
RTVSPropertyOp26
 70
     1
102
RTVSPropertyOp27
 70
     1
102
RTVSPropertyOp28
 70
     1
102
RTVSPropertyOp29
 70
     1
102
RTVSPropertyOp30
 70
     1
102
RTVSPropertyOp31
 70
     1
102
RTVSPropertyOp32
 70
     1
  0
XRECORD
  5
313
102
{ACAD_REACTORS
330
312
102
}
330
312
100
AcDbXrecord
280
     1
102
RTVSPropertyOp0
 70
     1
102
RTVSPropertyOp1
 70
     1
102
RTVSPropertyOp2
 70
     1
102
RTVSPropertyOp3
 70
     1
102
RTVSPropertyOp4
 70
     1
102
RTVSPropertyOp5
 70
     1
102
RTVSPropertyOp6
 70
     1
102
RTVSPropertyOp7
 70
     1
102
RTVSPropertyOp8
 70
     1
102
RTVSPropertyOp9
 70
     1
102
RTVSPropertyOp10
 70
     1
102
RTVSPropertyOp11
 70
     1
102
RTVSPropertyOp12
 70
     1
102
RTVSPropertyOp13
 70
     1
102
RTVSPropertyOp14
 70
     1
102
RTVSPropertyOp15
 70
     1
102
RTVSPropertyOp16
 70
     1
102
RTVSPropertyOp17
 70
     1
102
RTVSPropertyOp18
 70
     1
102
RTVSPropertyOp19
 70
     1
102
RTVSPropertyOp20
 70
     1
102
RTVSPropertyOp21
 70
     1
102
RTVSPropertyOp22
 70
     1
102
RTVSPropertyOp23
 70
     1
102
RTVSPropertyOp24
 70
     1
102
RTVSPropertyOp25
 70
     1
102
RTVSPropertyOp26
 70
     1
102
RTVSPropertyOp27
 70
     1
102
RTVSPropertyOp28
 70
     1
102
RTVSPropertyOp29
 70
     1
102
RTVSPropertyOp30
 70
     1
102
RTVSPropertyOp31
 70
     1
102
RTVSPropertyOp32
 70
     1
  0
XRECORD
  5
31B
102
{ACAD_REACTORS
330
31A
102
}
330
31A
100
AcDbXrecord
280
     1
102
RTVSPropertyOp0
 70
     1
102
RTVSPropertyOp1
 70
     1
102
RTVSPropertyOp2
 70
     1
102
RTVSPropertyOp3
 70
     1
102
RTVSPropertyOp4
 70
     1
102
RTVSPropertyOp5
 70
     1
102
RTVSPropertyOp6
 70
     1
102
RTVSPropertyOp7
 70
     1
102
RTVSPropertyOp8
 70
     1
102
RTVSPropertyOp9
 70
     1
102
RTVSPropertyOp10
 70
     1
102
RTVSPropertyOp11
 70
     1
102
RTVSPropertyOp12
 70
     1
102
RTVSPropertyOp13
 70
     1
102
RTVSPropertyOp14
 70
     1
102
RTVSPropertyOp15
 70
     1
102
RTVSPropertyOp16
 70
     1
102
RTVSPropertyOp17
 70
     1
102
RTVSPropertyOp18
 70
     1
102
RTVSPropertyOp19
 70
     1
102
RTVSPropertyOp20
 70
     1
102
RTVSPropertyOp21
 70
     1
102
RTVSPropertyOp22
 70
     1
102
RTVSPropertyOp23
 70
     1
102
RTVSPropertyOp24
 70
     1
102
RTVSPropertyOp25
 70
     1
102
RTVSPropertyOp26
 70
     1
102
RTVSPropertyOp27
 70
     1
102
RTVSPropertyOp28
 70
     1
102
RTVSPropertyOp29
 70
     1
102
RTVSPropertyOp30
 70
     1
102
RTVSPropertyOp31
 70
     1
102
RTVSPropertyOp32
 70
     1
  0
ENDSEC
  0
EOF
