  0
SECTION
  2
HEADER
  9
$ACADVER
  1
AC1024
  9
$ACADMAINTVER
 70
     6
  9
$DWGCODEPAGE
  3
ASCII
  9
$INSBASE
 10
0.0
 20
0.0
 30
0.0
  9
$EXTMIN
 10
1.000000000000000E+20
 20
1.000000000000000E+20
 30
1.000000000000000E+20
  9
$EXTMAX
 10
-1.000000000000000E+20
 20
-1.000000000000000E+20
 30
-1.000000000000000E+20
  9
$LIMMIN
 10
0.0
 20
0.0
  9
$LIMMAX
 10
12.0
 20
9.0
  9
$ORTHOMODE
 70
     0
  9
$REGENMODE
 70
     1
  9
$FILLMODE
 70
     1
  9
$QTEXTMODE
 70
     0
  9
$MIRRTEXT
 70
     1
  9
$LTSCALE
 40
1.0
  9
$ATTMODE
 70
     1
  9
$TEXTSIZE
 40
2.5
  9
$TRACEWID
 40
0.05
  9
$TEXTSTYLE
  7
Standard
  9
$CLAYER
  8
0
  9
$CELTYPE
  6
ByLayer
  9
$CECOLOR
 62
   178
  9
$CELTSCALE
 40
1.0
  9
$DISPSILH
 70
     0
  9
$DIMSCALE
 40
1.0
  9
$DIMASZ
 40
2.5
  9
$DIMEXO
 40
0.625
  9
$DIMDLI
 40
0.38
  9
$DIMRND
 40
0.0
  9
$DIMDLE
 40
0.0
  9
$DIMEXE
 40
1.25
  9
$DIMTP
 40
0.0
  9
$DIMTM
 40
0.0
  9
$DIMTXT
 40
2.5
  9
$DIMCEN
 40
0.09
  9
$DIMTSZ
 40
0.0
  9
$DIMTOL
 70
     0
  9
$DIMLIM
 70
     0
  9
$DIMTIH
 70
     1
  9
$DIMTOH
 70
     1
  9
$DIMSE1
 70
     0
  9
$DIMSE2
 70
     0
  9
$DIMTAD
 70
     0
  9
$DIMZIN
 70
     8
  9
$DIMBLK
  1

  9
$DIMASO
 70
     1
  9
$DIMSHO
 70
     1
  9
$DIMPOST
  1

  9
$DIMAPOST
  1

  9
$DIMALT
 70
     0
  9
$DIMALTD
 70
     2
  9
$DIMALTF
 40
25.4
  9
$DIMLFAC
 40
1.0
  9
$DIMTOFL
 70
     0
  9
$DIMTVP
 40
0.0
  9
$DIMTIX
 70
     0
  9
$DIMSOXD
 70
     0
  9
$DIMSAH
 70
     0
  9
$DIMBLK1
  1

  9
$DIMBLK2
  1

  9
$DIMSTYLE
  2
Standard
  9
$DIMCLRD
 70
   178
  9
$DIMCLRE
 70
   178
  9
$DIMCLRT
 70
   178
  9
$DIMTFAC
 40
1.0
  9
$DIMGAP
 40
0.625
  9
$DIMJUST
 70
     0
  9
$DIMSD1
 70
     0
  9
$DIMSD2
 70
     0
  9
$DIMTOLJ
 70
     1
  9
$DIMTZIN
 70
     0
  9
$DIMALTZ
 70
     0
  9
$DIMALTTZ
 70
     0
  9
$DIMUPT
 70
     0
  9
$DIMDEC
 70
     4
  9
$DIMTDEC
 70
     4
  9
$DIMALTU
 70
     2
  9
$DIMALTTD
 70
     2
  9
$DIMTXSTY
  7
Standard
  9
$DIMAUNIT
 70
     0
  9
$DIMADEC
 70
     0
  9
$DIMALTRND
 40
0.0
  9
$DIMAZIN
 70
     3
  9
$DIMDSEP
 70
    46
  9
$DIMATFIT
 70
     3
  9
$DIMFRAC
 70
     0
  9
$DIMLDRBLK
  1

  9
$DIMLUNIT
 70
     2
  9
$DIMLWD
 70
    -2
  9
$DIMLWE
 70
    -2
  9
$DIMTMOVE
 70
     0
  9
$DIMFXL
 40
1.0
  9
$DIMFXLON
 70
     0
  9
$DIMJOGANG
 40
0.7853981633974483
  9
$DIMTFILL
 70
     0
  9
$DIMTFILLCLR
 70
     0
  9
$DIMARCSYM
 70
     0
  9
$DIMLTYPE
  6

  9
$DIMLTEX1
  6

  9
$DIMLTEX2
  6

  9
$DIMTXTDIRECTION
 70
     0
  9
$LUNITS
 70
     2
  9
$LUPREC
 70
     4
  9
$SKETCHINC
 40
0.1
  9
$FILLETRAD
 40
0.5
  9
$AUNITS
 70
     0
  9
$AUPREC
 70
     0
  9
$MENU
  1
.
  9
$ELEVATION
 40
0.0
  9
$PELEVATION
 40
0.0
  9
$THICKNESS
 40
0.0
  9
$LIMCHECK
 70
     0
  9
$CHAMFERA
 40
0.5
  9
$CHAMFERB
 40
0.5
  9
$CHAMFERC
 40
1.0
  9
$CHAMFERD
 40
0.0
  9
$SKPOLY
 70
     0
  9
$TDCREATE
 40
2456026.952905081
  9
$TDUCREATE
 40
2456026.911238426
  9
$TDUPDATE
 40
2456026.952905081
  9
$TDUUPDATE
 40
2456026.911238426
  9
$TDINDWG
 40
0.0000000116
  9
$TDUSRTIMER
 40
0.0000000116
  9
$USRTIMER
 70
     1
  9
$ANGBASE
 50
0.0
  9
$ANGDIR
 70
     0
  9
$PDMODE
 70
     0
  9
$PDSIZE
 40
0.0
  9
$PLINEWID
 40
0.0
  9
$SPLFRAME
 70
     0
  9
$SPLINETYPE
 70
     6
  9
$SPLINESEGS
 70
     8
  9
$HANDSEED
  5
358
  9
$SURFTAB1
 70
     6
  9
$SURFTAB2
 70
     6
  9
$SURFTYPE
 70
     6
  9
$SURFU
 70
     6
  9
$SURFV
 70
     6
  9
$UCSBASE
  2

  9
$UCSNAME
  2

  9
$UCSORG
 10
0.0
 20
0.0
 30
0.0
  9
$UCSXDIR
 10
1.0
 20
0.0
 30
0.0
  9
$UCSYDIR
 10
0.0
 20
1.0
 30
0.0
  9
$UCSORTHOREF
  2

  9
$UCSORTHOVIEW
 70
     0
  9
$UCSORGTOP
 10
0.0
 20
0.0
 30
0.0
  9
$UCSORGBOTTOM
 10
0.0
 20
0.0
 30
0.0
  9
$UCSORGLEFT
 10
0.0
 20
0.0
 30
0.0
  9
$UCSORGRIGHT
 10
0.0
 20
0.0
 30
0.0
  9
$UCSORGFRONT
 10
0.0
 20
0.0
 30
0.0
  9
$UCSORGBACK
 10
0.0
 20
0.0
 30
0.0
  9
$PUCSBASE
  2

  9
$PUCSNAME
  2

  9
$PUCSORG
 10
0.0
 20
0.0
 30
0.0
  9
$PUCSXDIR
 10
1.0
 20
0.0
 30
0.0
  9
$PUCSYDIR
 10
0.0
 20
1.0
 30
0.0
  9
$PUCSORTHOREF
  2

  9
$PUCSORTHOVIEW
 70
     0
  9
$PUCSORGTOP
 10
0.0
 20
0.0
 30
0.0
  9
$PUCSORGBOTTOM
 10
0.0
 20
0.0
 30
0.0
  9
$PUCSORGLEFT
 10
0.0
 20
0.0
 30
0.0
  9
$PUCSORGRIGHT
 10
0.0
 20
0.0
 30
0.0
  9
$PUCSORGFRONT
 10
0.0
 20
0.0
 30
0.0
  9
$PUCSORGBACK
 10
0.0
 20
0.0
 30
0.0
  9
$USERI1
 70
     0
  9
$USERI2
 70
     0
  9
$USERI3
 70
     0
  9
$USERI4
 70
     0
  9
$USERI5
 70
     0
  9
$USERR1
 40
0.0
  9
$USERR2
 40
0.0
  9
$USERR3
 40
0.0
  9
$USERR4
 40
0.0
  9
$USERR5
 40
0.0
  9
$WORLDVIEW
 70
     1
  9
$SHADEDGE
 70
     3
  9
$SHADEDIF
 70
    70
  9
$TILEMODE
 70
     1
  9
$MAXACTVP
 70
    64
  9
$PINSBASE
 10
0.0
 20
0.0
 30
0.0
  9
$PLIMCHECK
 70
     0
  9
$PEXTMIN
 10
1.000000000000000E+20
 20
1.000000000000000E+20
 30
1.000000000000000E+20
  9
$PEXTMAX
 10
-1.000000000000000E+20
 20
-1.000000000000000E+20
 30
-1.000000000000000E+20
  9
$PLIMMIN
 10
0.0
 20
0.0
  9
$PLIMMAX
 10
210.0
 20
297.0
  9
$UNITMODE
 70
     0
  9
$VISRETAIN
 70
     1
  9
$PLINEGEN
 70
     0
  9
$PSLTSCALE
 70
     1
  9
$TREEDEPTH
 70
  3020
  9
$CMLSTYLE
  2
Standard
  9
$CMLJUST
 70
     0
  9
$CMLSCALE
 40
1.0
  9
$PROXYGRAPHICS
 70
     1
  9
$MEASUREMENT
 70
     1
  9
$CELWEIGHT
370
    -1
  9
$ENDCAPS
280
     0
  9
$JOINSTYLE
280
     0
  9
$LWDISPLAY
290
     0
  9
$INSUNITS
 70
     4
  9
$HYPERLINKBASE
  1

  9
$STYLESHEET
  1

  9
$XEDIT
290
     1
  9
$CEPSNTYPE
380
     0
  9
$PSTYLEMODE
290
     1
  9
$FINGERPRINTGUID
  2
{2751DC05-DD92-1BBF-D9F3-FA7A76FC74C1}
  9
$VERSIONGUID
  2
{FAEB1C32-E019-11D5-929B-00C0DF256EC4}
  9
$EXTNAMES
290
     1
  9
$PSVPSCALE
 40
0.0
  9
$OLESTARTUP
290
     0
  9
$SORTENTS
280
   127
  9
$INDEXCTL
280
     0
  9
$HIDETEXT
280
     1
  9
$XCLIPFRAME
280
     2
  9
$HALOGAP
280
     0
  9
$OBSCOLOR
 70
   257
  9
$OBSLTYPE
280
     0
  9
$INTERSECTIONDISPLAY
280
     0
  9
$INTERSECTIONCOLOR
 70
   257
  9
$DIMASSOC
280
     2
  9
$PROJECTNAME
  1

  9
$CAMERADISPLAY
290
     0
  9
$LENSLENGTH
 40
50.0
  9
$CAMERAHEIGHT
 40
0.0
  9
$STEPSPERSEC
 40
2.0
  9
$STEPSIZE
 40
6.0
  9
$3DDWFPREC
 40
2.0
  9
$PSOLWIDTH
 40
0.25
  9
$PSOLHEIGHT
 40
4.0
  9
$LOFTANG1
 40
1.570796326794897
  9
$LOFTANG2
 40
1.570796326794897
  9
$LOFTMAG1
 40
0.0
  9
$LOFTMAG2
 40
0.0
  9
$LOFTPARAM
 70
     7
  9
$LOFTNORMALS
280
     1
  9
$LATITUDE
 40
37.795
  9
$LONGITUDE
 40
-122.394
  9
$NORTHDIRECTION
 40
0.0
  9
$TIMEZONE
 70
 -8000
  9
$LIGHTGLYPHDISPLAY
280
     1
  9
$TILEMODELIGHTSYNCH
280
     1
  9
$SOLIDHIST
280
     1
  9
$SHOWHIST
280
     1
  9
$DWFFRAME
280
     2
  9
$DGNFRAME
280
     2
  9
$REALWORLDSCALE
290
     1
  9
$INTERFERECOLOR
 62
   256
  9
$CSHADOW
280
     0
  9
$SHADOWPLANELOCATION
 40
0.0
  0
ENDSEC
  0
SECTION
  2
CLASSES
  0
CLASS
  1
ACDBDICTIONARYWDFLT
  2
AcDbDictionaryWithDefault
  3
ObjectDBX Classes
 90
        0
 91
        4
280
     0
281
     0
  0
CLASS
  1
VISUALSTYLE
  2
AcDbVisualStyle
  3
ObjectDBX Classes
 90
     4095
 91
        4
280
     0
281
     0
  0
CLASS
  1
MATERIAL
  2
AcDbMaterial
  3
ObjectDBX Classes
 90
     1153
 91
        4
280
     0
281
     0
  0
ENDSEC
  0
SECTION
  2
TABLES
  0
TABLE
  2
VPORT
  5
2EA
330
0
100
AcDbSymbolTable
 70
     1
  0
VPORT
  5
30A
330
2EA
100
AcDbSymbolTableRecord
100
AcDbViewportTableRecord
  2
*Active
 70
     0
 10
0.0
 20
0.0
 11
1.0
 21
1.0
 12
10.42990654205607
 22
4.5
 13
0.0
 23
0.0
 14
0.5
 24
0.5
 15
0.5
 25
0.5
 16
0.0
 26
0.0
 36
1.0
 17
0.0
 27
0.0
 37
0.0
 40
9.0
 41
1.972972972850329
 42
50.0
 43
0.0
 44
0.0
 50
0.0
 51
0.0
 71
     0
 72
   100
 73
     1
 74
     3
 75
     0
 76
     0
 77
     0
 78
     0
281
     0
 65
     1
110
0.0
120
0.0
130
0.0
111
1.0
121
0.0
131
0.0
112
0.0
122
1.0
132
0.0
 79
     0
146
0.0
 60
     3
 61
     5
292
     1
282
     1
141
0.0
142
0.0
 63
   250
  0
ENDTAB
  0
TABLE
  2
LTYPE
  5
2E7
330
0
100
AcDbSymbolTable
 70
    19
  0
LTYPE
  5
2F5
330
2E7
100
AcDbSymbolTableRecord
100
AcDbLinetypeTableRecord
  2
ByBlock
 70
     0
  3

 72
    65
 73
     0
 40
0.0
  0
LTYPE
  5
2F6
330
2E7
100
AcDbSymbolTableRecord
100
AcDbLinetypeTableRecord
  2
ByLayer
 70
     0
  3

 72
    65
 73
     0
 40
0.0
  0
LTYPE
  5
2F7
330
2E7
100
AcDbSymbolTableRecord
100
AcDbLinetypeTableRecord
  2
Continuous
 70
     0
  3
Solid line
 72
    65
 73
     0
 40
0.0
  0
LTYPE
  5
338
330
2E7
100
AcDbSymbolTableRecord
100
AcDbLinetypeTableRecord
  2
BORDER
 70
     0
  3

 72
    65
 73
     6
 40
42.00000000000001
 49
12.0
 74
     0
 49
-6.0
 74
     0
 49
12.0
 74
     0
 49
-5.95
 74
     0
 49
0.1
 74
     0
 49
-5.95
 74
     0
  0
LTYPE
  5
339
330
2E7
100
AcDbSymbolTableRecord
100
AcDbLinetypeTableRecord
  2
BORDER2
 70
     0
  3

 72
    65
 73
     6
 40
21.0
 49
6.0
 74
     0
 49
-3.0
 74
     0
 49
6.0
 74
     0
 49
-2.95
 74
     0
 49
0.1
 74
     0
 49
-2.95
 74
     0
  0
LTYPE
  5
33A
330
2E7
100
AcDbSymbolTableRecord
100
AcDbLinetypeTableRecord
  2
BORDERX2
 70
     0
  3

 72
    65
 73
     6
 40
84.0
 49
24.0
 74
     0
 49
-12.0
 74
     0
 49
24.0
 74
     0
 49
-11.95
 74
     0
 49
0.1
 74
     0
 49
-11.95
 74
     0
  0
LTYPE
  5
33B
330
2E7
100
AcDbSymbolTableRecord
100
AcDbLinetypeTableRecord
  2
CENTER
 70
     0
  3

 72
    65
 73
     4
 40
50.0
 49
32.0
 74
     0
 49
-6.0
 74
     0
 49
6.0
 74
     0
 49
-6.0
 74
     0
  0
LTYPE
  5
33C
330
2E7
100
AcDbSymbolTableRecord
100
AcDbLinetypeTableRecord
  2
CENTER2
 70
     0
  3

 72
    65
 73
     4
 40
25.0
 49
16.0
 74
     0
 49
-3.0
 74
     0
 49
3.0
 74
     0
 49
-3.0
 74
     0
  0
LTYPE
  5
33D
330
2E7
100
AcDbSymbolTableRecord
100
AcDbLinetypeTableRecord
  2
CENTERX2
 70
     0
  3

 72
    65
 73
     4
 40
100.0
 49
64.0
 74
     0
 49
-12.0
 74
     0
 49
12.0
 74
     0
 49
-12.0
 74
     0
  0
LTYPE
  5
33E
330
2E7
100
AcDbSymbolTableRecord
100
AcDbLinetypeTableRecord
  2
DASHDOT
 70
     0
  3

 72
    65
 73
     4
 40
24.0
 49
12.0
 74
     0
 49
-5.95
 74
     0
 49
0.1
 74
     0
 49
-5.95
 74
     0
  0
LTYPE
  5
33F
330
2E7
100
AcDbSymbolTableRecord
100
AcDbLinetypeTableRecord
  2
DASHDOT2
 70
     0
  3

 72
    65
 73
     4
 40
12.0
 49
6.0
 74
     0
 49
-2.95
 74
     0
 49
0.1
 74
     0
 49
-2.95
 74
     0
  0
LTYPE
  5
340
330
2E7
100
AcDbSymbolTableRecord
100
AcDbLinetypeTableRecord
  2
DASHDOTX2
 70
     0
  3

 72
    65
 73
     4
 40
48.0
 49
24.0
 74
     0
 49
-11.95
 74
     0
 49
0.1
 74
     0
 49
-11.95
 74
     0
  0
LTYPE
  5
341
330
2E7
100
AcDbSymbolTableRecord
100
AcDbLinetypeTableRecord
  2
DASHED
 70
     0
  3

 72
    65
 73
     2
 40
18.0
 49
12.0
 74
     0
 49
-6.0
 74
     0
  0
LTYPE
  5
342
330
2E7
100
AcDbSymbolTableRecord
100
AcDbLinetypeTableRecord
  2
DASHED2
 70
     0
  3

 72
    65
 73
     2
 40
9.0
 49
6.0
 74
     0
 49
-3.0
 74
     0
  0
LTYPE
  5
343
330
2E7
100
AcDbSymbolTableRecord
100
AcDbLinetypeTableRecord
  2
DASHEDX2
 70
     0
  3

 72
    65
 73
     2
 40
36.0
 49
24.0
 74
     0
 49
-12.0
 74
     0
  0
LTYPE
  5
344
330
2E7
100
AcDbSymbolTableRecord
100
AcDbLinetypeTableRecord
  2
DIVIDE
 70
     0
  3

 72
    65
 73
     6
 40
29.99999999999999
 49
12.0
 74
     0
 49
-5.9
 74
     0
 49
0.15
 74
     0
 49
-5.9
 74
     0
 49
0.15
 74
     0
 49
-5.9
 74
     0
  0
LTYPE
  5
345
330
2E7
100
AcDbSymbolTableRecord
100
AcDbLinetypeTableRecord
  2
DIVIDE2
 70
     0
  3

 72
    65
 73
     6
 40
15.0
 49
6.0
 74
     0
 49
-2.9
 74
     0
 49
0.15
 74
     0
 49
-2.9
 74
     0
 49
0.15
 74
     0
 49
-2.9
 74
     0
  0
LTYPE
  5
346
330
2E7
100
AcDbSymbolTableRecord
100
AcDbLinetypeTableRecord
  2
DIVIDEX2
 70
     0
  3

 72
    65
 73
     6
 40
59.99999999999999
 49
24.0
 74
     0
 49
-11.9
 74
     0
 49
0.15
 74
     0
 49
-11.9
 74
     0
 49
0.15
 74
     0
 49
-11.9
 74
     0
  0
LTYPE
  5
347
330
2E7
100
AcDbSymbolTableRecord
100
AcDbLinetypeTableRecord
  2
DOT
 70
     0
  3

 72
    65
 73
     2
 40
6.3
 49
0.1
 74
     0
 49
-6.2
 74
     0
  0
LTYPE
  5
348
330
2E7
100
AcDbSymbolTableRecord
100
AcDbLinetypeTableRecord
  2
DOT2
 70
     0
  3

 72
    65
 73
     2
 40
3.2
 49
0.1
 74
     0
 49
-3.1
 74
     0
  0
LTYPE
  5
349
330
2E7
100
AcDbSymbolTableRecord
100
AcDbLinetypeTableRecord
  2
DOTX2
 70
     0
  3

 72
    65
 73
     2
 40
12.5
 49
0.1
 74
     0
 49
-12.4
 74
     0
  0
ENDTAB
  0
TABLE
  2
LAYER
  5
2E4
330
0
100
AcDbSymbolTable
 70
     1
  0
LAYER
  5
2F2
330
2E4
100
AcDbSymbolTableRecord
100
AcDbLayerTableRecord
  2
0
 70
     0
 62
   178
420
       76
  6
Continuous
370
    25
390
2F1
347
31F
  0
ENDTAB
  0
TABLE
  2
STYLE
  5
2E5
330
0
100
AcDbSymbolTable
 70
     1
  0
STYLE
  5
2F3
330
2E5
100
AcDbSymbolTableRecord
100
AcDbTextStyleTableRecord
  2
Standard
 70
     0
 40
0.0
 41
1.0
 50
0.0
 71
     0
 42
2.5
  3
txt
  4

  0
ENDTAB
  0
TABLE
  2
VIEW
  5
2E8
330
0
100
AcDbSymbolTable
 70
     0
  0
ENDTAB
  0
TABLE
  2
UCS
  5
2E9
330
0
100
AcDbSymbolTable
 70
     0
  0
ENDTAB
  0
TABLE
  2
APPID
  5
2EB
330
0
100
AcDbSymbolTable
 70
     2
  0
APPID
  5
2F4
330
2EB
100
AcDbSymbolTableRecord
100
AcDbRegAppTableRecord
  2
ACAD
 70
     0
  0
APPID
  5
320
330
2EB
100
AcDbSymbolTableRecord
100
AcDbRegAppTableRecord
  2
QCAD
 70
     0
  0
ENDTAB
  0
TABLE
  2
DIMSTYLE
  5
2EC
330
0
100
AcDbSymbolTable
 70
     2
100
AcDbDimStyleTable
  0
DIMSTYLE
105
308
330
2EC
100
AcDbSymbolTableRecord
100
AcDbDimStyleTableRecord
  2
Standard
 70
     0
178
     0
340
2F3
  0
DIMSTYLE
105
337
330
2EC
100
AcDbSymbolTableRecord
100
AcDbDimStyleTableRecord
  2
QCADDimStyle
 70
     0
 41
2.5
 42
0.625
 44
1.25
 73
     0
 77
     1
140
2.5
147
0.625
178
     0
340
2F3
  0
ENDTAB
  0
TABLE
  2
BLOCK_RECORD
  5
2E3
330
0
100
AcDbSymbolTable
 70
     5
  0
BLOCK_RECORD
  5
300
330
2E3
100
AcDbSymbolTableRecord
100
AcDbBlockTableRecord
  2
*Model_Space
340
303
 70
     0
280
     1
281
     0
  0
BLOCK_RECORD
  5
2FC
330
2E3
100
AcDbSymbolTableRecord
100
AcDbBlockTableRecord
  2
*Paper_Space
340
2FF
 70
     0
280
     1
281
     0
  0
BLOCK_RECORD
  5
304
330
2E3
100
AcDbSymbolTableRecord
100
AcDbBlockTableRecord
  2
*Paper_Space0
340
307
 70
     0
280
     1
281
     0
  0
BLOCK_RECORD
  5
34A
330
2E3
100
AcDbSymbolTableRecord
100
AcDbBlockTableRecord
  2
outer endings
340
0
102
{BLKREFS
331
29A
331
29B
331
29C
331
29D
331
29E
102
}
 70
     0
280
     1
281
     0
  0
BLOCK_RECORD
  5
34D
330
2E3
100
AcDbSymbolTableRecord
100
AcDbBlockTableRecord
  2
partition
340
0
102
{BLKREFS
331
293
331
294
331
295
331
296
331
299
331
2DE
331
2DF
331
2E0
331
2E1
102
}
 70
     0
280
     1
281
     0
  0
BLOCK_RECORD
  5
350
330
2E3
100
AcDbSymbolTableRecord
100
AcDbBlockTableRecord
  2
vertex
340
0
102
{BLKREFS
331
297
331
298
102
}
 70
     0
280
     1
281
     0
  0
BLOCK_RECORD
  5
353
330
2E3
100
AcDbSymbolTableRecord
100
AcDbBlockTableRecord
  2
middle segment
340
0
102
{BLKREFS
331
29F
331
2A0
331
2A1
331
2A2
331
2A3
102
}
 70
     0
280
     1
281
     0
  0
ENDTAB
  0
ENDSEC
  0
SECTION
  2
BLOCKS
  0
BLOCK
  5
301
330
300
100
AcDbEntity
  8
0
100
AcDbBlockBegin
  2
*Model_Space
 70
     0
 10
0.0
 20
0.0
 30
0.0
  3
*Model_Space
  1

  0
ENDBLK
  5
302
330
300
100
AcDbEntity
  8
0
100
AcDbBlockEnd
  0
BLOCK
  5
2FD
330
2FC
100
AcDbEntity
 67
     1
  8
0
100
AcDbBlockBegin
  2
*Paper_Space
 70
     0
 10
0.0
 20
0.0
 30
0.0
  3
*Paper_Space
  1

  0
ENDBLK
  5
2FE
330
2FC
100
AcDbEntity
 67
     1
  8
0
100
AcDbBlockEnd
  0
BLOCK
  5
305
330
304
100
AcDbEntity
  8
0
100
AcDbBlockBegin
  2
*Paper_Space0
 70
     0
 10
0.0
 20
0.0
 30
0.0
  3
*Paper_Space0
  1

  0
ENDBLK
  5
306
330
304
100
AcDbEntity
  8
0
100
AcDbBlockEnd
  0
BLOCK
  5
34B
330
34A
100
AcDbEntity
  8
0
100
AcDbBlockBegin
  2
outer endings
 70
     0
 10
0.0
 20
0.0
 30
0.0
  3
outer endings
  1

  0
CIRCLE
  5
19D
330
34A
100
AcDbEntity
  8
0
 62
     1
420
 16711680
100
AcDbCircle
 10
-15.40941888630613
 20
24.45395685322831
 30
0.0
 40
4.2
  0
LINE
  5
19E
330
34A
100
AcDbEntity
  8
0
 62
     1
420
 16711680
100
AcDbLine
 10
-10.40941888630613
 20
30.7539568532283
 30
0.0
 11
-20.40941888630613
 21
30.75395685322831
 31
0.0
  0
LINE
  5
19F
330
34A
100
AcDbEntity
  8
0
 62
     1
420
 16711680
100
AcDbLine
 10
-20.40941888630613
 20
34.45395685322827
 30
0.0
 11
-20.40941888630613
 21
30.75395685322831
 31
0.0
  0
LINE
  5
1A0
330
34A
100
AcDbEntity
  8
0
 62
     1
420
 16711680
100
AcDbLine
 10
-10.40941888630613
 20
34.45395685322831
 30
0.0
 11
-10.40941888630614
 21
30.75395685322831
 31
0.0
  0
LINE
  5
1A1
330
34A
100
AcDbEntity
  8
0
 62
     1
420
 16711680
100
AcDbLine
 10
-10.40941888630614
 20
18.1539568532283
 30
0.0
 11
-20.40941888630614
 21
18.15395685322831
 31
0.0
  0
LINE
  5
1A2
330
34A
100
AcDbEntity
  8
0
 62
     1
420
 16711680
100
AcDbLine
 10
-10.40941888630614
 20
18.15395685322831
 30
0.0
 11
-10.40941888630613
 21
14.45395685322831
 31
0.0
  0
LINE
  5
1A3
330
34A
100
AcDbEntity
  8
0
 62
     1
420
 16711680
100
AcDbLine
 10
-20.40941888630614
 20
18.15395685322831
 30
0.0
 11
-20.40941888630613
 21
14.45395685322831
 31
0.0
  0
LINE
  5
1A8
330
34A
100
AcDbEntity
  8
0
 62
     1
420
 16711680
100
AcDbLine
 10
-5.409418886306135
 20
34.45395685322831
 30
0.0
 11
-5.409418886306135
 21
30.7539568532283
 31
0.0
  0
LINE
  5
1A9
330
34A
100
AcDbEntity
  8
0
 62
     1
420
 16711680
100
AcDbLine
 10
-25.40941888630613
 20
34.45395685322837
 30
0.0
 11
-25.40941888630613
 21
30.75395685322832
 31
0.0
  0
LINE
  5
1AA
330
34A
100
AcDbEntity
  8
0
 62
     1
420
 16711680
100
AcDbLine
 10
-25.40941888630613
 20
30.75395685322832
 30
0.0
 11
-26.40941888630613
 21
30.7539568532283
 31
0.0
  0
LINE
  5
1AB
330
34A
100
AcDbEntity
  8
0
 62
     1
420
 16711680
100
AcDbLine
 10
-25.40941888630614
 20
18.15395685322831
 30
0.0
 11
-26.40941888630614
 21
18.15395685322831
 31
0.0
  0
LINE
  5
1AC
330
34A
100
AcDbEntity
  8
0
 62
     1
420
 16711680
100
AcDbLine
 10
-25.40941888630614
 20
18.15395685322831
 30
0.0
 11
-25.40941888630614
 21
14.45395685322831
 31
0.0
  0
LINE
  5
1AD
330
34A
100
AcDbEntity
  8
0
 62
     1
420
 16711680
100
AcDbLine
 10
-26.40941888630614
 20
18.15395685322831
 30
0.0
 11
-26.40941888630613
 21
30.7539568532283
 31
0.0
  0
LINE
  5
1AE
330
34A
100
AcDbEntity
  8
0
 62
     1
420
 16711680
100
AcDbLine
 10
-5.409418886306138
 20
18.15395685322831
 30
0.0
 11
-5.409418886306147
 21
14.45395685322831
 31
0.0
  0
LINE
  5
1AF
330
34A
100
AcDbEntity
  8
0
 62
     1
420
 16711680
100
AcDbLine
 10
-5.409418886306138
 20
18.15395685322831
 30
0.0
 11
-4.40941888630613
 21
18.1539568532283
 31
0.0
  0
LINE
  5
1B0
330
34A
100
AcDbEntity
  8
0
 62
     1
420
 16711680
100
AcDbLine
 10
-5.409418886306135
 20
30.7539568532283
 30
0.0
 11
-4.409418886306137
 21
30.75395685322831
 31
0.0
  0
LINE
  5
1B1
330
34A
100
AcDbEntity
  8
0
 62
     1
420
 16711680
100
AcDbLine
 10
-4.409418886306137
 20
30.75395685322831
 30
0.0
 11
-4.40941888630613
 21
18.1539568532283
 31
0.0
  0
LINE
  5
1B2
330
34A
100
AcDbEntity
  8
0
 62
     1
420
 16711680
100
AcDbLine
 10
-20.40941888630613
 20
34.45395685322827
 30
0.0
 11
-10.40941888630613
 21
34.45395685322831
 31
0.0
  0
LINE
  5
1B5
330
34A
100
AcDbEntity
  8
0
 62
     1
420
 16711680
100
AcDbLine
 10
-5.409418886306135
 20
34.45395685322831
 30
0.0
 11
-4.409418886306135
 21
34.45395685322831
 31
0.0
  0
LINE
  5
1B6
330
34A
100
AcDbEntity
  8
0
 62
     1
420
 16711680
100
AcDbLine
 10
-25.40941888630613
 20
34.45395685322837
 30
0.0
 11
-26.40941888630613
 21
34.45395685322837
 31
0.0
  0
LINE
  5
1B7
330
34A
100
AcDbEntity
  8
0
 62
     1
420
 16711680
100
AcDbLine
 10
-26.40941888630613
 20
34.45395685322837
 30
0.0
 11
-26.40941888630613
 21
39.45395685322837
 31
0.0
  0
LINE
  5
1B8
330
34A
100
AcDbEntity
  8
0
 62
     1
420
 16711680
100
AcDbLine
 10
-4.409418886306135
 20
34.45395685322831
 30
0.0
 11
-4.409418886306135
 21
39.45395685322831
 31
0.0
  0
LINE
  5
1B9
330
34A
100
AcDbEntity
  8
0
 62
     1
420
 16711680
100
AcDbLine
 10
-26.40941888630613
 20
39.45395685322837
 30
0.0
 11
-4.409418886306135
 21
39.45395685322831
 31
0.0
  0
LINE
  5
1BA
330
34A
100
AcDbEntity
  8
0
 62
     1
420
 16711680
100
AcDbLine
 10
-25.40941888630614
 20
14.45395685322831
 30
0.0
 11
-26.40941888630614
 21
14.45395685322831
 31
0.0
  0
LINE
  5
1BB
330
34A
100
AcDbEntity
  8
0
 62
     1
420
 16711680
100
AcDbLine
 10
-5.409418886306146
 20
14.4539568532283
 30
0.0
 11
-4.409418886306146
 21
14.4539568532283
 31
0.0
  0
LINE
  5
1BC
330
34A
100
AcDbEntity
  8
0
 62
     1
420
 16711680
100
AcDbLine
 10
-20.40941888630613
 20
14.45395685322831
 30
0.0
 11
-10.40941888630613
 21
14.45395685322831
 31
0.0
  0
LINE
  5
1BD
330
34A
100
AcDbEntity
  8
0
 62
     1
420
 16711680
100
AcDbLine
 10
-26.40941888630614
 20
14.45395685322831
 30
0.0
 11
-26.40941888630614
 21
9.453956853228307
 31
0.0
  0
LINE
  5
1BE
330
34A
100
AcDbEntity
  8
0
 62
     1
420
 16711680
100
AcDbLine
 10
-4.409418886306146
 20
14.4539568532283
 30
0.0
 11
-4.409418886306146
 21
9.453956853228304
 31
0.0
  0
LINE
  5
1BF
330
34A
100
AcDbEntity
  8
0
 62
     1
420
 16711680
100
AcDbLine
 10
-26.40941888630614
 20
9.453956853228307
 30
0.0
 11
-4.409418886306146
 21
9.453956853228304
 31
0.0
  0
ENDBLK
  5
34C
330
34A
100
AcDbEntity
  8
0
100
AcDbBlockEnd
  0
BLOCK
  5
34E
330
34D
100
AcDbEntity
  8
0
100
AcDbBlockBegin
  2
partition
 70
     0
 10
0.0
 20
0.0
 30
0.0
  3
partition
  1

  0
CIRCLE
  5
1C0
330
34D
100
AcDbEntity
  8
0
 62
     1
420
 16711680
100
AcDbCircle
 10
12.0
 20
11.0
 30
0.0
 40
4.2
  0
LINE
  5
1C1
330
34D
100
AcDbEntity
  8
0
 62
     1
420
 16711680
100
AcDbLine
 10
6.999999999999999
 20
4.700000000000001
 30
0.0
 11
17.0
 21
4.699999999999999
 31
0.0
  0
LINE
  5
1C2
330
34D
100
AcDbEntity
  8
0
 62
     1
420
 16711680
100
AcDbLine
 10
17.0
 20
1.0
 30
0.0
 11
17.0
 21
4.7
 31
0.0
  0
LINE
  5
1C3
330
34D
100
AcDbEntity
  8
0
 62
     1
420
 16711680
100
AcDbLine
 10
7.0
 20
1.0
 30
0.0
 11
7.0
 21
4.7
 31
0.0
  0
LINE
  5
1C4
330
34D
100
AcDbEntity
  8
0
 62
     1
420
 16711680
100
AcDbLine
 10
7.000000000000002
 20
17.3
 30
0.0
 11
17.0
 21
17.3
 31
0.0
  0
LINE
  5
1C5
330
34D
100
AcDbEntity
  8
0
 62
     1
420
 16711680
100
AcDbLine
 10
6.999999999999999
 20
17.3
 30
0.0
 11
6.999999999999999
 21
21.0
 31
0.0
  0
LINE
  5
1C6
330
34D
100
AcDbEntity
  8
0
 62
     1
420
 16711680
100
AcDbLine
 10
17.0
 20
17.3
 30
0.0
 11
17.0
 21
21.0
 31
0.0
  0
LINE
  5
1C7
330
34D
100
AcDbEntity
  8
0
 62
     1
420
 16711680
100
AcDbLine
 10
17.0
 20
21.0
 30
0.0
 11
22.0
 21
21.0
 31
0.0
  0
LINE
  5
1C8
330
34D
100
AcDbEntity
  8
0
 62
     1
420
 16711680
100
AcDbLine
 10
17.0
 20
1.0
 30
0.0
 11
22.0
 21
1.0
 31
0.0
  0
LINE
  5
1C9
330
34D
100
AcDbEntity
  8
0
 62
     1
420
 16711680
100
AcDbLine
 10
2.0
 20
1.0
 30
0.0
 11
7.0
 21
1.0
 31
0.0
  0
LINE
  5
1CA
330
34D
100
AcDbEntity
  8
0
 62
     1
420
 16711680
100
AcDbLine
 10
2.0
 20
21.0
 30
0.0
 11
7.0
 21
21.0
 31
0.0
  0
LINE
  5
1CB
330
34D
100
AcDbEntity
  8
0
 62
     1
420
 16711680
100
AcDbLine
 10
2.0
 20
1.0
 30
0.0
 11
2.0
 21
4.7
 31
0.0
  0
LINE
  5
1CC
330
34D
100
AcDbEntity
  8
0
 62
     1
420
 16711680
100
AcDbLine
 10
22.0
 20
1.0
 30
0.0
 11
22.0
 21
4.7
 31
0.0
  0
LINE
  5
1CD
330
34D
100
AcDbEntity
  8
0
 62
     1
420
 16711680
100
AcDbLine
 10
22.0
 20
4.7
 30
0.0
 11
23.0
 21
4.7
 31
0.0
  0
LINE
  5
1CE
330
34D
100
AcDbEntity
  8
0
 62
     1
420
 16711680
100
AcDbLine
 10
22.0
 20
17.3
 30
0.0
 11
23.0
 21
17.3
 31
0.0
  0
LINE
  5
1CF
330
34D
100
AcDbEntity
  8
0
 62
     1
420
 16711680
100
AcDbLine
 10
22.0
 20
17.3
 30
0.0
 11
22.0
 21
21.0
 31
0.0
  0
LINE
  5
1D0
330
34D
100
AcDbEntity
  8
0
 62
     1
420
 16711680
100
AcDbLine
 10
23.0
 20
17.3
 30
0.0
 11
23.0
 21
4.7
 31
0.0
  0
LINE
  5
1D1
330
34D
100
AcDbEntity
  8
0
 62
     1
420
 16711680
100
AcDbLine
 10
2.0
 20
17.3
 30
0.0
 11
2.000000000000001
 21
21.0
 31
0.0
  0
LINE
  5
1D2
330
34D
100
AcDbEntity
  8
0
 62
     1
420
 16711680
100
AcDbLine
 10
2.0
 20
17.3
 30
0.0
 11
1.0
 21
17.3
 31
0.0
  0
LINE
  5
1D3
330
34D
100
AcDbEntity
  8
0
 62
     1
420
 16711680
100
AcDbLine
 10
2.0
 20
4.7
 30
0.0
 11
1.0
 21
4.7
 31
0.0
  0
LINE
  5
1D4
330
34D
100
AcDbEntity
  8
0
 62
     1
420
 16711680
100
AcDbLine
 10
1.0
 20
4.7
 30
0.0
 11
1.0
 21
17.3
 31
0.0
  0
ENDBLK
  5
34F
330
34D
100
AcDbEntity
  8
0
100
AcDbBlockEnd
  0
BLOCK
  5
351
330
350
100
AcDbEntity
  8
0
100
AcDbBlockBegin
  2
vertex
 70
     0
 10
0.0
 20
0.0
 30
0.0
  3
vertex
  1

  0
LINE
  5
1D8
330
350
100
AcDbEntity
  8
0
 62
     1
420
 16711680
100
AcDbLine
 10
-37.61740619626235
 20
-1.950000000000003
 30
0.0
 11
-40.93028997357462
 21
10.41385057650005
 31
0.0
  0
LINE
  5
1D9
330
350
100
AcDbEntity
  8
0
 62
     1
420
 16711680
100
AcDbLine
 10
-34.97028997357461
 20
20.73687338961066
 30
0.0
 11
-40.93028997357462
 21
10.41385057650011
 31
0.0
  0
LINE
  5
1DA
330
350
100
AcDbEntity
  8
0
 62
     1
420
 16711680
100
AcDbLine
 10
-34.97028997357461
 20
20.73687338961066
 30
0.0
 11
-22.43257274834252
 21
24.09634459504134
 31
0.0
  0
CIRCLE
  5
1DB
330
350
100
AcDbEntity
  8
0
 62
     1
420
 16711680
100
AcDbCircle
 10
0.0
 20
0.0
 30
0.0
 40
4.2
  0
CIRCLE
  5
1DC
330
350
100
AcDbEntity
  8
0
 62
     1
420
 16711680
100
AcDbCircle
 10
29.2642
 20
11.075
 30
0.0
 40
4.2
  0
CIRCLE
  5
1DD
330
350
100
AcDbEntity
  8
0
 62
     1
420
 16711680
100
AcDbCircle
 10
-30.15606133951466
 20
11.07536198305542
 30
0.0
 40
4.2
  0
CIRCLE
  5
1DE
330
350
100
AcDbEntity
  8
0
 62
     1
420
 16711680
100
AcDbCircle
 10
-10.4
 20
0.0
 30
0.0
 40
1.7
  0
CIRCLE
  5
1DF
330
350
100
AcDbEntity
  8
0
 62
     1
420
 16711680
100
AcDbCircle
 10
10.4
 20
0.0
 30
0.0
 40
1.7
  0
LINE
  5
1E0
330
350
100
AcDbEntity
  8
0
 62
     1
420
 16711680
100
AcDbLine
 10
-34.39487947233842
 20
0.4973222633537577
 30
0.0
 11
-36.18315433539755
 21
-2.741824694434795
 31
0.0
  0
LINE
  5
1E1
330
350
100
AcDbEntity
  8
0
 62
     1
420
 16711680
100
AcDbLine
 10
33.79303983041932
 20
0.629293994002417
 30
0.0
 11
35.64303983041931
 21
-2.575000000000006
 31
0.0
  0
LINE
  5
1E2
330
350
100
AcDbEntity
  8
0
 62
     1
420
 16711680
100
AcDbLine
 10
20.80265877365273
 20
-6.870706005997581
 30
0.0
 11
22.65265877365274
 21
-10.07500000000001
 31
0.0
  0
LINE
  5
1E3
330
350
100
AcDbEntity
  8
0
 62
     1
420
 16711680
100
AcDbLine
 10
29.46291281149712
 20
-1.870706005997576
 30
0.0
 11
31.31291281149711
 21
-5.074999999999999
 31
0.0
  0
LINE
  5
1E4
330
350
100
AcDbEntity
  8
0
 62
     1
420
 16711680
100
AcDbLine
 10
-30.01765385370523
 20
-1.91926538942885
 30
0.0
 11
-31.80592871676436
 21
-5.158412347217403
 31
0.0
  0
LINE
  5
1E5
330
350
100
AcDbEntity
  8
0
 62
     1
420
 16711680
100
AcDbLine
 10
-34.39487947233842
 20
0.4973222633537577
 30
0.0
 11
-30.01765385370523
 21
-1.91926538942885
 31
0.0
  0
LINE
  5
1E6
330
350
100
AcDbEntity
  8
0
 62
     1
420
 16711680
100
AcDbLine
 10
-36.18315433539755
 20
-2.741824694434795
 30
0.0
 11
-37.61740619626235
 21
-1.950000000000003
 31
0.0
  0
LINE
  5
1E7
330
350
100
AcDbEntity
  8
0
 62
     1
420
 16711680
100
AcDbLine
 10
-17.24
 20
-13.2
 30
0.0
 11
-18.67425186086481
 21
-12.40817530556521
 31
0.0
  0
LINE
  5
1E8
330
350
100
AcDbEntity
  8
0
 62
     1
420
 16711680
100
AcDbLine
 10
-23.05147747949799
 20
-9.991587652782602
 30
0.0
 11
-31.80592871676436
 21
-5.158412347217403
 31
0.0
  0
LINE
  5
1E9
330
350
100
AcDbEntity
  8
0
 62
     1
420
 16711680
100
AcDbLine
 10
16.47253175473054
 20
-9.370706005997578
 30
0.0
 11
18.32253175473054
 21
-12.57500000000001
 31
0.0
  0
LINE
  5
1EA
330
350
100
AcDbEntity
  8
0
 62
     1
420
 16711680
100
AcDbLine
 10
-10.0
 20
-4.199999999999999
 30
0.0
 11
-10.0
 21
-7.899999999999999
 31
0.0
  0
LINE
  5
1EB
330
350
100
AcDbEntity
  8
0
 62
     1
420
 16711680
100
AcDbLine
 10
-10.0
 20
-4.2
 30
0.0
 11
-10.0
 21
-7.9
 31
0.0
  0
LINE
  5
1EC
330
350
100
AcDbEntity
  8
0
 62
     1
420
 16711680
100
AcDbLine
 10
-10.0
 20
-7.9
 30
0.0
 11
-5.0
 21
-7.900000000000001
 31
0.0
  0
LINE
  5
1ED
330
350
100
AcDbEntity
  8
0
 62
     1
420
 16711680
100
AcDbLine
 10
-5.0
 20
-7.900000000000001
 30
0.0
 11
-5.0
 21
-4.200000000000001
 31
0.0
  0
LINE
  5
1EE
330
350
100
AcDbEntity
  8
0
 62
     1
420
 16711680
100
AcDbLine
 10
-5.0
 20
-4.200000000000001
 30
0.0
 11
-10.0
 21
-4.2
 31
0.0
  0
LINE
  5
1EF
330
350
100
AcDbEntity
  8
0
 62
     1
420
 16711680
100
AcDbLine
 10
5.0
 20
-4.200000000000003
 30
0.0
 11
5.0
 21
-7.900000000000004
 31
0.0
  0
LINE
  5
1F0
330
350
100
AcDbEntity
  8
0
 62
     1
420
 16711680
100
AcDbLine
 10
5.0
 20
-7.900000000000004
 30
0.0
 11
10.0
 21
-7.900000000000002
 31
0.0
  0
LINE
  5
1F1
330
350
100
AcDbEntity
  8
0
 62
     1
420
 16711680
100
AcDbLine
 10
10.0
 20
-7.900000000000002
 30
0.0
 11
10.0
 21
-4.200000000000004
 31
0.0
  0
LINE
  5
1F2
330
350
100
AcDbEntity
  8
0
 62
     1
420
 16711680
100
AcDbLine
 10
10.0
 20
-4.200000000000004
 30
0.0
 11
5.0
 21
-4.200000000000003
 31
0.0
  0
LINE
  5
1F3
330
350
100
AcDbEntity
  8
0
 62
     1
420
 16711680
100
AcDbLine
 10
-10.0
 20
-9.500000000000004
 30
0.0
 11
-10.0
 21
-13.2
 31
0.0
  0
LINE
  5
1F4
330
350
100
AcDbEntity
  8
0
 62
     1
420
 16711680
100
AcDbLine
 10
-5.0
 20
-13.2
 30
0.0
 11
-5.0
 21
-9.500000000000004
 31
0.0
  0
LINE
  5
1F5
330
350
100
AcDbEntity
  8
0
 62
     1
420
 16711680
100
AcDbLine
 10
-5.0
 20
-9.500000000000004
 30
0.0
 11
-10.0
 21
-9.500000000000004
 31
0.0
  0
LINE
  5
1F6
330
350
100
AcDbEntity
  8
0
 62
     1
420
 16711680
100
AcDbLine
 10
-10.0
 20
-13.2
 30
0.0
 11
-17.24
 21
-13.2
 31
0.0
  0
LINE
  5
1F7
330
350
100
AcDbEntity
  8
0
 62
     1
420
 16711680
100
AcDbLine
 10
-5.0
 20
-13.2
 30
0.0
 11
5.0
 21
-13.2
 31
0.0
  0
LINE
  5
1F8
330
350
100
AcDbEntity
  8
0
 62
     1
420
 16711680
100
AcDbLine
 10
10.0
 20
-13.2
 30
0.0
 11
17.24
 21
-13.2
 31
0.0
  0
LINE
  5
1F9
330
350
100
AcDbEntity
  8
0
 62
     1
420
 16711680
100
AcDbLine
 10
4.999999999999999
 20
-9.500000000000004
 30
0.0
 11
10.0
 21
-9.500000000000004
 31
0.0
  0
LINE
  5
1FA
330
350
100
AcDbEntity
  8
0
 62
     1
420
 16711680
100
AcDbLine
 10
10.0
 20
-9.500000000000004
 30
0.0
 11
10.0
 21
-13.2
 31
0.0
  0
LINE
  5
1FB
330
350
100
AcDbEntity
  8
0
 62
     1
420
 16711680
100
AcDbLine
 10
5.0
 20
-4.200000000000003
 30
0.0
 11
10.0
 21
-4.200000000000004
 31
0.0
  0
LINE
  5
1FC
330
350
100
AcDbEntity
  8
0
 62
     1
420
 16711680
100
AcDbLine
 10
10.0
 20
-4.200000000000004
 30
0.0
 11
10.0
 21
-7.900000000000002
 31
0.0
  0
LINE
  5
1FD
330
350
100
AcDbEntity
  8
0
 62
     1
420
 16711680
100
AcDbLine
 10
10.0
 20
-7.900000000000002
 30
0.0
 11
5.0
 21
-7.900000000000005
 31
0.0
  0
LINE
  5
1FE
330
350
100
AcDbEntity
  8
0
 62
     1
420
 16711680
100
AcDbLine
 10
5.0
 20
-7.900000000000005
 30
0.0
 11
5.0
 21
-4.200000000000003
 31
0.0
  0
LINE
  5
1FF
330
350
100
AcDbEntity
  8
0
 62
     1
420
 16711680
100
AcDbLine
 10
5.0
 20
-13.2
 30
0.0
 11
4.999999999999999
 21
-9.500000000000004
 31
0.0
  0
LINE
  5
200
330
350
100
AcDbEntity
  8
0
 62
     1
420
 16711680
100
AcDbLine
 10
21.41516445368128
 20
24.02384459504135
 30
0.0
 11
21.54073813723004
 21
24.09634459504134
 31
0.0
  0
LINE
  5
201
330
350
100
AcDbEntity
  8
0
 62
     1
420
 16711680
100
AcDbLine
 10
-21.61670645529713
 20
23.64274644240887
 30
0.0
 11
-22.43257274834252
 21
24.09634459504134
 31
0.0
  0
LINE
  5
202
330
350
100
AcDbEntity
  8
0
 62
     1
420
 16711680
100
AcDbLine
 10
-21.26320261643886
 20
-6.752440694994048
 30
0.0
 11
-16.88597699780568
 21
-9.169028347776656
 31
0.0
  0
LINE
  5
203
330
350
100
AcDbEntity
  8
0
 62
     1
420
 16711680
100
AcDbLine
 10
-21.26320261643886
 20
-6.752440694994048
 30
0.0
 11
-23.05147747949799
 21
-9.991587652782602
 31
0.0
  0
LINE
  5
204
330
350
100
AcDbEntity
  8
0
 62
     1
420
 16711680
100
AcDbLine
 10
-16.88597699780568
 20
-9.169028347776656
 30
0.0
 11
-18.67425186086481
 21
-12.40817530556521
 31
0.0
  0
LINE
  5
205
330
350
100
AcDbEntity
  8
0
 62
     1
420
 16711680
100
AcDbLine
 10
-33.42824441122537
 20
2.24821251080703
 30
0.0
 11
-29.05101879259219
 21
-0.1683751419755779
 31
0.0
  0
LINE
  5
206
330
350
100
AcDbEntity
  8
0
 62
     1
420
 16711680
100
AcDbLine
 10
-31.63996954816624
 20
5.487359468595585
 30
0.0
 11
-27.26274392953306
 21
3.070771815812977
 31
0.0
  0
LINE
  5
207
330
350
100
AcDbEntity
  8
0
 62
     1
420
 16711680
100
AcDbLine
 10
-33.42824441122537
 20
2.24821251080703
 30
0.0
 11
-31.63996954816624
 21
5.487359468595585
 31
0.0
  0
LINE
  5
208
330
350
100
AcDbEntity
  8
0
 62
     1
420
 16711680
100
AcDbLine
 10
-29.05101879259219
 20
-0.1683751419755779
 30
0.0
 11
-27.26274392953306
 21
3.070771815812977
 31
0.0
  0
LINE
  5
209
330
350
100
AcDbEntity
  8
0
 62
     1
420
 16711680
100
AcDbLine
 10
-20.29656755532582
 20
-5.001550447540776
 30
0.0
 11
-15.91934193669263
 21
-7.418138100323384
 31
0.0
  0
LINE
  5
20A
330
350
100
AcDbEntity
  8
0
 62
     1
420
 16711680
100
AcDbLine
 10
-18.50829269226669
 20
-1.762403489752221
 30
0.0
 11
-14.1310670736335
 21
-4.17899114253483
 31
0.0
  0
LINE
  5
20B
330
350
100
AcDbEntity
  8
0
 62
     1
420
 16711680
100
AcDbLine
 10
-20.29656755532582
 20
-5.001550447540776
 30
0.0
 11
-18.50829269226669
 21
-1.762403489752221
 31
0.0
  0
LINE
  5
20C
330
350
100
AcDbEntity
  8
0
 62
     1
420
 16711680
100
AcDbLine
 10
-15.91934193669263
 20
-7.418138100323384
 30
0.0
 11
-14.1310670736335
 21
-4.17899114253483
 31
0.0
  0
LINE
  5
20D
330
350
100
AcDbEntity
  8
0
 62
     1
420
 16711680
100
AcDbLine
 10
-17.29308678705272
 20
21.12906099179439
 30
0.0
 11
-8.538635549786349
 21
16.29588568622919
 31
0.0
  0
LINE
  5
20E
330
350
100
AcDbEntity
  8
0
 62
     1
420
 16711680
100
AcDbLine
 10
-19.08136165011184
 20
17.88991403400583
 30
0.0
 11
-23.45858726874503
 21
20.30650168678843
 31
0.0
  0
LINE
  5
20F
330
350
100
AcDbEntity
  8
0
 62
     1
420
 16711680
100
AcDbLine
 10
-23.45858726874503
 20
20.30650168678843
 30
0.0
 11
-21.61670645529714
 21
23.64274644240887
 31
0.0
  0
LINE
  5
210
330
350
100
AcDbEntity
  8
0
 62
     1
420
 16711680
100
AcDbLine
 10
-17.29308678705272
 20
21.12906099179439
 30
0.0
 11
-19.08136165011184
 21
17.88991403400583
 31
0.0
  0
LINE
  5
211
330
350
100
AcDbEntity
  8
0
 62
     1
420
 16711680
100
AcDbLine
 10
-8.538635549786347
 20
16.29588568622919
 30
0.0
 11
-10.32691041284547
 21
13.05673872844063
 31
0.0
  0
LINE
  5
212
330
350
100
AcDbEntity
  8
0
 62
     1
420
 16711680
100
AcDbLine
 10
-8.538635549786347
 20
16.29588568622919
 30
0.0
 11
-10.32691041284547
 21
13.05673872844063
 31
0.0
  0
LINE
  5
213
330
350
100
AcDbEntity
  8
0
 62
     1
420
 16711680
100
AcDbLine
 10
-4.161409931153159
 20
13.8792980334466
 30
0.0
 11
-5.949684794212281
 21
10.64015107565803
 31
0.0
  0
LINE
  5
214
330
350
100
AcDbEntity
  8
0
 62
     1
420
 16711680
100
AcDbLine
 10
-10.32691041284547
 20
13.05673872844063
 30
0.0
 11
-5.949684794212281
 21
10.64015107565803
 31
0.0
  0
LINE
  5
215
330
350
100
AcDbEntity
  8
0
 62
     1
420
 16711680
100
AcDbLine
 10
-20.04799671122489
 20
16.13902378655255
 30
0.0
 11
-24.42522232985808
 21
18.55561143933516
 31
0.0
  0
LINE
  5
216
330
350
100
AcDbEntity
  8
0
 62
     1
420
 16711680
100
AcDbLine
 10
-11.29354547395851
 20
11.30584848098735
 30
0.0
 11
-6.91631985532532
 21
8.889260828204756
 31
0.0
  0
LINE
  5
217
330
350
100
AcDbEntity
  8
0
 62
     1
420
 16711680
100
AcDbLine
 10
-21.83627157428401
 20
12.899876828764
 30
0.0
 11
-26.2134971929172
 21
15.3164644815466
 31
0.0
  0
LINE
  5
218
330
350
100
AcDbEntity
  8
0
 62
     1
420
 16711680
100
AcDbLine
 10
-13.08182033701763
 20
8.066701523198793
 30
0.0
 11
-8.704594718384442
 21
5.650113870416197
 31
0.0
  0
LINE
  5
219
330
350
100
AcDbEntity
  8
0
 62
     1
420
 16711680
100
AcDbLine
 10
-24.42522232985808
 20
18.55561143933516
 30
0.0
 11
-26.2134971929172
 21
15.3164644815466
 31
0.0
  0
LINE
  5
21A
330
350
100
AcDbEntity
  8
0
 62
     1
420
 16711680
100
AcDbLine
 10
-21.83627157428401
 20
12.89987682876399
 30
0.0
 11
-20.04799671122488
 21
16.13902378655255
 31
0.0
  0
LINE
  5
21B
330
350
100
AcDbEntity
  8
0
 62
     1
420
 16711680
100
AcDbLine
 10
-6.91631985532532
 20
8.889260828204756
 30
0.0
 11
-8.704594718384442
 21
5.650113870416197
 31
0.0
  0
LINE
  5
21C
330
350
100
AcDbEntity
  8
0
 62
     1
420
 16711680
100
AcDbLine
 10
-13.08182033701764
 20
8.066701523198796
 30
0.0
 11
-11.29354547395852
 21
11.30584848098735
 31
0.0
  0
LINE
  5
21D
330
350
100
AcDbEntity
  8
0
 62
     1
420
 16711680
100
AcDbLine
 10
17.23999999999999
 20
-13.2
 30
0.0
 11
18.32253175473055
 21
-12.575
 31
0.0
  0
LINE
  5
21E
330
350
100
AcDbEntity
  8
0
 62
     1
420
 16711680
100
AcDbLine
 10
18.32253175473055
 20
-12.575
 30
0.0
 11
16.47253175473055
 21
-9.370706005997583
 31
0.0
  0
LINE
  5
21F
330
350
100
AcDbEntity
  8
0
 62
     1
420
 16711680
100
AcDbLine
 10
16.47253175473055
 20
-9.370706005997583
 30
0.0
 11
20.80265877365274
 21
-6.870706005997585
 31
0.0
  0
LINE
  5
220
330
350
100
AcDbEntity
  8
0
 62
     1
420
 16711680
100
AcDbLine
 10
20.80265877365274
 20
-6.870706005997585
 30
0.0
 11
22.65265877365273
 21
-10.07500000000001
 31
0.0
  0
LINE
  5
221
330
350
100
AcDbEntity
  8
0
 62
     1
420
 16711680
100
AcDbLine
 10
22.65265877365273
 20
-10.07500000000001
 30
0.0
 11
31.31291281149712
 21
-5.075000000000003
 31
0.0
  0
LINE
  5
222
330
350
100
AcDbEntity
  8
0
 62
     1
420
 16711680
100
AcDbLine
 10
31.31291281149712
 20
-5.075000000000003
 30
0.0
 11
29.46291281149712
 21
-1.870706005997584
 31
0.0
  0
LINE
  5
223
330
350
100
AcDbEntity
  8
0
 62
     1
420
 16711680
100
AcDbLine
 10
29.46291281149712
 20
-1.870706005997584
 30
0.0
 11
33.79303983041931
 21
0.6292939940024137
 31
0.0
  0
LINE
  5
224
330
350
100
AcDbEntity
  8
0
 62
     1
420
 16711680
100
AcDbLine
 10
33.79303983041931
 20
0.6292939940024137
 30
0.0
 11
35.6430398304193
 21
-2.575000000000007
 31
0.0
  0
LINE
  5
225
330
350
100
AcDbEntity
  8
0
 62
     1
420
 16711680
100
AcDbLine
 10
35.6430398304193
 20
-2.575000000000007
 30
0.0
 11
36.72557158514986
 21
-1.950000000000003
 31
0.0
  0
LINE
  5
226
330
350
100
AcDbEntity
  8
0
 62
     1
420
 16711680
100
AcDbLine
 10
15.47253175473055
 20
-7.638655198428705
 30
0.0
 11
19.80265877365274
 21
-5.138655198428707
 31
0.0
  0
LINE
  5
227
330
350
100
AcDbEntity
  8
0
 62
     1
420
 16711680
100
AcDbLine
 10
28.46291281149712
 20
-0.1386551984287065
 30
0.0
 11
32.79303983041931
 21
2.361344801571291
 31
0.0
  0
LINE
  5
228
330
350
100
AcDbEntity
  8
0
 62
     1
420
 16711680
100
AcDbLine
 10
26.61291281149712
 20
3.065638795573716
 30
0.0
 11
30.94303983041931
 21
5.565638795573713
 31
0.0
  0
LINE
  5
229
330
350
100
AcDbEntity
  8
0
 62
     1
420
 16711680
100
AcDbLine
 10
13.62253175473055
 20
-4.434361204426281
 30
0.0
 11
17.95265877365274
 21
-1.934361204426283
 31
0.0
  0
LINE
  5
22A
330
350
100
AcDbEntity
  8
0
 62
     1
420
 16711680
100
AcDbLine
 10
15.47253175473055
 20
-7.638655198428706
 30
0.0
 11
13.62253175473055
 21
-4.434361204426281
 31
0.0
  0
LINE
  5
22B
330
350
100
AcDbEntity
  8
0
 62
     1
420
 16711680
100
AcDbLine
 10
19.80265877365274
 20
-5.13865519842871
 30
0.0
 11
17.95265877365274
 21
-1.934361204426286
 31
0.0
  0
LINE
  5
22C
330
350
100
AcDbEntity
  8
0
 62
     1
420
 16711680
100
AcDbLine
 10
26.61291281149712
 20
3.065638795573717
 30
0.0
 11
28.46291281149712
 21
-0.1386551984287067
 31
0.0
  0
LINE
  5
22D
330
350
100
AcDbEntity
  8
0
 62
     1
420
 16711680
100
AcDbLine
 10
30.94303983041932
 20
5.565638795573719
 30
0.0
 11
32.79303983041931
 21
2.361344801571291
 31
0.0
  0
LINE
  5
22E
330
350
100
AcDbEntity
  8
0
 62
     1
420
 16711680
100
AcDbLine
 10
16.2383064020025
 20
21.03498420534813
 30
0.0
 11
7.578052364158115
 21
16.03498420534813
 31
0.0
  0
LINE
  5
22F
330
350
100
AcDbEntity
  8
0
 62
     1
420
 16711680
100
AcDbLine
 10
7.578052364158111
 20
16.03498420534813
 30
0.0
 11
9.428052364158113
 21
12.8306902113457
 31
0.0
  0
LINE
  5
230
330
350
100
AcDbEntity
  8
0
 62
     1
420
 16711680
100
AcDbLine
 10
9.428052364158113
 20
12.8306902113457
 30
0.0
 11
5.097925345235918
 21
10.33069021134571
 31
0.0
  0
LINE
  5
231
330
350
100
AcDbEntity
  8
0
 62
     1
420
 16711680
100
AcDbLine
 10
16.2383064020025
 20
21.03498420534812
 30
0.0
 11
18.0883064020025
 21
17.83069021134569
 31
0.0
  0
LINE
  5
232
330
350
100
AcDbEntity
  8
0
 62
     1
420
 16711680
100
AcDbLine
 10
18.0883064020025
 20
17.83069021134569
 30
0.0
 11
22.41843342092469
 21
20.3306902113457
 31
0.0
  0
LINE
  5
233
330
350
100
AcDbEntity
  8
0
 62
     1
420
 16711680
100
AcDbLine
 10
21.54073813723004
 20
24.09634459504134
 30
0.0
 11
20.5684334209247
 21
23.53498420534811
 31
0.0
  0
LINE
  5
234
330
350
100
AcDbEntity
  8
0
 62
     1
420
 16711680
100
AcDbLine
 10
20.5684334209247
 20
23.53498420534811
 30
0.0
 11
22.41843342092469
 21
20.3306902113457
 31
0.0
  0
LINE
  5
235
330
350
100
AcDbEntity
  8
0
 62
     1
420
 16711680
100
AcDbLine
 10
3.247925345235916
 20
13.53498420534813
 30
0.0
 11
5.097925345235917
 21
10.3306902113457
 31
0.0
  0
LINE
  5
236
330
350
100
AcDbEntity
  8
0
 62
     1
420
 16711680
100
AcDbLine
 10
10.42805236415811
 20
11.09863940377682
 30
0.0
 11
6.097925345235914
 21
8.598639403776831
 31
0.0
  0
LINE
  5
237
330
350
100
AcDbEntity
  8
0
 62
     1
420
 16711680
100
AcDbLine
 10
19.08830640200251
 20
16.09863940377682
 30
0.0
 11
23.41843342092469
 21
18.59863940377683
 31
0.0
  0
LINE
  5
238
330
350
100
AcDbEntity
  8
0
 62
     1
420
 16711680
100
AcDbLine
 10
12.2780523641581
 20
7.894345409774393
 30
0.0
 11
7.947925345235905
 21
5.394345409774403
 31
0.0
  0
LINE
  5
239
330
350
100
AcDbEntity
  8
0
 62
     1
420
 16711680
100
AcDbLine
 10
20.93830640200251
 20
12.8943454097744
 30
0.0
 11
25.2684334209247
 21
15.39434540977441
 31
0.0
  0
LINE
  5
23A
330
350
100
AcDbEntity
  8
0
 62
     1
420
 16711680
100
AcDbLine
 10
6.097925345235914
 20
8.598639403776831
 30
0.0
 11
6.097925345235914
 21
8.598639403776831
 31
0.0
  0
LINE
  5
23B
330
350
100
AcDbEntity
  8
0
 62
     1
420
 16711680
100
AcDbLine
 10
6.097925345235914
 20
8.598639403776831
 30
0.0
 11
7.947925345235905
 21
5.394345409774403
 31
0.0
  0
LINE
  5
23C
330
350
100
AcDbEntity
  8
0
 62
     1
420
 16711680
100
AcDbLine
 10
12.2780523641581
 20
7.894345409774393
 30
0.0
 11
10.42805236415811
 21
11.09863940377682
 31
0.0
  0
LINE
  5
23D
330
350
100
AcDbEntity
  8
0
 62
     1
420
 16711680
100
AcDbLine
 10
20.93830640200251
 20
12.8943454097744
 30
0.0
 11
19.08830640200251
 21
16.09863940377682
 31
0.0
  0
LINE
  5
23E
330
350
100
AcDbEntity
  8
0
 62
     1
420
 16711680
100
AcDbLine
 10
25.26843342092469
 20
15.3943454097744
 30
0.0
 11
23.41843342092469
 21
18.59863940377682
 31
0.0
  0
LINE
  5
23F
330
350
100
AcDbEntity
  8
0
 62
     1
420
 16711680
100
AcDbLine
 10
-4.161409931153148
 20
13.8792980334466
 30
0.0
 11
0.0000000000000009
 21
13.8792980334466
 31
0.0
  0
LINE
  5
240
330
350
100
AcDbEntity
  8
0
 62
     1
420
 16711680
100
AcDbLine
 10
-1.246482556660929
 20
13.8792980334466
 30
0.0
 11
2.914927443339071
 21
13.8792980334466
 31
0.0
  0
LINE
  5
241
330
350
100
AcDbEntity
  8
0
 62
     1
420
 16711680
100
AcDbLine
 10
3.247925345235916
 20
13.53498420534813
 30
0.0
 11
2.914927443339073
 21
13.8792980334466
 31
0.0
  0
LINE
  5
242
330
350
100
AcDbEntity
  8
0
 62
     1
420
 16711680
100
AcDbLine
 10
2.5
 20
6.0
 30
0.0
 11
-2.5
 21
6.0
 31
0.0
  0
LINE
  5
243
330
350
100
AcDbEntity
  8
0
 62
     1
420
 16711680
100
AcDbLine
 10
2.5
 20
6.0
 30
0.0
 11
2.5
 21
9.7
 31
0.0
  0
LINE
  5
244
330
350
100
AcDbEntity
  8
0
 62
     1
420
 16711680
100
AcDbLine
 10
-2.5
 20
6.0
 30
0.0
 11
-2.5
 21
9.7
 31
0.0
  0
LINE
  5
245
330
350
100
AcDbEntity
  8
0
 62
     1
420
 16711680
100
AcDbLine
 10
-2.5
 20
9.7
 30
0.0
 11
2.5
 21
9.7
 31
0.0
  0
LINE
  5
26F
330
350
100
AcDbEntity
  8
0
 62
     1
420
 16711680
100
AcDbLine
 10
-24.75705850785485
 20
2.66047581539802
 30
0.0
 11
-20.39565520456386
 21
0.21544795747034
 31
0.0
  0
LINE
  5
270
330
350
100
AcDbEntity
  8
0
 62
     1
420
 16711680
100
AcDbLine
 10
-20.39565520456386
 20
0.21544795747034
 30
0.0
 11
-18.58633458969737
 21
3.442886401905671
 31
0.0
  0
LINE
  5
271
330
350
100
AcDbEntity
  8
0
 62
     1
420
 16711680
100
AcDbLine
 10
-18.58633458969737
 20
3.442886401905671
 30
0.0
 11
-22.94773789298836
 21
5.887914259833351
 31
0.0
  0
LINE
  5
272
330
350
100
AcDbEntity
  8
0
 62
     1
420
 16711680
100
AcDbLine
 10
-22.94773789298836
 20
5.887914259833351
 30
0.0
 11
-24.75705850785485
 21
2.66047581539802
 31
0.0
  0
LINE
  5
273
330
350
100
AcDbEntity
  8
0
 62
     1
420
 16711680
100
AcDbLine
 10
-21.96972674981729
 20
7.632475581149746
 30
0.0
 11
-20.1604061349508
 21
10.85991402558508
 31
0.0
  0
LINE
  5
274
330
350
100
AcDbEntity
  8
0
 62
     1
420
 16711680
100
AcDbLine
 10
-20.1604061349508
 20
10.85991402558508
 30
0.0
 11
-15.79900283165981
 21
8.4148861676574
 31
0.0
  0
LINE
  5
275
330
350
100
AcDbEntity
  8
0
 62
     1
420
 16711680
100
AcDbLine
 10
-15.79900283165981
 20
8.4148861676574
 30
0.0
 11
-17.6083234465263
 21
5.187447723222067
 31
0.0
  0
LINE
  5
276
330
350
100
AcDbEntity
  8
0
 62
     1
420
 16711680
100
AcDbLine
 10
-17.6083234465263
 20
5.187447723222067
 30
0.0
 11
-21.96972674981729
 21
7.632475581149746
 31
0.0
  0
LINE
  5
27D
330
350
100
AcDbEntity
  8
0
 62
     1
420
 16711680
100
AcDbLine
 10
15.29663929056766
 20
8.324899532394928
 30
0.0
 11
17.16990026665712
 21
5.13414831748325
 31
0.0
  0
LINE
  5
27E
330
350
100
AcDbEntity
  8
0
 62
     1
420
 16711680
100
AcDbLine
 10
17.16990026665712
 20
5.13414831748325
 30
0.0
 11
21.48172623275399
 21
7.665582068955496
 31
0.0
  0
LINE
  5
27F
330
350
100
AcDbEntity
  8
0
 62
     1
420
 16711680
100
AcDbLine
 10
21.48172623275399
 20
7.665582068955496
 30
0.0
 11
19.60846525666452
 21
10.85633328386717
 31
0.0
  0
LINE
  5
280
330
350
100
AcDbEntity
  8
0
 62
     1
420
 16711680
100
AcDbLine
 10
19.60846525666452
 20
10.85633328386717
 30
0.0
 11
15.29663929056766
 21
8.32489953239493
 31
0.0
  0
LINE
  5
281
330
350
100
AcDbEntity
  8
0
 62
     1
420
 16711680
100
AcDbLine
 10
20.05573474333548
 20
0.2186667161328263
 30
0.0
 11
18.18247376724602
 21
3.409417931044505
 31
0.0
  0
LINE
  5
282
330
350
100
AcDbEntity
  8
0
 62
     1
420
 16711680
100
AcDbLine
 10
18.18247376724602
 20
3.409417931044505
 30
0.0
 11
22.49429973334288
 21
5.94085168251675
 31
0.0
  0
LINE
  5
283
330
350
100
AcDbEntity
  8
0
 62
     1
420
 16711680
100
AcDbLine
 10
22.49429973334288
 20
5.94085168251675
 30
0.0
 11
24.36756070943235
 21
2.750100467605072
 31
0.0
  0
LINE
  5
284
330
350
100
AcDbEntity
  8
0
 62
     1
420
 16711680
100
AcDbLine
 10
24.36756070943235
 20
2.750100467605072
 30
0.0
 11
20.05573474333548
 21
0.2186667161328263
 31
0.0
  0
LINE
  5
2AC
330
350
100
AcDbEntity
  8
0
 62
     1
420
 16711680
100
AcDbLine
 10
21.54073813723004
 20
24.09634459504134
 30
0.0
 11
25.82766192394759
 21
22.94766682975033
 31
0.0
  0
LINE
  5
2AD
330
350
100
AcDbEntity
  8
0
 62
     1
420
 16711680
100
AcDbLine
 10
36.72557158514986
 20
-1.950000000000003
 30
0.0
 11
37.82766192394756
 21
2.163057138923784
 31
0.0
  0
CIRCLE
  5
2AF
330
350
100
AcDbEntity
  8
0
 62
     1
420
 16711680
100
AcDbCircle
 10
41.47515842717964
 20
18.1252037336881
 30
0.0
 40
4.2
  0
LINE
  5
2BF
330
350
100
AcDbEntity
  8
0
 62
     1
420
 16711680
100
AcDbLine
 10
37.82766192394756
 20
2.163057138923784
 30
0.0
 11
56.9149855256527
 21
13.18314299799677
 31
0.0
  0
LINE
  5
2C0
330
350
100
AcDbEntity
  8
0
 62
     1
420
 16711680
100
AcDbLine
 10
25.82766192394759
 20
22.94766682975033
 30
0.0
 11
44.91472561524787
 21
33.96760262731431
 31
0.0
  0
LINE
  5
2CC
330
350
100
AcDbEntity
  8
0
 62
     1
420
 16711680
100
AcDbLine
 10
34.97766192394757
 20
7.099401940495089
 30
0.0
 11
36.82766192394756
 21
3.895107946492663
 31
0.0
  0
LINE
  5
2CD
330
350
100
AcDbEntity
  8
0
 62
     1
420
 16711680
100
AcDbLine
 10
36.82766192394756
 20
3.895107946492663
 30
0.0
 11
41.15778894286976
 21
6.395107946492656
 31
0.0
  0
LINE
  5
2CE
330
350
100
AcDbEntity
  8
0
 62
     1
420
 16711680
100
AcDbLine
 10
41.15778894286976
 20
6.395107946492656
 30
0.0
 11
39.30778894286976
 21
9.599401940495085
 31
0.0
  0
LINE
  5
2CF
330
350
100
AcDbEntity
  8
0
 62
     1
420
 16711680
100
AcDbLine
 10
39.30778894286976
 20
9.599401940495085
 30
0.0
 11
34.97766192394757
 21
7.099401940495089
 31
0.0
  0
LINE
  5
2D0
330
350
100
AcDbEntity
  8
0
 62
     1
420
 16711680
100
AcDbLine
 10
47.96804298071416
 20
14.59940194049507
 30
0.0
 11
49.81804298071415
 21
11.39510794649264
 31
0.0
  0
LINE
  5
2D1
330
350
100
AcDbEntity
  8
0
 62
     1
420
 16711680
100
AcDbLine
 10
49.81804298071415
 20
11.39510794649264
 30
0.0
 11
54.14817650309137
 21
13.89509668217811
 31
0.0
  0
LINE
  5
2D2
330
350
100
AcDbEntity
  8
0
 62
     1
420
 16711680
100
AcDbLine
 10
54.14817650309137
 20
13.89509668217811
 30
0.0
 11
52.29816999963636
 21
17.09940194049507
 31
0.0
  0
LINE
  5
2D3
330
350
100
AcDbEntity
  8
0
 62
     1
420
 16711680
100
AcDbLine
 10
52.29816999963636
 20
17.09940194049507
 30
0.0
 11
47.96804298071416
 21
14.59940194049507
 31
0.0
  0
LINE
  5
2D4
330
350
100
AcDbEntity
  8
0
 62
     1
420
 16711680
100
AcDbLine
 10
26.82766192394759
 20
21.21561602218145
 30
0.0
 11
28.67766192394759
 21
18.01132202817903
 31
0.0
  0
LINE
  5
2D5
330
350
100
AcDbEntity
  8
0
 62
     1
420
 16711680
100
AcDbLine
 10
28.67766192394759
 20
18.01132202817903
 30
0.0
 11
33.00778894286979
 21
20.51132202817902
 31
0.0
  0
LINE
  5
2D6
330
350
100
AcDbEntity
  8
0
 62
     1
420
 16711680
100
AcDbLine
 10
33.00778894286979
 20
20.51132202817902
 30
0.0
 11
31.15778894286979
 21
23.71561602218145
 31
0.0
  0
LINE
  5
2D7
330
350
100
AcDbEntity
  8
0
 62
     1
420
 16711680
100
AcDbLine
 10
31.15778894286979
 20
23.71561602218145
 30
0.0
 11
26.82766192394759
 21
21.21561602218145
 31
0.0
  0
LINE
  5
2D9
330
350
100
AcDbEntity
  8
0
 62
     1
420
 16711680
100
AcDbLine
 10
39.81804298071419
 20
28.71561602218143
 30
0.0
 11
41.66804298071418
 21
25.51132202817901
 31
0.0
  0
LINE
  5
2DA
330
350
100
AcDbEntity
  8
0
 62
     1
420
 16711680
100
AcDbLine
 10
41.66804298071418
 20
25.51132202817901
 30
0.0
 11
45.99816999963637
 21
28.01132202817899
 31
0.0
  0
LINE
  5
2DB
330
350
100
AcDbEntity
  8
0
 62
     1
420
 16711680
100
AcDbLine
 10
45.99816999963637
 20
28.01132202817899
 30
0.0
 11
44.14817650230953
 21
31.21560475922114
 31
0.0
  0
LINE
  5
2DC
330
350
100
AcDbEntity
  8
0
 62
     1
420
 16711680
100
AcDbLine
 10
44.14817650230953
 20
31.21560475922114
 30
0.0
 11
39.81804298071419
 21
28.71561602218143
 31
0.0
  0
LINE
  5
2DD
330
350
100
AcDbEntity
  8
0
 62
     1
420
 16711680
100
AcDbLine
 10
56.9149855256527
 20
13.18314299799677
 30
0.0
 11
44.91472561524787
 21
33.96760262731431
 31
0.0
  0
ENDBLK
  5
352
330
350
100
AcDbEntity
  8
0
100
AcDbBlockEnd
  0
BLOCK
  5
354
330
353
100
AcDbEntity
  8
0
100
AcDbBlockBegin
  2
middle segment
 70
     0
 10
0.0
 20
0.0
 30
0.0
  3
middle segment
  1

  0
LINE
  5
285
330
353
100
AcDbEntity
  8
0
 62
     1
420
 16711680
100
AcDbLine
 10
-12.80434949423949
 20
22.18449480219851
 30
0.0
 11
-7.804349494239489
 21
22.18449480219851
 31
0.0
  0
LINE
  5
286
330
353
100
AcDbEntity
  8
0
 62
     1
420
 16711680
100
AcDbLine
 10
-7.804349494239489
 20
22.18449480219851
 30
0.0
 11
-7.804349494239489
 21
18.4844948021985
 31
0.0
  0
LINE
  5
287
330
353
100
AcDbEntity
  8
0
 62
     1
420
 16711680
100
AcDbLine
 10
-12.80434949423949
 20
22.18449480219851
 30
0.0
 11
-12.80434949423949
 21
18.4844948021985
 31
0.0
  0
LINE
  5
288
330
353
100
AcDbEntity
  8
0
 62
     1
420
 16711680
100
AcDbLine
 10
-7.804349494239489
 20
18.4844948021985
 30
0.0
 11
-2.804349494239489
 21
18.4844948021985
 31
0.0
  0
LINE
  5
289
330
353
100
AcDbEntity
  8
0
 62
     1
420
 16711680
100
AcDbLine
 10
-12.80434949423949
 20
18.4844948021985
 30
0.0
 11
-17.80434949423949
 21
18.4844948021985
 31
0.0
  0
LINE
  5
28A
330
353
100
AcDbEntity
  8
0
 62
     1
420
 16711680
100
AcDbLine
 10
-2.804349494239489
 20
18.4844948021985
 30
0.0
 11
-2.804349494239489
 21
5.684494802198508
 31
0.0
  0
LINE
  5
28B
330
353
100
AcDbEntity
  8
0
 62
     1
420
 16711680
100
AcDbLine
 10
-17.80434949423949
 20
18.4844948021985
 30
0.0
 11
-17.80434949423949
 21
5.684494802198508
 31
0.0
  0
LINE
  5
28C
330
353
100
AcDbEntity
  8
0
 62
     1
420
 16711680
100
AcDbLine
 10
-17.80434949423949
 20
5.684494802198508
 30
0.0
 11
-12.80434949423949
 21
5.684494802198508
 31
0.0
  0
LINE
  5
28D
330
353
100
AcDbEntity
  8
0
 62
     1
420
 16711680
100
AcDbLine
 10
-12.80434949423949
 20
5.684494802198508
 30
0.0
 11
-12.80434949423949
 21
1.984494802198505
 31
0.0
  0
LINE
  5
28E
330
353
100
AcDbEntity
  8
0
 62
     1
420
 16711680
100
AcDbLine
 10
-12.80434949423949
 20
1.984494802198505
 30
0.0
 11
-7.804349494239489
 21
1.984494802198505
 31
0.0
  0
LINE
  5
28F
330
353
100
AcDbEntity
  8
0
 62
     1
420
 16711680
100
AcDbLine
 10
-7.804349494239489
 20
1.984494802198505
 30
0.0
 11
-7.804349494239489
 21
5.684494802198508
 31
0.0
  0
LINE
  5
290
330
353
100
AcDbEntity
  8
0
 62
     1
420
 16711680
100
AcDbLine
 10
-7.804349494239489
 20
5.684494802198508
 30
0.0
 11
-2.804349494239489
 21
5.684494802198508
 31
0.0
  0
CIRCLE
  5
291
330
353
100
AcDbEntity
  8
0
 62
     1
420
 16711680
100
AcDbCircle
 10
-10.30434949423949
 20
12.08449480219851
 30
0.0
 40
4.2
  0
ENDBLK
  5
355
330
353
100
AcDbEntity
  8
0
100
AcDbBlockEnd
  0
ENDSEC
  0
SECTION
  2
ENTITIES
  0
LINE
  5
292
330
300
100
AcDbEntity
  8
0
 62
     1
420
 16711680
100
AcDbLine
 10
20.0
 20
50.0
 30
0.0
 11
20.0
 21
50.0
 31
0.0
  0
INSERT
  5
293
330
300
100
AcDbEntity
  8
0
 62
     1
420
 16711680
100
AcDbBlockReference
  2
partition
 10
82.59926866871199
 20
107.9573176411804
 30
0.0
  0
INSERT
  5
294
330
300
100
AcDbEntity
  8
0
 62
     1
420
 16711680
100
AcDbBlockReference
  2
partition
 10
111.349268668712
 20
107.9573176411804
 30
0.0
  0
INSERT
  5
295
330
300
100
AcDbEntity
  8
0
 62
     1
420
 16711680
100
AcDbBlockReference
  2
partition
 10
111.349268668712
 20
85.9573176411804
 30
0.0
  0
INSERT
  5
296
330
300
100
AcDbEntity
  8
0
 62
     1
420
 16711680
100
AcDbBlockReference
  2
partition
 10
83.34926866871199
 20
85.9573176411804
 30
0.0
  0
INSERT
  5
297
330
300
100
AcDbEntity
  8
0
 62
     1
420
 16711680
100
AcDbBlockReference
  2
vertex
 10
17.24
 20
113.2
 30
0.0
  0
INSERT
  5
298
330
300
100
AcDbEntity
  8
0
 62
     1
420
 16711680
100
AcDbBlockReference
  2
vertex
 10
20.44591730555624
 20
74.55182770247933
 30
0.0
  0
INSERT
  5
299
330
300
100
AcDbEntity
  8
0
 62
     1
420
 16711680
100
AcDbBlockReference
  2
partition
 10
106.9214161058407
 20
61.66221452522811
 30
0.0
 50
90.0
  0
INSERT
  5
29A
330
300
100
AcDbEntity
  8
0
 62
     1
420
 16711680
100
AcDbBlockReference
  2
outer endings
 10
137.0221474371287
 20
45.70489688404768
 30
0.0
 50
360.0
  0
INSERT
  5
29B
330
300
100
AcDbEntity
  8
0
 62
     1
420
 16711680
100
AcDbBlockReference
  2
outer endings
 10
136.4913351965298
 20
14.81162448119761
 30
0.0
 50
360.0
  0
INSERT
  5
29C
330
300
100
AcDbEntity
  8
0
 62
     1
420
 16711680
100
AcDbBlockReference
  2
outer endings
 10
111.8616472327456
 20
21.07520892026344
 30
0.0
 50
360.0
  0
INSERT
  5
29D
330
300
100
AcDbEntity
  8
0
 62
     1
420
 16711680
100
AcDbBlockReference
  2
outer endings
 10
60.93409143033314
 20
21.15570767010102
 30
0.0
 50
360.0
  0
INSERT
  5
29E
330
300
100
AcDbEntity
  8
0
 62
     1
420
 16711680
100
AcDbBlockReference
  2
outer endings
 10
37.68451529210575
 20
21.15570767010102
 30
0.0
 50
360.0
  0
INSERT
  5
29F
330
300
100
AcDbEntity
  8
0
 62
     1
420
 16711680
100
AcDbBlockReference
  2
middle segment
 10
-7.195650505760511
 20
40.81550519780149
 30
0.0
  0
INSERT
  5
2A0
330
300
100
AcDbEntity
  8
0
 62
     1
420
 16711680
100
AcDbBlockReference
  2
middle segment
 10
-17.91550519780149
 20
80.30434949423947
 30
0.0
 50
90.0
  0
INSERT
  5
2A1
330
300
100
AcDbEntity
  8
0
 62
     1
420
 16711680
100
AcDbBlockReference
  2
middle segment
 10
-19.63799612524739
 20
96.99210489926895
 30
0.0
 50
90.0
  0
INSERT
  5
2A2
330
300
100
AcDbEntity
  8
0
 62
     1
420
 16711680
100
AcDbBlockReference
  2
middle segment
 10
-19.01587271007905
 20
113.6339062550221
 30
0.0
 50
90.0
  0
INSERT
  5
2A3
330
300
100
AcDbEntity
  8
0
 62
     1
420
 16711680
100
AcDbBlockReference
  2
middle segment
 10
11.62370548696173
 20
48.62200936993047
 30
0.0
 50
90.0
  0
INSERT
  5
2DE
330
300
100
AcDbEntity
  8
0
 62
     1
420
 16711680
100
AcDbBlockReference
  2
partition
 10
84.18597839673401
 20
54.89532878633143
 30
0.0
 50
90.0
  0
INSERT
  5
2DF
330
300
100
AcDbEntity
  8
0
 62
     1
420
 16711680
100
AcDbBlockReference
  2
partition
 10
83.04033628924037
 20
31.6551603200315
 30
0.0
 50
90.0
  0
INSERT
  5
2E0
330
300
100
AcDbEntity
  8
0
 62
     1
420
 16711680
100
AcDbBlockReference
  2
partition
 10
-37.08842183938043
 20
58.16859195059902
 30
0.0
 50
90.0
  0
INSERT
  5
2E1
330
300
100
AcDbEntity
  8
0
 62
     1
420
 16711680
100
AcDbBlockReference
  2
partition
 10
-27.10496918836426
 20
33.78278137680543
 30
0.0
 50
90.0
  0
ENDSEC
  0
SECTION
  2
OBJECTS
  0
DICTIONARY
  5
2EE
330
0
100
AcDbDictionary
281
     1
  3
ACAD_GROUP
350
2EF
  3
ACAD_LAYOUT
350
2FB
  3
ACAD_MATERIAL
350
31C
  3
ACAD_MLEADERSTYLE
350
357
  3
ACAD_MLINESTYLE
350
2F8
  3
ACAD_PLOTSETTINGS
350
2FA
  3
ACAD_PLOTSTYLENAME
350
2F0
  3
ACAD_TABLESTYLE
350
356
  3
ACAD_VISUALSTYLE
350
30B
  3
QCAD_OBJECTS
350
321
  0
DICTIONARY
  5
2EF
102
{ACAD_REACTORS
330
2EE
102
}
330
2EE
100
AcDbDictionary
281
     1
  0
DICTIONARY
  5
2FB
102
{ACAD_REACTORS
330
2EE
102
}
330
2EE
100
AcDbDictionary
281
     1
  3
Layout1
350
2FF
  3
Layout2
350
307
  3
Model
350
303
  0
DICTIONARY
  5
31C
102
{ACAD_REACTORS
330
2EE
102
}
330
2EE
100
AcDbDictionary
281
     1
  3
ByBlock
350
31E
  3
ByLayer
350
31D
  3
Global
350
31F
  0
DICTIONARY
  5
357
102
{ACAD_REACTORS
330
2EE
102
}
330
2EE
100
AcDbDictionary
281
     1
  0
DICTIONARY
  5
2F8
102
{ACAD_REACTORS
330
2EE
102
}
330
2EE
100
AcDbDictionary
281
     1
  3
Standard
350
2F9
  0
DICTIONARY
  5
2FA
102
{ACAD_REACTORS
330
2EE
102
}
330
2EE
100
AcDbDictionary
281
     1
  0
ACDBDICTIONARYWDFLT
  5
2F0
102
{ACAD_REACTORS
330
2EE
102
}
330
2EE
100
AcDbDictionary
281
     1
  3
Normal
350
2F1
100
AcDbDictionaryWithDefault
340
2F1
  0
DICTIONARY
  5
356
102
{ACAD_REACTORS
330
2EE
102
}
330
2EE
100
AcDbDictionary
281
     1
  0
DICTIONARY
  5
30B
102
{ACAD_REACTORS
330
2EE
102
}
330
2EE
100
AcDbDictionary
281
     1
  3
2dWireframe
350
310
  3
3D Hidden
350
312
  3
3dWireframe
350
311
  3
Basic
350
313
  3
Brighten
350
317
  3
ColorChange
350
31B
  3
Conceptual
350
315
  3
Dim
350
316
  3
Facepattern
350
31A
  3
Flat
350
30C
  3
FlatWithEdges
350
30D
  3
Gouraud
350
30E
  3
GouraudWithEdges
350
30F
  3
Linepattern
350
319
  3
Realistic
350
314
  3
Thicken
350
318
  0
DICTIONARY
  5
321
102
{ACAD_REACTORS
330
2EE
102
}
330
2EE
100
AcDbDictionary
281
     1
  3
Grid/DisplayGrid
350
332
  3
Grid/GridSpacingX
350
32B
  3
Grid/GridSpacingY
350
32D
  3
Grid/MetaGridSpacingX
350
325
  3
Grid/MetaGridSpacingY
350
329
  3
MultiPageSettings/Columns
350
32A
  3
MultiPageSettings/GlueMarginBottom
350
326
  3
MultiPageSettings/GlueMarginsLeft
350
32E
  3
MultiPageSettings/GlueMarginsRight
350
322
  3
MultiPageSettings/GlueMarginsTop
350
336
  3
MultiPageSettings/PrintCropMarks
350
324
  3
MultiPageSettings/Rows
350
32F
  3
PageSettings/OffsetX
350
334
  3
PageSettings/OffsetY
350
335
  3
PageSettings/PageOrientation
350
323
  3
PageSettings/PaperHeight
350
328
  3
PageSettings/PaperWidth
350
330
  3
PageSettings/Scale
350
327
  3
PageSettings/ShowBoundingBox
350
32C
  3
PageSettings/ShowPageBorders
350
333
  3
UnitSettings/PaperUnit
350
331
  0
LAYOUT
  5
2FF
102
{ACAD_REACTORS
330
2FB
102
}
330
2FB
100
AcDbPlotSettings
  1

  2
none_device
  4

  6

 40
0.0
 41
0.0
 42
0.0
 43
0.0
 44
0.0
 45
0.0
 46
0.0
 47
0.0
 48
0.0
 49
0.0
140
0.0
141
0.0
142
1.0
143
1.0
 70
   688
 72
     0
 73
     0
 74
     5
  7

 75
    16
 76
     0
 77
     2
 78
   300
147
1.0
148
0.0
149
0.0
100
AcDbLayout
  1
Layout1
 70
     1
 71
     1
 10
0.0
 20
0.0
 11
210.0
 21
297.0
 12
0.0
 22
0.0
 32
0.0
 14
1.000000000000000E+20
 24
1.000000000000000E+20
 34
1.000000000000000E+20
 15
-1.000000000000000E+20
 25
-1.000000000000000E+20
 35
-1.000000000000000E+20
146
0.0
 13
0.0
 23
0.0
 33
0.0
 16
1.0
 26
0.0
 36
0.0
 17
0.0
 27
1.0
 37
0.0
 76
     0
330
2FC
  0
LAYOUT
  5
307
102
{ACAD_REACTORS
330
2FB
102
}
330
2FB
100
AcDbPlotSettings
  1

  2
none_device
  4

  6

 40
0.0
 41
0.0
 42
0.0
 43
0.0
 44
0.0
 45
0.0
 46
0.0
 47
0.0
 48
0.0
 49
0.0
140
0.0
141
0.0
142
1.0
143
1.0
 70
   688
 72
     0
 73
     0
 74
     5
  7

 75
    16
 76
     0
 77
     2
 78
   300
147
1.0
148
0.0
149
0.0
100
AcDbLayout
  1
Layout2
 70
     1
 71
     2
 10
0.0
 20
0.0
 11
0.0
 21
0.0
 12
0.0
 22
0.0
 32
0.0
 14
0.0
 24
0.0
 34
0.0
 15
0.0
 25
0.0
 35
0.0
146
0.0
 13
0.0
 23
0.0
 33
0.0
 16
1.0
 26
0.0
 36
0.0
 17
0.0
 27
1.0
 37
0.0
 76
     0
330
304
  0
LAYOUT
  5
303
102
{ACAD_REACTORS
330
2FB
102
}
330
2FB
100
AcDbPlotSettings
  1

  2
none_device
  4

  6

 40
0.0
 41
0.0
 42
0.0
 43
0.0
 44
0.0
 45
0.0
 46
0.0
 47
0.0
 48
0.0
 49
0.0
140
0.0
141
0.0
142
1.0
143
1.0
 70
  1712
 72
     0
 73
     0
 74
     0
  7

 75
     0
 76
     0
 77
     2
 78
   300
147
1.0
148
0.0
149
0.0
100
AcDbLayout
  1
Model
 70
     1
 71
     0
 10
0.0
 20
0.0
 11
12.0
 21
9.0
 12
0.0
 22
0.0
 32
0.0
 14
1.000000000000000E+20
 24
1.000000000000000E+20
 34
1.000000000000000E+20
 15
-1.000000000000000E+20
 25
-1.000000000000000E+20
 35
-1.000000000000000E+20
146
0.0
 13
0.0
 23
0.0
 33
0.0
 16
1.0
 26
0.0
 36
0.0
 17
0.0
 27
1.0
 37
0.0
 76
     0
330
300
331
30A
  0
MATERIAL
  5
31E
102
{ACAD_REACTORS
330
31C
102
}
330
31C
100
AcDbMaterial
  1
ByBlock
 72
     1
 94
      127
  0
MATERIAL
  5
31D
102
{ACAD_REACTORS
330
31C
102
}
330
31C
100
AcDbMaterial
  1
ByLayer
 72
     1
 94
      127
  0
MATERIAL
  5
31F
102
{ACAD_REACTORS
330
31C
102
}
330
31C
100
AcDbMaterial
  1
Global
 72
     1
 94
      127
  0
MLINESTYLE
  5
2F9
102
{ACAD_REACTORS
330
2F8
102
}
330
2F8
100
AcDbMlineStyle
  2
Standard
 70
     0
  3

 62
   256
 51
90.0
 52
90.0
 71
     2
 49
0.5
 62
   256
  6
BYLAYER
 49
-0.5
 62
   256
  6
BYLAYER
  0
ACDBPLACEHOLDER
  5
2F1
102
{ACAD_REACTORS
330
2F0
102
}
330
2F0
  0
VISUALSTYLE
  5
310
102
{ACAD_REACTORS
330
30B
102
}
330
30B
100
AcDbVisualStyle
  2
2dWireframe
 70
     4
177
     2
291
     0
 71
     0
176
     1
 72
     2
176
     1
 73
     0
176
     1
 90
        0
176
     1
 40
-0.6
176
     1
 41
-30.0
176
     1
 62
     5
 63
     7
421
 16777215
176
     1
 74
     1
176
     1
 91
        4
176
     1
 64
     7
176
     1
 65
   257
176
     1
 75
     1
176
     1
175
     1
176
     1
 42
1.0
176
     1
 92
        0
176
     1
 66
   257
176
     1
 43
1.0
176
     1
 76
     1
176
     1
 77
     6
176
     1
 78
     2
176
     1
 67
     7
176
     1
 79
     5
176
     1
170
     0
176
     1
171
     0
176
     1
290
     0
176
     1
 93
        1
176
     1
 44
0.0
176
     1
173
     0
176
     1
  0
VISUALSTYLE
  5
312
102
{ACAD_REACTORS
330
30B
102
}
330
30B
100
AcDbVisualStyle
  2
3D Hidden
 70
     6
177
     2
291
     0
 71
     1
176
     1
 72
     2
176
     1
 73
     2
176
     1
 90
        0
176
     1
 40
-0.6
176
     1
 41
-30.0
176
     1
 62
     5
 63
     7
421
 16777215
176
     1
 74
     2
176
     1
 91
        2
176
     1
 64
     7
176
     1
 65
   257
176
     1
 75
     2
176
     1
175
     1
176
     1
 42
40.0
176
     1
 92
        0
176
     1
 66
   257
176
     1
 43
1.0
176
     1
 76
     1
176
     1
 77
     6
176
     1
 78
     2
176
     1
 67
     7
176
     1
 79
     3
176
     1
170
     0
176
     1
171
     0
176
     1
290
     0
176
     1
 93
        1
176
     1
 44
0.0
176
     1
173
     0
176
     1
  0
VISUALSTYLE
  5
311
102
{ACAD_REACTORS
330
30B
102
}
330
30B
100
AcDbVisualStyle
  2
3dWireframe
 70
     5
177
     2
291
     0
 71
     0
176
     1
 72
     2
176
     1
 73
     0
176
     1
 90
        0
176
     1
 40
-0.6
176
     1
 41
-30.0
176
     1
 62
     5
 63
     7
421
 16777215
176
     1
 74
     1
176
     1
 91
        4
176
     1
 64
     7
176
     1
 65
   257
176
     1
 75
     1
176
     1
175
     1
176
     1
 42
1.0
176
     1
 92
        0
176
     1
 66
   257
176
     1
 43
1.0
176
     1
 76
     1
176
     1
 77
     6
176
     1
 78
     2
176
     1
 67
     7
176
     1
 79
     5
176
     1
170
     0
176
     1
171
     0
176
     1
290
     0
176
     1
 93
        1
176
     1
 44
0.0
176
     1
173
     0
176
     1
  0
VISUALSTYLE
  5
313
102
{ACAD_REACTORS
330
30B
102
}
330
30B
100
AcDbVisualStyle
  2
Basic
 70
     7
177
     2
291
     1
 71
     1
176
     1
 72
     0
176
     1
 73
     1
176
     1
 90
        0
176
     1
 40
-0.6
176
     1
 41
-30.0
176
     1
 62
     5
 63
     7
421
 16777215
176
     1
 74
     0
176
     1
 91
        4
176
     1
 64
     7
176
     1
 65
   257
176
     1
 75
     1
176
     1
175
     1
176
     1
 42
1.0
176
     1
 92
        8
176
     1
 66
     7
176
     1
 43
1.0
176
     1
 76
     1
176
     1
 77
     6
176
     1
 78
     2
176
     1
 67
     7
176
     1
 79
     5
176
     1
170
     0
176
     1
171
     0
176
     1
290
     0
176
     1
 93
        1
176
     1
 44
0.0
176
     1
173
     0
176
     1
  0
VISUALSTYLE
  5
317
102
{ACAD_REACTORS
330
30B
102
}
330
30B
100
AcDbVisualStyle
  2
Brighten
 70
    12
177
     2
291
     1
 71
     2
176
     1
 72
     2
176
     1
 73
     0
176
     1
 90
        0
176
     1
 40
-0.6
176
     1
 41
-30.0
176
     1
 62
     5
 63
     7
421
 16777215
176
     1
 74
     1
176
     1
 91
        4
176
     1
 64
     7
176
     1
 65
   257
176
     1
 75
     1
176
     1
175
     1
176
     1
 42
1.0
176
     1
 92
        8
176
     1
 66
     7
176
     1
 43
1.0
176
     1
 76
     1
176
     1
 77
     6
176
     1
 78
     2
176
     1
 67
     7
176
     1
 79
     5
176
     1
170
     0
176
     1
171
     0
176
     1
290
     0
176
     1
 93
        1
176
     1
 44
50.0
176
     1
173
     0
176
     1
  0
VISUALSTYLE
  5
31B
102
{ACAD_REACTORS
330
30B
102
}
330
30B
100
AcDbVisualStyle
  2
ColorChange
 70
    16
177
     2
291
     1
 71
     2
176
     1
 72
     2
176
     1
 73
     3
176
     1
 90
        0
176
     1
 40
-0.6
176
     1
 41
-30.0
176
     1
 62
     5
 63
     8
421
  8421504
176
     1
 74
     1
176
     1
 91
        4
176
     1
 64
     7
176
     1
 65
   257
176
     1
 75
     1
176
     1
175
     1
176
     1
 42
1.0
176
     1
 92
        8
176
     1
 66
     8
424
  8421504
176
     1
 43
1.0
176
     1
 76
     1
176
     1
 77
     6
176
     1
 78
     2
176
     1
 67
     7
176
     1
 79
     5
176
     1
170
     0
176
     1
171
     0
176
     1
290
     0
176
     1
 93
        1
176
     1
 44
0.0
176
     1
173
     0
176
     1
  0
VISUALSTYLE
  5
315
102
{ACAD_REACTORS
330
30B
102
}
330
30B
100
AcDbVisualStyle
  2
Conceptual
 70
     9
177
     2
291
     0
 71
     3
176
     1
 72
     2
176
     1
 73
     0
176
     1
 90
        0
176
     1
 40
-0.6
176
     1
 41
-30.0
176
     1
 62
     5
 63
     7
421
 16777215
176
     1
 74
     2
176
     1
 91
        2
176
     1
 64
     7
176
     1
 65
   257
176
     1
 75
     1
176
     1
175
     1
176
     1
 42
40.0
176
     1
 92
        8
176
     1
 66
     7
176
     1
 43
1.0
176
     1
 76
     1
176
     1
 77
     6
176
     1
 78
     2
176
     1
 67
     7
176
     1
 79
     3
176
     1
170
     0
176
     1
171
     0
176
     1
290
     0
176
     1
 93
        1
176
     1
 44
0.0
176
     1
173
     0
176
     1
  0
VISUALSTYLE
  5
316
102
{ACAD_REACTORS
330
30B
102
}
330
30B
100
AcDbVisualStyle
  2
Dim
 70
    11
177
     2
291
     1
 71
     2
176
     1
 72
     2
176
     1
 73
     0
176
     1
 90
        0
176
     1
 40
-0.6
176
     1
 41
-30.0
176
     1
 62
     5
 63
     7
421
 16777215
176
     1
 74
     1
176
     1
 91
        4
176
     1
 64
     7
176
     1
 65
   257
176
     1
 75
     1
176
     1
175
     1
176
     1
 42
1.0
176
     1
 92
        8
176
     1
 66
     7
176
     1
 43
1.0
176
     1
 76
     1
176
     1
 77
     6
176
     1
 78
     2
176
     1
 67
     7
176
     1
 79
     5
176
     1
170
     0
176
     1
171
     0
176
     1
290
     0
176
     1
 93
        1
176
     1
 44
-50.0
176
     1
173
     0
176
     1
  0
VISUALSTYLE
  5
31A
102
{ACAD_REACTORS
330
30B
102
}
330
30B
100
AcDbVisualStyle
  2
Facepattern
 70
    15
177
     2
291
     1
 71
     2
176
     1
 72
     2
176
     1
 73
     0
176
     1
 90
        0
176
     1
 40
-0.6
176
     1
 41
-30.0
176
     1
 62
     5
 63
     7
421
 16777215
176
     1
 74
     1
176
     1
 91
        4
176
     1
 64
     7
176
     1
 65
   257
176
     1
 75
     1
176
     1
175
     1
176
     1
 42
1.0
176
     1
 92
        8
176
     1
 66
     7
176
     1
 43
1.0
176
     1
 76
     1
176
     1
 77
     6
176
     1
 78
     2
176
     1
 67
     7
176
     1
 79
     5
176
     1
170
     0
176
     1
171
     0
176
     1
290
     0
176
     1
 93
        1
176
     1
 44
0.0
176
     1
173
     0
176
     1
  0
VISUALSTYLE
  5
30C
102
{ACAD_REACTORS
330
30B
102
}
330
30B
100
AcDbVisualStyle
  2
Flat
 70
     0
177
     2
291
     1
 71
     2
176
     1
 72
     1
176
     1
 73
     1
176
     1
 90
        2
176
     1
 40
-0.6
176
     1
 41
30.0
176
     1
 62
     5
 63
     7
421
 16777215
176
     1
 74
     0
176
     1
 91
        4
176
     1
 64
     7
176
     1
 65
   257
176
     1
 75
     1
176
     1
175
     1
176
     1
 42
1.0
176
     1
 92
        8
176
     1
 66
     7
176
     1
 43
1.0
176
     1
 76
     1
176
     1
 77
     6
176
     1
 78
     2
176
     1
 67
     7
176
     1
 79
     5
176
     1
170
     0
176
     1
171
     0
176
     1
290
     0
176
     1
 93
       13
176
     1
 44
0.0
176
     1
173
     0
176
     1
  0
VISUALSTYLE
  5
30D
102
{ACAD_REACTORS
330
30B
102
}
330
30B
100
AcDbVisualStyle
  2
FlatWithEdges
 70
     1
177
     2
291
     1
 71
     2
176
     1
 72
     1
176
     1
 73
     1
176
     1
 90
        2
176
     1
 40
-0.6
176
     1
 41
30.0
176
     1
 62
     5
 63
     7
421
 16777215
176
     1
 74
     1
176
     1
 91
        4
176
     1
 64
     7
176
     1
 65
   257
176
     1
 75
     1
176
     1
175
     1
176
     1
 42
1.0
176
     1
 92
        0
176
     1
 66
   257
176
     1
 43
1.0
176
     1
 76
     1
176
     1
 77
     6
176
     1
 78
     2
176
     1
 67
     7
176
     1
 79
     5
176
     1
170
     0
176
     1
171
     0
176
     1
290
     0
176
     1
 93
       13
176
     1
 44
0.0
176
     1
173
     0
176
     1
  0
VISUALSTYLE
  5
30E
102
{ACAD_REACTORS
330
30B
102
}
330
30B
100
AcDbVisualStyle
  2
Gouraud
 70
     2
177
     2
291
     1
 71
     2
176
     1
 72
     2
176
     1
 73
     1
176
     1
 90
        2
176
     1
 40
-0.6
176
     1
 41
30.0
176
     1
 62
     5
 63
     7
421
 16777215
176
     1
 74
     0
176
     1
 91
        4
176
     1
 64
     7
176
     1
 65
   257
176
     1
 75
     1
176
     1
175
     1
176
     1
 42
1.0
176
     1
 92
        0
176
     1
 66
     7
176
     1
 43
1.0
176
     1
 76
     1
176
     1
 77
     6
176
     1
 78
     2
176
     1
 67
     7
176
     1
 79
     5
176
     1
170
     0
176
     1
171
     0
176
     1
290
     0
176
     1
 93
       13
176
     1
 44
0.0
176
     1
173
     0
176
     1
  0
VISUALSTYLE
  5
30F
102
{ACAD_REACTORS
330
30B
102
}
330
30B
100
AcDbVisualStyle
  2
GouraudWithEdges
 70
     3
177
     2
291
     1
 71
     2
176
     1
 72
     2
176
     1
 73
     1
176
     1
 90
        2
176
     1
 40
-0.6
176
     1
 41
30.0
176
     1
 62
     5
 63
     7
421
 16777215
176
     1
 74
     1
176
     1
 91
        4
176
     1
 64
     7
176
     1
 65
   257
176
     1
 75
     1
176
     1
175
     1
176
     1
 42
1.0
176
     1
 92
        0
176
     1
 66
   257
176
     1
 43
1.0
176
     1
 76
     1
176
     1
 77
     6
176
     1
 78
     2
176
     1
 67
     7
176
     1
 79
     5
176
     1
170
     0
176
     1
171
     0
176
     1
290
     0
176
     1
 93
       13
176
     1
 44
0.0
176
     1
173
     0
176
     1
  0
VISUALSTYLE
  5
319
102
{ACAD_REACTORS
330
30B
102
}
330
30B
100
AcDbVisualStyle
  2
Linepattern
 70
    14
177
     2
291
     1
 71
     2
176
     1
 72
     2
176
     1
 73
     0
176
     1
 90
        0
176
     1
 40
-0.6
176
     1
 41
-30.0
176
     1
 62
     5
 63
     7
421
 16777215
176
     1
 74
     1
176
     1
 91
        4
176
     1
 64
     7
176
     1
 65
   257
176
     1
 75
     7
176
     1
175
     7
176
     1
 42
1.0
176
     1
 92
        8
176
     1
 66
     7
176
     1
 43
1.0
176
     1
 76
     1
176
     1
 77
     6
176
     1
 78
     2
176
     1
 67
     7
176
     1
 79
     5
176
     1
170
     0
176
     1
171
     0
176
     1
290
     0
176
     1
 93
        1
176
     1
 44
0.0
176
     1
173
     0
176
     1
  0
VISUALSTYLE
  5
314
102
{ACAD_REACTORS
330
30B
102
}
330
30B
100
AcDbVisualStyle
  2
Realistic
 70
     8
177
     2
291
     0
 71
     2
176
     1
 72
     2
176
     1
 73
     0
176
     1
 90
        0
176
     1
 40
-0.6
176
     1
 41
-30.0
176
     1
 62
     5
 63
     7
421
 16777215
176
     1
 74
     1
176
     1
 91
        0
176
     1
 64
     7
176
     1
 65
   257
176
     1
 75
     1
176
     1
175
     1
176
     1
 42
1.0
176
     1
 92
        8
176
     1
 66
     8
424
  7895160
176
     1
 43
1.0
176
     1
 76
     1
176
     1
 77
     6
176
     1
 78
     2
176
     1
 67
     7
176
     1
 79
     5
176
     1
170
     0
176
     1
171
     0
176
     1
290
     0
176
     1
 93
       13
176
     1
 44
0.0
176
     1
173
     0
176
     1
  0
VISUALSTYLE
  5
318
102
{ACAD_REACTORS
330
30B
102
}
330
30B
100
AcDbVisualStyle
  2
Thicken
 70
    13
177
     2
291
     1
 71
     2
176
     1
 72
     2
176
     1
 73
     0
176
     1
 90
        0
176
     1
 40
-0.6
176
     1
 41
-30.0
176
     1
 62
     5
 63
     7
421
 16777215
176
     1
 74
     1
176
     1
 91
        4
176
     1
 64
     7
176
     1
 65
   257
176
     1
 75
     1
176
     1
175
     1
176
     1
 42
1.0
176
     1
 92
       12
176
     1
 66
     7
176
     1
 43
1.0
176
     1
 76
     1
176
     1
 77
     6
176
     1
 78
     2
176
     1
 67
     7
176
     1
 79
     5
176
     1
170
     0
176
     1
171
     0
176
     1
290
     0
176
     1
 93
        1
176
     1
 44
0.0
176
     1
173
     0
176
     1
  0
XRECORD
  5
332
102
{ACAD_REACTORS
330
321
102
}
330
321
100
AcDbXrecord
280
     1
290
     1
  0
XRECORD
  5
32B
102
{ACAD_REACTORS
330
321
102
}
330
321
100
AcDbXrecord
280
     1
1000
auto
  0
XRECORD
  5
32D
102
{ACAD_REACTORS
330
321
102
}
330
321
100
AcDbXrecord
280
     1
1000
auto
  0
XRECORD
  5
325
102
{ACAD_REACTORS
330
321
102
}
330
321
100
AcDbXrecord
280
     1
1000
auto
  0
XRECORD
  5
329
102
{ACAD_REACTORS
330
321
102
}
330
321
100
AcDbXrecord
280
     1
1000
auto
  0
XRECORD
  5
32A
102
{ACAD_REACTORS
330
321
102
}
330
321
100
AcDbXrecord
280
     1
 90
        1
  0
XRECORD
  5
326
102
{ACAD_REACTORS
330
321
102
}
330
321
100
AcDbXrecord
280
     1
 40
10.0
  0
XRECORD
  5
32E
102
{ACAD_REACTORS
330
321
102
}
330
321
100
AcDbXrecord
280
     1
 40
10.0
  0
XRECORD
  5
322
102
{ACAD_REACTORS
330
321
102
}
330
321
100
AcDbXrecord
280
     1
 40
10.0
  0
XRECORD
  5
336
102
{ACAD_REACTORS
330
321
102
}
330
321
100
AcDbXrecord
280
     1
 40
10.0
  0
XRECORD
  5
324
102
{ACAD_REACTORS
330
321
102
}
330
321
100
AcDbXrecord
280
     1
290
     0
  0
XRECORD
  5
32F
102
{ACAD_REACTORS
330
321
102
}
330
321
100
AcDbXrecord
280
     1
 90
        1
  0
XRECORD
  5
334
102
{ACAD_REACTORS
330
321
102
}
330
321
100
AcDbXrecord
280
     1
 40
0.0
  0
XRECORD
  5
335
102
{ACAD_REACTORS
330
321
102
}
330
321
100
AcDbXrecord
280
     1
 40
0.0
  0
XRECORD
  5
323
102
{ACAD_REACTORS
330
321
102
}
330
321
100
AcDbXrecord
280
     1
1000
Portait
  0
XRECORD
  5
328
102
{ACAD_REACTORS
330
321
102
}
330
321
100
AcDbXrecord
280
     1
 40
297.0
 91
        4
  0
XRECORD
  5
330
102
{ACAD_REACTORS
330
321
102
}
330
321
100
AcDbXrecord
280
     1
 40
210.0
 91
        4
  0
XRECORD
  5
327
102
{ACAD_REACTORS
330
321
102
}
330
321
100
AcDbXrecord
280
     1
1000
1
  0
XRECORD
  5
32C
102
{ACAD_REACTORS
330
321
102
}
330
321
100
AcDbXrecord
280
     1
290
     0
  0
XRECORD
  5
333
102
{ACAD_REACTORS
330
321
102
}
330
321
100
AcDbXrecord
280
     1
290
     1
  0
XRECORD
  5
331
102
{ACAD_REACTORS
330
321
102
}
330
321
100
AcDbXrecord
280
     1
 90
        4
  0
ENDSEC
  0
EOF
